<?xml version="1.0" standalone="no"?>
<!DOCTYPE svg PUBLIC "-//W3C//DTD SVG 1.1//EN" "http://www.w3.org/Graphics/SVG/1.1/DTD/svg11.dtd" >
<svg xmlns="http://www.w3.org/2000/svg">
<metadata></metadata>
<defs>
<font id="velesbold" horiz-adv-x="1081" >
<font-face units-per-em="2048" ascent="1638" descent="-410" />
<missing-glyph horiz-adv-x="500" />
<glyph horiz-adv-x="0" />
<glyph horiz-adv-x="682" />
<glyph unicode=" " />
<glyph unicode="!" horiz-adv-x="745" d="M67 74q0 28 16 51t40 34l2 1q25 39 65 57q32 13 60 13q56 0 100 -42q44 -43 44 -107q0 -40 -16 -72q-21 -43 -61 -74.5t-89 -31.5q-2 0 -6 0.5t-7 0.5q-111 12 -146 152q-2 12 -2 18zM118 652q0 38 3.5 112t3.5 110v24q0 150 8 227q23 219 61 368q2 10 17 69t21 81.5 t20 68.5t29 80.5t33 67.5q31 57 101 129.5t89 100.5q28 41 77 41q18 0 33 -6q25 -9 41 -29.5t16 -49.5q0 -16 -6 -33q-21 -57 -81.5 -132.5t-74.5 -110.5q-35 -85 -87 -289q-86 -346 -86 -648q0 -94 6 -153q1 -12 0 -23q-4 -49 -40.5 -77.5t-80.5 -28.5h-11q-38 3 -65 30 t-27 71z" />
<glyph unicode="&#x22;" horiz-adv-x="784" d="M15 1738q0 25 16.5 45.5t44.5 24.5q34 5 73 5q103 0 150.5 -49.5t47.5 -129.5q0 -64 -30.5 -177.5t-32.5 -126.5q-5 -37 -31.5 -57.5t-58.5 -20.5t-59.5 20.5t-27.5 56.5q0 16 8 35q11 25 22.5 85.5t11.5 112.5q0 106 -44 106q-1 0 -4 -0.5t-5 -0.5h-12q-32 0 -50.5 22 t-18.5 49zM389 1750q0 25 16.5 45.5t44.5 24.5q34 5 73 5q103 0 150.5 -49.5t47.5 -129.5q0 -64 -30.5 -177.5t-32.5 -126.5q-5 -37 -31.5 -58t-58.5 -21t-59.5 21t-27.5 57q0 16 8 35q11 25 22.5 85.5t11.5 112.5q0 106 -44 106q-1 0 -4 -0.5t-4 -0.5q-4 -1 -13 -1 q-32 0 -50.5 22.5t-18.5 49.5z" />
<glyph unicode="#" horiz-adv-x="1611" d="M8 378q0 30 20.5 53.5t55.5 24.5q182 4 275 4q33 222 61 345q-161 2 -243 6q-34 1 -54.5 24t-20.5 53t20 53.5t55 25.5q42 2 90.5 5t107.5 7t92 6q40 129 94 228q20 40 69 40q31 0 57.5 -20t26.5 -56v-7v-1v-1q-12 -83 -26 -172q58 1 165 1q15 -1 44 -2t52 -2t43 -2 q8 53 16.5 87.5t29.5 79t53 72.5q24 22 53 22q32 0 56.5 -23t24.5 -56q0 -19 -9 -37q-31 -57 -48 -156q54 -3 105 -3q114 0 208 18q16 2 23 2q42 0 67.5 -27.5t25.5 -64.5q0 -34 -23.5 -61.5t-64.5 -32.5q-78 -11 -191 -11q-83 0 -173 5q-10 -78 -20 -126q-24 -94 -51 -216 q170 1 366 11h5q44 0 69 -30t25 -67q0 -36 -24.5 -65t-67.5 -29h-8q-240 11 -401 11q-23 -100 -47 -240q-6 -35 -31 -53.5t-56 -18.5q-39 0 -72 26.5t-33 70.5q0 15 2 22q17 81 42 193h-292q-10 -46 -29.5 -131t-28.5 -125q-8 -34 -32.5 -52t-55.5 -19q-43 1 -74.5 28 t-31.5 72q0 6 2 20q8 42 35 208l-252 5q-35 1 -55.5 24.5t-20.5 53.5zM587 463q50 0 149 -1t146 -1q14 66 40.5 185.5t37.5 168.5q-23 1 -66 1q-27 0 -41 -1q-32 -1 -97.5 -2.5t-98.5 -2.5q-31 -167 -70 -347z" />
<glyph unicode="$" horiz-adv-x="1048" d="M108 278q0 44 32.5 71t73.5 27q38 0 67.5 -24t35.5 -68q4 -37 53 -59t125 -22q87 0 133 25q95 55 95 119q0 26 -18.5 56t-44.5 55.5t-66 55t-71.5 49.5t-71.5 44q-229 140 -250 301q-3 21 -3 42q0 109 76.5 177t201.5 92q2 82 8 154v16v1q3 33 32.5 56.5t72.5 23.5h8 q42 -2 70.5 -27t28.5 -60v-2l-2 -16q-1 -31 -4 -133q116 -9 201 -60q41 -24 41 -68q0 -32 -24 -56.5t-60 -24.5q-20 0 -39 9q-49 23 -122 23q-116 0 -203 -36.5t-87 -83.5q0 -43 67 -96q36 -28 143 -90t154 -108q159 -161 159 -306q0 -68 -38 -124q-97 -143 -276 -184 q-10 -40 -10 -109v-2l-1 -1q-2 -10 -3 -31.5t-2 -33.5q-3 -32 -33 -55t-72 -23h-7h-1q-42 2 -70.5 27t-28.5 58v7q3 19 3 58v1v1q5 82 8 98q-187 34 -270 209q-11 27 -11 47z" />
<glyph unicode="%" horiz-adv-x="1636" d="M111 1051q0 80 51 151q-1 6 -1 10q0 40 37 71q30 27 45.5 39.5t45.5 32.5t61 29t65 9h7q128 0 215 -95.5t87 -216.5q0 -110 -83 -180q-114 -96 -267 -96q-148 0 -219 110q-44 65 -44 136zM287 1049q0 -27 27.5 -46.5t68.5 -19.5q58 0 100 28t42 72q0 43 -35 80t-70 39 q-9 -16 -22 -26.5t-28.5 -18.5t-18.5 -10q-15 -22 -35 -32q-29 -35 -29 -66zM411 -87q0 23 15 49v1q69 109 122.5 247t107 309t92.5 267q63 160 100 261t78.5 244.5t60.5 269.5q6 31 32 47t56 16q35 0 64.5 -20t29.5 -57v-8v-2q-27 -198 -82 -412.5t-136 -436.5t-153 -398.5 t-172 -402.5q-28 -69 -101 -69q-44 0 -79 26.5t-35 68.5zM965 219q0 18 3 32q17 136 125 257q5 36 30 64t66 28q10 0 14 -1q28 19 56 19q46 0 74 -40q24 -4 34 -9q62 -26 100 -61l1 -1l1 -1q72 -80 79 -185v-1v-1q0 -81 -35.5 -153.5t-107 -120t-164.5 -47.5 q-112 0 -194 57.5t-82 163.5zM1165 231q0 -55 56 -55q59 0 99 36.5t40 84.5v9q-4 36 -31 60q-9 8 -36 20.5t-38 12.5q-5 0 -17 -6q-45 -57 -64 -111q-9 -27 -9 -51z" />
<glyph unicode="&#x26;" horiz-adv-x="1562" d="M129 231v3q1 89 29.5 168t82 144.5t110.5 115t132 100.5q-6 9 -10 17q-57 101 -57 232q0 63 14 124.5t42.5 117t68.5 98.5t96 68t121 25q63 0 131 -25q43 -15 83 -38.5t77 -56.5t59 -78.5t22 -96.5q0 -29 -9 -62q-20 -69 -55 -124t-87.5 -99t-97 -72t-116.5 -67l-16 -10 q62 -66 139 -118q141 -100 221 -150q122 133 260 350q22 37 66 37q32 0 56.5 -21.5t24.5 -55.5q0 -20 -11 -39q-122 -215 -241 -358q156 -74 294 -74q74 0 147 22q17 5 30 5q44 0 70.5 -33.5t26.5 -73.5q0 -32 -19.5 -58.5t-55.5 -32.5q-79 -15 -161 -15q-232 0 -474 109 q-231 -212 -499 -252q-38 -5 -75 -5q-52 0 -106 8t-111 28.5t-101 51.5t-72.5 80.5t-28.5 110.5zM351 290q0 -68 52.5 -111.5t143.5 -43.5q43 0 93 12q166 43 310 154q-215 133 -362 313q-100 -69 -161 -146q-76 -94 -76 -178zM597 1052q0 -16 1 -25q9 -87 47 -164 q110 66 139 86l2 2l3 1q55 24 93.5 79t38.5 108q0 77 -85 101q-42 10 -71 10q-82 0 -125 -55t-43 -143z" />
<glyph unicode="'" horiz-adv-x="425" d="M84 1258q0 33 27 62q31 34 60.5 94t29.5 110t-35 81l-2 2l-2 2q-36 43 -36 96q0 60 45.5 102.5t105.5 42.5q62 0 110 -47q73 -70 73 -163q0 -68 -33.5 -140.5t-91.5 -157t-71 -108.5q-31 -57 -90 -57q-35 0 -62.5 22.5t-27.5 58.5z" />
<glyph unicode="(" horiz-adv-x="806" d="M124 467q0 264 52 494q121 536 394 838q62 70 165 130t192 60q107 0 150 -95q8 -18 8 -36q0 -43 -34 -71t-74 -28q-53 0 -76 48l-1 2h-1q-32 0 -129 -97t-120 -133q-70 -113 -120 -236q-145 -358 -172 -583q-12 -108 -12 -220q0 -101 9 -193t33.5 -186t61.5 -162.5 t98.5 -111.5t140.5 -43q20 0 30 1q2 0 6 0.5t6 0.5q36 0 58 -22.5t22 -53.5q0 -37 -26.5 -68.5t-70.5 -37.5q-45 -7 -91 -7q-84 0 -155 26t-121.5 70t-90 107t-64 133t-40.5 152.5t-22 160t-6 161.5z" />
<glyph unicode=")" horiz-adv-x="880" d="M-33 -208q0 35 23.5 61t63.5 26q2 0 6 -0.5t6 -0.5q9 -1 28 -1q71 0 135 36t111.5 95.5t89 138.5t69.5 161t50 168t33.5 154.5t16.5 125.5q5 63 5 114q0 172 -52 441q-23 116 -66 224q-14 34 -86 124.5t-100 90.5q-3 0 -7 -6q-29 -42 -77 -42q-35 0 -63.5 24t-28.5 61 q0 25 16 49q58 88 157 88q87 0 175 -58.5t134 -126.5q201 -290 209 -804v-24q0 -59 -4.5 -128t-16.5 -157t-30.5 -175.5t-48 -180.5t-66.5 -175.5t-89.5 -156t-114 -127t-142 -84.5t-171.5 -31q-44 0 -86 7q-37 6 -58 31.5t-21 57.5z" />
<glyph unicode="*" horiz-adv-x="647" d="M131 1767q0 33 25 59q25 25 60 25q56 0 92 -54q4 -5 16 -10q-3 19 -3 39q0 16 3 36q5 28 19 77q8 35 33 60t60 25q22 0 45 -13q41 -24 41 -69q0 -34 -27 -76l-2 -3l-1 -1q-1 -3 -2 -6.5t-1 -4.5q60 48 132 62l14 6q23 11 45 11q37 0 64.5 -25.5t27.5 -65.5q0 -41 -26 -66 t-62 -25q-14 0 -32 5q22 -7 38 -16q26 -13 42 -29q24 -14 44 -40.5t20 -60.5q0 -31 -23 -54q-21 -21 -49 -21q-13 0 -25.5 4t-22 9t-20 13.5t-16 13.5t-12.5 12l-7 8q-2 2 -12 4h-2l-2 1q-7 2 -15 6t-10 4q7 -26 13 -52q8 -43 5 -70v-1q-2 -16 -3 -23q-1 -4 -2 -9.5t-2 -9 t-1 -5.5q1 -7 1 -16q0 -39 -27.5 -67.5t-65.5 -28.5q-25 0 -45 12q-44 26 -44 77q0 32 23 61q2 20 2 26v11q-2 -2 -4.5 -4t-3.5 -3q-31 -28 -64 -40q-26 -12 -47 -21h-1l-1 -1q-30 -10 -56 -10q-29 0 -53.5 16t-32.5 48q-3 11 -3 24q0 36 25.5 64t63.5 28q16 0 30 -5 q2 -1 3 -1q2 0 16 7q6 3 7 4q4 2 6 4q-17 4 -49 16q-24 10 -70 32h-1v1q-68 36 -68 96z" />
<glyph unicode="+" horiz-adv-x="1439" d="M137 813q0 40 27.5 73.5t71.5 35.5q51 3 103 3q49 0 257 -10q0 196 4 292q1 43 30 69t66 26t66.5 -26t30.5 -69q4 -98 4 -300q187 2 313 38q20 6 39 6q54 0 86 -39.5t32 -89.5q0 -48 -32 -86t-89 -44q-159 -15 -317 -15l-30 1q3 -183 20 -312q1 -5 1 -15q0 -52 -38.5 -80 t-85.5 -28t-85 27.5t-38 80.5q0 10 1 15q15 121 19 318q-186 10 -379 39q-37 6 -57 32t-20 58z" />
<glyph unicode="," horiz-adv-x="561" d="M126 -435q0 34 28 65q35 37 68 104t33 123q0 58 -39 91l-3 2l-1 2q-40 49 -40 103q0 65 49.5 110.5t114.5 45.5q66 0 117 -50q79 -78 79 -177q0 -74 -36.5 -153t-100 -172.5t-77.5 -119.5q-33 -61 -96 -61q-38 0 -67 24t-29 63z" />
<glyph unicode="-" d="M88 616q0 58 71 87.5t187 29.5h32q33 1 76.5 0t92 -1t100 -4t100 -8.5t91.5 -13.5t75 -21t51 -29.5t19 -39.5q0 -72 -92 -88.5t-337 -15.5h-65h-135q-149 0 -207.5 21t-58.5 83z" />
<glyph unicode="." horiz-adv-x="675" d="M146 57q0 78 55 134.5t133 56.5q53 0 89 -32.5t49.5 -75.5t13.5 -92q0 -77 -57.5 -123t-134.5 -46q-76 0 -112 50.5t-36 127.5z" />
<glyph unicode="/" horiz-adv-x="706" d="M-3 -7q0 28 15 55q104 190 334.5 663t376.5 722q26 47 76 47q37 0 65.5 -28t28.5 -68q0 -20 -9 -40q-57 -131 -184.5 -382t-183.5 -378q-17 -39 -68 -158t-77.5 -177t-74 -149.5t-94.5 -163.5q-35 -51 -92 -51q-44 0 -78.5 31t-34.5 77z" />
<glyph unicode="0" horiz-adv-x="1425" d="M126 469q0 74 11 155t41 172.5t75.5 163t121.5 119t171 47.5q9 0 29 -2q5 0 14 4t19 10t13 8q144 66 281 66q191 0 293 -128q131 -166 131 -373q0 -167 -85 -323q-42 -79 -101 -153.5t-133 -142t-166 -117t-187 -68.5q-56 -12 -105 -12q-89 0 -162 35.5t-120.5 93 t-80 133.5t-46.5 154t-14 158zM321 502q0 -51 6.5 -103.5t22.5 -108t40 -98t63.5 -70t88.5 -27.5q21 0 32 2q128 19 256.5 112t212.5 227.5t84 262.5q0 141 -99 237q-67 63 -157 63q-70 0 -152.5 -39.5t-151 -98.5t-122 -127.5t-75.5 -126.5q-13 -38 -48 -57q-1 -19 -1 -48z " />
<glyph unicode="1" horiz-adv-x="1058" d="M-30 785q0 43 31 78.5t78 35.5h8q87 0 177 47t160 120t123 159.5t76 167.5q11 39 45.5 59.5t75.5 20.5q46 0 83 -26.5t37 -73.5q0 -13 -1 -20q-63 -335 -93 -643q-16 -159 -31 -362q-2 -22 -12 -112t-10 -136q0 -41 8 -83q2 -8 2 -24q0 -54 -42 -85t-94 -31q-48 0 -84 28 t-36 80q0 18 6 39q15 59 15 154q0 19 -1 57.5t-1 58.5q0 21 2 63q14 217 30 365q6 54 17 146q-202 -180 -403 -180q-49 0 -97 12q-33 8 -51 32t-18 53zM2679 1422v61h61v-61h-61z" />
<glyph unicode="2" horiz-adv-x="1261" d="M125 1046q0 16 8 34q21 46 57 84.5t84.5 66.5t92 46.5t99.5 37.5q5 2 30 10t34.5 11t34 10.5t37.5 11t36 8.5t40 7.5t38 4.5t40 2q60 0 111 -20q184 -71 184 -267q0 -153 -99 -308q-162 -252 -352 -417q-7 -7 -33 -28.5t-46 -39t-42.5 -39t-35 -38.5t-12.5 -27v-3.5t7 -4 t21 -6.5q67 -12 138 -12q64 0 143.5 10.5t132.5 21.5t146 33t126 29q15 3 28 3q45 0 71 -31t26 -70q0 -44 -30.5 -79.5t-83.5 -39.5q-73 -5 -271 -44.5t-316 -39.5q-34 0 -51 1q-53 3 -105.5 16t-100 37t-77 64t-29.5 90q0 53 32 105q28 47 73 91.5t95.5 88.5t77.5 76 q24 30 108.5 123t130.5 157.5t72 132.5t26 125q0 51 -20.5 76.5t-67.5 25.5q-23 0 -61 -8q-306 -67 -371 -161q-27 -39 -80 -39q-37 0 -66.5 22.5t-29.5 59.5z" />
<glyph unicode="3" horiz-adv-x="1253" d="M98 1074q0 39 33 72q90 88 233 152.5t285 64.5q153 0 253 -79q74 -58 74 -140q0 -98 -126 -240q261 -62 332 -245q29 -74 29 -155q0 -190 -153 -345q-92 -91 -226 -154t-271 -63q-98 0 -181 37q-82 40 -125 100.5t-43 131.5q0 110 92 210q35 38 85 38q55 0 94 -40t39 -89 q0 -29 -18 -55t-50 -41q-1 -5 -1 -7q0 -12 28 -20l3 -1l4 -2q42 -24 87 -24q20 0 42 5q92 21 155 55q85 44 146 101.5t69 120.5q2 22 2 31q0 73 -56 125t-138.5 75.5t-180.5 25.5q-49 1 -80 30t-31 68q0 34 23 60q7 9 64 65.5t102.5 107t48.5 70.5q-45 34 -116 34 q-85 0 -189 -46.5t-185 -102.5q-29 -20 -61 -20q-38 0 -65 26t-27 63z" />
<glyph unicode="4" horiz-adv-x="1124" d="M123 664q0 33 6.5 67t21.5 72t25.5 60.5t31.5 63.5t25 50q6 11 23 54.5t32 77t44 70t63 52.5q23 10 49 10q28 0 54 -12.5t37 -34.5q13 -21 13 -47q0 -12 -1 -17q-2 -36 -51 -65q-7 -10 -15 -25q-65 -116 -67 -120q-4 -7 -18.5 -33t-20 -36.5t-17.5 -33t-17.5 -36.5 t-12.5 -32.5t-10 -34t-3 -30.5q23 -14 107 -14q136 0 266 26q73 253 189 469q12 24 38.5 40t55.5 16q26 0 46.5 -14t29.5 -40q8 -28 8 -45q0 -16 -13 -59q-9 -22 -26 -35q-83 -226 -121 -371q6 -18 6 -34q0 -41 -33 -74q-43 -185 -43 -363q0 -29 7.5 -95t7.5 -103 q0 -48 -39 -75.5t-88 -27.5q-44 0 -79.5 24.5t-35.5 67.5q0 280 45 521q-193 -27 -266 -27q-46 0 -85.5 7.5t-76.5 25t-60.5 50.5t-29.5 79q-2 10 -2 31z" />
<glyph unicode="5" horiz-adv-x="1142" d="M74 132q0 50 42.5 87.5t92.5 37.5q35 0 61.5 -23.5t35.5 -65.5q3 -16 13.5 -22.5t35.5 -6.5q69 0 170.5 47t178.5 116.5t77 124.5v26q-19 96 -160 96q-46 0 -91 -14q-20 -6 -56 -30t-77 -43t-82 -19q-11 0 -16 1q-38 5 -62 30.5t-24 62.5q0 14 5 32q8 25 14 56.5t9 53 t7.5 62.5t6.5 57q-17 9 -28 22q-80 96 -80 186q0 49 25.5 94t68 80t105 67t127.5 55.5t145 45.5t148.5 36.5t146 28t130.5 21t110 15.5t75 11q3 0 7.5 1t8.5 1.5t8 0.5q49 0 77.5 -33t28.5 -76q0 -48 -32.5 -85t-88.5 -37h-3q-61 0 -199.5 -19.5t-290 -50.5t-265.5 -77 t-114 -92q0 -1 3 -13h12q35 0 62.5 -20t27.5 -57q0 -14 -2 -21q-14 -66 -27 -167q20 7 48 14q86 21 159 21q65 0 120 -17q113 -35 175.5 -113.5t62.5 -178.5q0 -46 -14 -96q-38 -130 -156.5 -230.5t-269.5 -156.5q-101 -38 -194 -38q-52 0 -88 12q-39 13 -67 32t-64.5 55 t-45.5 44q-33 29 -33 69z" />
<glyph unicode="6" horiz-adv-x="1255" d="M113 521q0 164 67 328t178 286q213 208 440 272q71 22 137 22q56 0 97 -26t41 -84q0 -15 -3 -32q-6 -34 -36 -55t-64 -21q-7 0 -13 1.5t-11 4t-8.5 5t-7.5 6.5t-6 6.5t-5 6.5t-4 5q-43 -16 -122 -50t-89 -40q-152 -101 -236 -217q-67 -93 -109 -204.5t-42 -215.5 q0 -21 5 -66q254 195 476 195q40 0 80 -6q110 -20 191.5 -82t81.5 -159q0 -39 -17 -84q-59 -149 -206.5 -248t-323.5 -99q-202 0 -328 129q-163 167 -163 422zM417 272q101 -92 231 -92q105 0 188 68q34 28 65 64.5t31 58.5q0 5 -1 7q-6 23 -42.5 37t-84.5 14 q-3 0 -7.5 -0.5t-6.5 -0.5q-102 -5 -197 -44t-164 -102q-8 -6 -12 -10z" />
<glyph unicode="7" horiz-adv-x="1140" d="M88 530q0 31 23 66.5t60 42.5q62 15 104 21.5t64 7t70.5 1t94.5 2.5q32 119 73 213q64 155 143 265q-39 2 -84.5 7.5t-77 10t-84 12.5t-76.5 11q-27 -62 -87 -62q-24 0 -47 17q-63 50 -97 111q-11 20 -11 42q0 39 30.5 68t69.5 29h3q79 -3 261 -33.5t274 -30.5 q74 0 141 15q32 18 85 33q11 3 24 3q43 0 70 -29t27 -65q0 -28 -17 -52t-45 -34q-8 -4 -16.5 -7t-17.5 -6t-13 -5q-147 -64 -263 -401q-5 -16 -15 -46.5t-13 -39.5q99 9 152 22q14 3 31 3q43 0 67.5 -28t24.5 -66q0 -40 -30 -73t-81 -37q-184 -11 -212 -13q-6 -27 -7 -35 q-2 -15 -10 -67.5t-12 -90.5t-4 -73q0 -102 40 -167q13 -41 13 -43q0 -45 -42 -73t-89 -28q-44 0 -75 25.5t-31 69.5q0 39 -16 125.5t-16 134.5q0 116 15 197q-82 -11 -114 -11q-12 0 -36 2q-44 -9 -69 -9q-22 0 -54 5q-1 0 -11 1t-16.5 2t-18 3t-19.5 6.5t-16.5 11 t-12.5 16.5t-4 23z" />
<glyph unicode="8" horiz-adv-x="1124" d="M98 291v28v3q7 48 31.5 91.5t64 81t75.5 65.5t84.5 62t72.5 54q-57 87 -86.5 144t-32.5 100q-6 75 -6 79q0 211 125 304q48 36 137 36q67 0 113 -24q4 -2 8.5 -4.5t6.5 -3.5t3 -2q61 17 94 22q18 2 37 2q52 0 90.5 -22t59.5 -58.5t31 -76t10 -82.5q0 -30 -2 -46 q-6 -57 -30.5 -110t-76.5 -108t-81.5 -81.5t-99.5 -83.5q-4 -4 -6.5 -6t-6 -5t-6.5 -5q24 -38 71 -129q66 -164 66 -264q0 -68 -27 -121q-42 -75 -131 -123.5t-194 -48.5q-35 0 -58 2q-134 23 -235 116t-101 214zM307 317q0 -56 62.5 -109.5t128.5 -53.5q20 0 24 2l2 2h2 q59 13 83 41t24 73q0 95 -101 265q-4 -3 -27.5 -19t-29.5 -20t-25.5 -18t-26.5 -20t-23 -18t-24 -20l-19.5 -19.5t-19.5 -21.5t-15 -21l-3 -2v-2q-12 -15 -12 -39zM508 1028q1 -3 7.5 -19t6.5 -30q0 -4 -2 -16q3 -40 23 -78q13 -24 61 -103q100 76 163.5 152.5t63.5 138.5 q0 37 -14 60q-3 8 -16 8q-14 0 -29 -6v-29q0 -37 -33 -58.5t-71 -21.5q-51 0 -107 70q-32 -3 -42 -15t-11 -53z" />
<glyph unicode="9" horiz-adv-x="1183" d="M60 95q0 50 37.5 89t88.5 39q46 0 82 -37q37 -38 89 -38t117.5 35.5t121 86.5t99.5 104t63 92q42 87 60 187q-123 -88 -271 -115q-46 -8 -88 -8q-136 0 -231.5 68.5t-95.5 190.5q0 3 0.5 8.5t0.5 8.5q9 143 94.5 270t226.5 185q84 34 177 34q101 0 185 -40.5t130 -112.5 h4q43 0 76.5 -27.5t33.5 -74.5q0 -131 -5.5 -222t-25 -206.5t-64 -217t-114.5 -189.5q-148 -174 -330 -246q-74 -30 -151 -30q-60 0 -113.5 16.5t-123.5 47.5q-35 15 -54 42.5t-19 59.5zM356 822q0 -75 112 -75q48 0 99.5 15t82.5 36q108 75 166 180q-7 7 -13 16 q-60 88 -156 88q-63 0 -131.5 -38t-114 -99.5t-45.5 -122.5z" />
<glyph unicode=":" horiz-adv-x="555" d="M57 266l4 22l1 2q8 67 54 113t109 46q6 0 11 -1.5t7 -2.5l2 -1q61 -7 99.5 -52.5t38.5 -108.5q0 -7 -1 -13.5t-2 -9.5l-1 -4v-2v-1q-8 -68 -54 -112.5t-110 -44.5h-16h-1q-61 6 -101 56.5t-40 113.5zM92 887v22v2q7 68 57.5 113t114.5 45h14h2q59 -7 98.5 -54.5 t39.5 -109.5q0 -8 -1 -16l-1 -8v-2v-2q-8 -68 -55 -113t-111 -45h-16h-2q-60 7 -100 55.5t-40 112.5z" />
<glyph unicode=";" horiz-adv-x="651" d="M131 -189q0 32 27 61q31 34 60.5 94t29.5 110q0 51 -35 82l-2 2l-2 2q-36 43 -36 96q0 60 46 102.5t106 42.5q61 0 109 -47q73 -70 73 -163q0 -68 -33.5 -140.5t-91.5 -157t-71 -108.5q-31 -58 -90 -58q-35 0 -62.5 23t-27.5 59zM178 862v22v2q7 68 57.5 113t114.5 45h14 h2q60 -7 99 -54t39 -109q0 -8 -1 -17l-1 -8v-2v-1q-8 -68 -55 -113.5t-111 -45.5h-16l-2 1q-60 7 -100 55.5t-40 111.5z" />
<glyph unicode="&#x3c;" horiz-adv-x="792" d="M68 593q2 21 8 39.5t19.5 37t22 30t30 29.5t27.5 23t31 23t26 18q70 51 176 162t151 151q22 19 47 19q28 0 48.5 -20t20.5 -48t-20 -48q-19 -20 -91.5 -115t-126.5 -138q-68 -55 -150 -151q6 -6 16 -13q18 -14 46.5 -37t38.5 -31q57 -47 89.5 -72.5t84 -57t98.5 -48.5 q29 -11 44 -35t15 -51q0 -34 -21.5 -62t-58.5 -28q-15 0 -32 6q-69 27 -141 73t-123.5 88.5t-118.5 96.5t-116 86q-45 29 -40 73z" />
<glyph unicode="=" horiz-adv-x="1001" d="M61 405q0 24 13.5 44.5t39.5 26.5q127 27 288 27q78 0 219.5 -7.5t180.5 -8.5q40 -2 63 -29t23 -61t-23 -61.5t-63 -28.5q-100 -2 -153 -2q-295 0 -533 33q-27 4 -41 23.5t-14 43.5zM104 730q0 27 18 50t50 23h2h2q93 -5 222 -5q188 0 411 13h6q40 0 62 -28t22 -62 t-22 -62t-62 -28h-5q-30 1 -93 1q-37 0 -110.5 -1t-111.5 -1q-203 0 -338 32q-25 6 -39 25.5t-14 42.5z" />
<glyph unicode="&#x3e;" horiz-adv-x="944" d="M98 225q0 48 44 69q71 36 139.5 80.5t170 119t132.5 95.5q-172 128 -339 284q-21 20 -21 48q0 29 20.5 50.5t50.5 21.5q20 0 37 -11q87 -54 233 -170t207 -158q40 -26 40 -70q0 -45 -40 -71q-66 -41 -250.5 -174.5t-298.5 -191.5q-22 -10 -39 -10q-37 0 -61.5 27 t-24.5 61z" />
<glyph unicode="?" horiz-adv-x="1140" d="M89 1341q0 86 48.5 192t95.5 151q116 110 275 191t309 81q59 0 104 -12q69 -18 119 -53q116 -81 116 -239q0 -82 -31 -168.5t-83 -160.5q-38 -54 -84.5 -111t-107 -126.5t-88.5 -103.5q-2 -3 -44.5 -53t-54.5 -65.5t-48.5 -62.5t-51 -73t-36 -65t-30 -71.5t-8.5 -61.5 v-12q2 -27 -6 -50q-12 -34 -41.5 -52t-62.5 -18q-22 0 -40 7q-27 10 -45 32.5t-18 53.5q0 19 8 41q14 36 37.5 115t48 139t61.5 116q66 99 220 281q17 20 83 93t103 117.5t72.5 109.5t35.5 112q0 7 -2 23q-6 31 -16 48q-28 47 -104 47q-68 0 -156.5 -33.5t-152.5 -72.5 q-42 -26 -60 -37.5t-46 -35t-41 -45.5q-63 -100 -63 -132q0 -9 3 -10q25 -22 25 -57q0 -34 -22.5 -62.5t-55.5 -34.5q-25 -5 -43 -5q-55 0 -88 33q-34 35 -34 100zM254 -35q0 11 1 16q1 2 2 5.5t1 4.5v11q4 53 46 87q20 15 36 22q32 20 62 20q18 0 31 -4q23 -7 38 -22 q27 -8 44 -29t20 -47q1 -8 1 -26q0 -97 -72 -136q-28 -16 -62 -16q-45 0 -81 27q-2 1 -6 4.5t-5 4.5q-24 9 -40 30t-16 48z" />
<glyph unicode="@" horiz-adv-x="1593" d="M109 473q0 152 71.5 299.5t187 257t261 184t292.5 93.5q32 4 73 4q148 0 274 -73.5t199 -197.5t73 -267q0 -101 -39 -198q-26 -64 -61 -118t-82.5 -98.5t-110.5 -70t-135 -25.5q-101 0 -166 74q-95 -87 -205 -87q-36 0 -65 8q-99 25 -153 99.5t-54 170.5q0 60 22 124 q43 124 130.5 198.5t212.5 74.5q23 0 34 -1q99 -8 159 -73t60 -156q0 -10 -3 -34q7 -21 6 -42q-1 -14 -5.5 -33t-4.5 -24q0 -40 20 -66.5t47 -26.5q22 0 44 14q69 42 104 127q32 82 32 162q0 87 -40 160q-93 167 -290 167q-172 0 -346 -114q-135 -89 -237 -226t-102 -268 q0 -112 79 -203q88 -102 237 -160t303 -58q53 0 107 8q14 2 20 2q45 0 71 -30t26 -69q0 -43 -29.5 -76.5t-80.5 -33.5q-81 1 -155 6.5t-166 21t-169.5 39t-156.5 64.5t-136 94.5t-97.5 131.5t-51.5 173q-4 32 -4 72zM677 524q0 -49 32 -57q15 -4 32 -4q47 0 83.5 36.5 t51.5 92.5q1 20 6 40q0 3 1 6t2 7t2 7q2 8 10 24q-13 44 -68 44h-5q-50 -2 -80.5 -26.5t-47.5 -74.5q-19 -57 -19 -95z" />
<glyph unicode="A" horiz-adv-x="1406" d="M-121 345q0 22 22 54q86 119 243 186q27 285 121 520q231 595 556 595h6q55 0 101 -17.5t77 -43t56 -66t40 -77t26 -86t16 -82.5t10 -77q13 -116 22 -340.5t10 -244.5q36 -32 36 -80q0 -42 -26 -71q21 -253 92 -453v-1v-1q3 -12 3 -31q0 -44 -32.5 -70.5t-73.5 -26.5 q-32 0 -59.5 18t-39.5 52q-78 203 -102 471q-28 0 -84 1t-87 1q-291 0 -448 -37v-32q0 -142 26 -265q33 -29 33 -69q0 -6 -0.5 -9t-0.5 -4l-1 -1v-15v-1q-3 -28 -29 -49t-55 -25q-4 -1 -9 -2t-7 -1h-3h-22q-37 0 -68.5 18.5t-40.5 56.5q-37 139 -47 279q-8 -34 -35 -57.5 t-68 -23.5h-49q-44 0 -76.5 33t-32.5 74zM384 648q201 38 516 38q52 0 75 -1q-2 33 -8.5 116.5t-7.5 132.5q-1 25 -2.5 104t-4.5 123t-11 108.5t-26.5 112.5t-46.5 84q-21 27 -45 27q-46 0 -114.5 -87t-128.5 -202t-103.5 -211.5t-54.5 -131.5q-14 -64 -38 -213z" />
<glyph unicode="B" horiz-adv-x="1599" d="M-324 352v27q0 51 37 79.5t82 28.5q38 0 70.5 -23.5t32.5 -66.5q0 -7 -2 -17t-2 -13q1 -35 92.5 -62.5t214.5 -38.5q0 28 -3 78t-3 64q0 32 2 122t2 119v70q0 21 -1 52t-1 52q0 37 2 64q8 303 51 467q-38 -26 -80 -51q-45 -17 -55 -17q-45 0 -73 43t-28 78q0 37 39 63 q146 102 232.5 144t259.5 90q101 33 217 33q70 0 135.5 -14t126 -44t97 -86t36.5 -131q0 -166 -217 -336q154 -14 280.5 -71t202.5 -158q101 -131 101 -283q0 -135 -77 -251.5t-212 -180.5q-164 -77 -381.5 -113t-433.5 -36q-27 0 -82 -4t-84 -4t-45 2q-168 16 -215 25 q-237 43 -297 189q-14 34 -19 72q-2 12 -2 39zM440 854q0 -37 5.5 -115.5t5.5 -120.5v-30q0 -27 -4.5 -89t-4.5 -93q0 -78 19 -123q8 -21 8 -45v-15q346 0 588 94q172 69 221 136q37 58 37 143q0 101 -53 166q-71 84 -189 129t-248 45q-149 0 -272 -57q-23 -13 -51 -13 q-36 0 -62 23v-4v-31zM446 1016q2 2 7.5 5t7.5 5q204 118 311 209q182 150 182 215q0 4 -1 8t-2.5 8t-2.5 7q-48 77 -178 77q-64 0 -137.5 -19.5t-130.5 -47.5q26 -26 26 -56q0 -4 -2.5 -17t-3.5 -13q-40 -90 -55.5 -176.5t-20.5 -204.5z" />
<glyph unicode="C" horiz-adv-x="1574" d="M91 665q0 136 32 266q71 299 336 537q100 88 278.5 163.5t332.5 75.5q56 0 99 -11q136 -34 205 -112t69 -179q0 -144 -121.5 -270.5t-305.5 -158.5q-3 0 -7.5 -1t-8.5 -1.5t-8 -0.5q-40 0 -65 23.5t-25 54.5q0 29 21.5 52.5t58.5 30.5q95 18 174 89.5t79 143.5 q0 32 -17 60q-57 93 -180 93q-130 0 -273 -91q-184 -118 -298 -298t-140 -377q-5 -40 -5 -76q0 -87 24 -167.5t72.5 -151t133 -115t195.5 -49.5q5 0 14.5 -0.5t14.5 -0.5q134 0 287 53t234 131q36 36 82 36q37 0 64.5 -24.5t27.5 -62.5t-31 -72q-114 -125 -303.5 -188.5 t-384.5 -63.5q-158 0 -262 38q-114 43 -195 113.5t-124 156.5t-61.5 172.5t-18.5 181.5z" />
<glyph unicode="D" horiz-adv-x="1560" d="M23 150q0 43 30 74.5t76 31.5q11 0 22 -2.5t17 -5t18.5 -8t16.5 -7.5q-2 8 -2 23q1 55 5.5 241.5t6.5 269.5t6.5 230.5t10.5 268t14 237.5q-38 10 -58 40t-20 65q0 31 19 58t53 36q138 33 286 33q188 0 357 -55.5t297.5 -156.5t204 -253t75.5 -334q0 -51 -2 -78 q-10 -116 -72.5 -245t-165.5 -245.5t-229 -211t-277 -151t-296 -56.5q-197 0 -344 112q-49 33 -49 89zM395 201h2q151 0 306.5 66.5t273.5 171.5t193 241t75 268q0 20 -4 60q-15 125 -81 225.5t-166 163.5t-224 96t-260 33q-35 0 -47 -2q-10 -176 -18.5 -605.5t-26.5 -664.5 q-3 -29 -23 -53z" />
<glyph unicode="E" horiz-adv-x="1179" d="M66 1395q0 48 38 73q43 33 105 68q2 27 2 76q0 16 -1 46t-1 46v6q0 39 26 61.5t60 22.5q36 0 66.5 -23.5t33.5 -62.5q4 -66 4 -100q65 21 146 34q82 13 190 13q33 0 97.5 -1t95.5 -1q103 0 164 12q10 2 24 2q49 0 78 -32.5t29 -73.5q0 -42 -28 -74.5t-77 -32.5 q-16 0 -26 2q-116 21 -226 21q-245 0 -471 -70q-6 -151 -47 -483q74 10 166 10t236 -8q45 -3 71.5 -31t26.5 -64t-26.5 -63.5t-71.5 -30.5q-12 0 -32 -1t-30 -1q-28 0 -84 1t-84 1q-130 0 -196 -14q-16 -131 -21 -242q0 -8 -7 -79.5t-7 -116.5q0 -187 100 -187q26 0 53 8 q133 40 416 166q26 13 49 13q44 0 73.5 -30.5t29.5 -68.5q0 -50 -49 -77q-7 -3 -48.5 -25t-64.5 -33.5t-72 -35t-83 -37.5t-84.5 -32.5t-90.5 -29t-86 -18t-86 -7.5q-89 0 -150 46t-79 143q-27 153 -27 307q0 138 17.5 295t46 344.5t39.5 290.5q-21 -12 -43 -12 q-36 0 -60 28t-24 62z" />
<glyph unicode="F" horiz-adv-x="1128" d="M79 35q0 2 0.5 6.5t0.5 5.5q15 149 42 474.5t46 497.5q3 31 7.5 198.5t26.5 256.5q-3 18 -3 19q0 40 33 66q17 36 23 46q56 39 73 39q43 0 70 -29q207 52 425 52q196 0 370 -42q30 -7 46 -31t16 -52q0 -31 -20.5 -57.5t-56.5 -26.5h-10q-192 25 -359 25q-234 0 -433 -49 q-21 -74 -28 -168t-7 -228.5t-1 -176.5q85 22 206 22q43 0 123 -3t116 -3q63 0 101 5q5 1 15 1q45 0 74.5 -29t29.5 -66q0 -28 -19.5 -51t-53.5 -30q-41 -9 -91 -14t-82.5 -5.5t-92 -1t-81.5 -0.5h-24h-55q-137 0 -184 -24q-39 -402 -43 -619q-1 -44 -33 -68.5t-71 -24.5 q-37 0 -66.5 22.5t-29.5 62.5z" />
<glyph unicode="G" horiz-adv-x="1538" d="M89 734q0 59 8 117q15 106 58 215t114.5 213t162.5 186.5t212 135.5t253 58h28q187 0 296 -94.5t109 -233.5q0 -155 -130 -286q-22 -24 -58 -24t-62 23t-26 54q0 28 24 51q81 77 81 152q0 72 -71.5 122.5t-173.5 50.5q-78 0 -150 -33q-162 -78 -250 -159 q-116 -108 -178.5 -248t-62.5 -289q0 -97 27 -190q23 -77 58 -144t81.5 -121t107 -85t127.5 -31q89 0 186 50q222 115 326 316q-180 -5 -314 -5l-159 2q-47 1 -75.5 29t-28.5 64t27.5 64t75.5 30q125 6 356 8t261 3q43 0 72 -29t29 -69q0 -10 -4 -26q-34 -120 -104 -231.5 t-168.5 -200.5t-230 -142.5t-274.5 -53.5q-31 0 -62 3q-106 9 -192.5 62t-142 131t-93.5 176t-54 193t-16 186z" />
<glyph unicode="H" horiz-adv-x="1388" d="M-217 850q0 68 88 100q50 18 84 25t96 16t137 25v39q0 119 1 185.5t8.5 177.5t22 190t43 177.5t69.5 186.5q27 53 104 53h29q84 0 84 -123v-12q0 -14 -6 -32q-72 -218 -93.5 -338.5t-21.5 -300.5v-160l4 -6q193 20 399 20q17 0 53 -1t54 -1q12 174 76 488q16 94 102 94 q98 0 107 -80v-17l-2 -14q-7 -46 -20.5 -133t-21.5 -140t-17 -124.5t-13 -128.5q1 -1 2 -2.5t2 -2.5t2 -1q66 -19 66 -74q0 -58 -74 -82q3 -364 125 -700q6 -11 6 -25q0 -9 -6 -27q-13 -42 -33 -66t-59 -24h-17q-76 0 -94 49q-141 370 -141 789v10l-4 4h-2q-74 4 -103 4 q-193 0 -383 -24q0 -21 1 -109.5t1 -117t1.5 -109t5.5 -118t10 -108t15.5 -116t22.5 -105t31 -111.5t41 -102l4 -6l2 -20q-1 -38 -25 -62t-50.5 -31.5t-53.5 -7.5q-36 0 -64.5 16.5t-40 32t-18.5 31.5q-34 73 -57 160.5t-34.5 157.5t-17.5 175t-6.5 162t-0.5 169v196l-4 6 q-103 -18 -160.5 -26t-81.5 -9.5t-39 -3.5q-31 -2 -33 -2h-10q-92 0 -92 64z" />
<glyph unicode="I" horiz-adv-x="573" d="M121 350v59q0 54 3 108.5t10.5 135t8.5 98.5q21 229 21 602v198q0 49 24 84.5t74 35.5t91.5 -30t41.5 -83v-49q0 -4 -4 -24v-47q0 -325 -29 -639q-1 -12 -14.5 -151.5t-13.5 -212.5q0 -210 79 -334q17 -26 17 -51q0 -45 -39 -71t-86 -26q-67 0 -109 58v1h-1 q-47 73 -60.5 150t-13.5 188z" />
<glyph unicode="J" horiz-adv-x="1200" d="M-49 400q0 103 62.5 173t179.5 70q43 0 92 -9q35 -7 54 -31.5t19 -53.5q0 -33 -24 -60.5t-66 -27.5h-9q-3 0 -9.5 0.5t-9.5 0.5q-54 0 -75.5 -18.5t-21.5 -53.5q0 -68 72 -137t161 -69q56 0 109 32q141 86 211 202q108 190 135 481q10 118 18.5 332t21.5 366v7l45 79 l11 4q22 9 44 9q45 0 78 -30.5t33 -75.5q0 -10 -1 -15q-15 -117 -23 -292t-12.5 -304t-31 -287t-78.5 -282q-25 -60 -55.5 -114t-77.5 -110.5t-101 -98t-128 -69.5t-156 -32q-4 0 -12 -0.5t-12 -0.5q-103 0 -189.5 38.5t-140.5 100t-83.5 133.5t-29.5 143z" />
<glyph unicode="K" horiz-adv-x="1671" d="M90 134q0 40 4 92q1 210 9 670.5t8 702.5q0 46 32.5 70.5t71.5 24.5t71.5 -27t32.5 -74q-1 -136 -6.5 -390t-6.5 -364l56 102q220 358 587 681q126 111 203 159q132 83 235 83q73 0 125 -39q104 -73 104 -199q0 -92 -50 -206q-13 -32 -43 -49t-63 -17q-40 0 -72.5 23.5 t-32.5 66.5q0 8 1.5 15t3.5 12.5t2 6.5l1 1v2q39 100 39 145q0 21 -3.5 26t-13.5 5q-24 0 -91 -34q-121 -68 -194 -135q-25 -22 -49 -45.5t-51 -51.5t-45 -47.5t-49 -54t-43.5 -49t-47.5 -54.5t-44 -50l-81 -97q64 -14 124.5 -41t121 -71.5t110.5 -114t81 -157.5 q9 -25 25 -77t28.5 -90.5t34 -92.5t42 -93t51.5 -81.5t65 -69t79.5 -44t96.5 -17.5q8 0 24.5 -0.5t25.5 -0.5q53 0 80 17q26 17 52 17q43 0 70.5 -33t27.5 -74q0 -26 -12 -57.5t-37 -47.5q-52 -35 -85 -43.5t-147 -16.5q-8 -1 -17 -1t-19 1q-141 8 -253.5 69.5t-170.5 165.5 q-34 47 -65.5 122.5t-54 148.5t-55.5 155t-69 147.5t-95.5 118.5t-133.5 75q-15 6 -47 6q-25 0 -37 -5q-105 -158 -164 -308t-72 -314v-158q0 -46 -29.5 -73.5t-68.5 -27.5t-70 27t-33 69v1q0 8 -2 29.5t-2 34.5z" />
<glyph unicode="L" horiz-adv-x="1316" d="M122 343q0 71 7 150.5t19 177t16 143.5q4 39 16.5 191.5t19.5 220t23.5 184t37.5 210.5q7 32 30 50t51 18q38 0 70 -25.5t32 -66.5q0 -3 -0.5 -6t-1.5 -6.5t-1 -6.5q-26 -113 -40.5 -241t-25.5 -284t-21 -245q-3 -25 -5.5 -142t-4.5 -261t-5 -203q135 72 302.5 111 t271 47t315.5 16q29 1 43 2h5q49 0 76.5 -32.5t27.5 -74.5q0 -44 -29 -79t-80 -35q-17 0 -25 2q-81 14 -157 14q-174 0 -344.5 -51.5t-389.5 -148.5q-27 -13 -60 -13q-44 0 -80.5 25.5t-51.5 69.5q-41 124 -41 289z" />
<glyph unicode="M" horiz-adv-x="1929" d="M-268 213q0 132 66 273q25 55 83 55q39 0 72 -29t33 -74v-45q0 -46 -32 -75q-13 -54 -13 -91v-8q69 -94 113 -94q26 0 55 48l2 2l2 2q110 122 150 185q108 182 171 401q41 137 103 417.5t104 419.5q9 33 36 53t60 20q44 0 78.5 -29t34.5 -77v-17v-3q-76 -411 -76 -656 q0 -325 108 -509q38 -63 73 -63t80.5 48t88.5 121.5t74 135t53 113.5q101 226 161 431.5t81 423.5q2 4 6.5 11t17.5 24t25.5 30t29 24t30.5 11q39 0 69.5 -27t30.5 -72v-14q0 -69 -23 -204.5t-50.5 -267.5t-50.5 -296t-23 -285q0 -366 209 -409q35 -8 56 -32t21 -56 q0 -42 -29 -77.5t-75 -35.5l-19 2h-3l-3 1q-356 74 -369 560q-180 -327 -380 -327q-82 0 -152 46q-167 103 -209 423q-107 -312 -291 -528q-40 -48 -69 -78.5t-71 -66.5t-85.5 -53.5t-88.5 -17.5q-97 0 -181 94q-84 91 -84 242z" />
<glyph unicode="N" horiz-adv-x="1615" d="M136 895q0 163 9 284q0 6 2 42.5t3.5 47.5t5 45t8 49t12 44t18 46t25 39t33.5 38.5t43 30.5q24 9 49 9q40 0 72 -20q67 -57 130 -153t101 -178t88 -197.5t76 -166.5q94 -180 239 -442q9 67 21 172t21 178.5t24.5 170.5t37.5 175t53.5 162t79 161.5t108.5 146.5 q29 25 74 25t79 -25.5t34 -59.5q0 -51 -30 -93q-76 -75 -128 -181.5t-76 -215.5t-41.5 -241.5t-25.5 -249t-27 -248.5t-47 -230q-9 -25 -41 -40t-69 -15q-66 0 -93 36q-104 188 -313.5 608.5t-332.5 634.5q-3 5 -8.5 14t-6.5 10q-1 -12 -1 -41v-68v-21v-28q0 -55 4.5 -156 t5.5 -141q4 -250 4 -376q0 -187 -6 -374q-2 -29 -31.5 -45.5t-65.5 -16.5q-37 0 -65 17t-28 45q-2 108 -13 377.5t-11 414.5z" />
<glyph unicode="O" horiz-adv-x="1683" d="M115 802q0 197 55.5 380t161.5 311q27 39 77 79q182 146 428 146q122 0 233 -34q313 -89 441 -377q60 -139 60 -308q0 -214 -87.5 -435.5t-222.5 -374.5q-99 -107 -236 -164.5t-280 -57.5q-153 0 -284 69t-211 204q-135 229 -135 562zM330 832q0 -172 72 -356 q46 -122 145 -192.5t218 -70.5q176 0 313 158q259 300 259 604q0 27 -4 79q-9 73 -26 130.5t-48 110t-82 89t-121 55.5q-156 38 -230 38q-80 0 -151.5 -26t-151.5 -85q-13 -9 -35 -34t-35 -48q-123 -223 -123 -452z" />
<glyph unicode="P" horiz-adv-x="1396" d="M-485 1352v29v1q5 66 37 125t76 100.5t106.5 80t113 61.5t110.5 45q360 133 703 133q290 0 530 -99q73 -29 126.5 -59.5t106.5 -85t76 -122.5q13 -39 13 -87q0 -87 -46 -172t-114 -151q-88 -83 -189 -159t-221 -147.5t-209.5 -121t-228.5 -122.5l-63 -33q2 -86 4 -125 q2 -18 2 -46q0 -69 -13 -191.5t-15 -149.5q-4 -50 -39 -77.5t-80 -27.5q-28 0 -61 7.5t-64 32t-31 61.5q0 32 25 64q28 41 28 138q0 34 3.5 82t3.5 67q0 3 -0.5 7.5t-0.5 8.5v3q-46 -12 -58 -19q-30 -19 -61 -19q-48 0 -77.5 35t-29.5 76q0 30 17 56.5t50 41.5q25 11 78 52 t81 57v109q0 25 -1 77t-1 78q0 136 44 309q0 1 5 23t10.5 44t15.5 56.5t21.5 65.5t26 65.5t32.5 62.5t38.5 51t45.5 36t52 13q46 0 88 -44q23 -26 23 -59q0 -31 -19.5 -55.5t-47.5 -36.5l-1 -5l-1 -4q-16 -34 -24 -64v-1l-1 -1q-24 -69 -35 -135q-21 -96 -29 -325 q-2 -62 -4 -204q242 139 536 344q7 5 41 29t46.5 33t44 32.5t46 36.5t40 35.5t38.5 39.5t28.5 38.5t23 42t10.5 40.5v17q0 111 -185 184q-232 88 -494 88q-202 0 -410 -56q-52 -14 -103 -30.5t-126.5 -46.5t-130 -61.5t-94.5 -75t-40 -86.5q0 -13 8 -31q13 -20 13 -41 q0 -41 -33 -70.5t-72 -29.5q-42 0 -68 35q-46 67 -46 127z" />
<glyph unicode="Q" horiz-adv-x="1673" d="M49 569q0 180 55.5 357.5t151.5 306.5q59 77 146.5 155t192.5 146.5t226.5 111t232.5 42.5t207.5 -49t162.5 -149q16 -20 16 -50q0 -31 -19.5 -56.5t-49.5 -34.5q140 -141 140 -411q0 -146 -40 -302q-51 -189 -203 -380l31 -36q165 -204 370 -204q131 0 274 78l2 1l1 1 q19 8 41 8q43 0 68.5 -31.5t25.5 -68.5q0 -49 -42 -74q-196 -129 -379 -129q-128 0 -264 56q-50 19 -105.5 65.5t-81.5 75.5t-87 100q-248 -229 -492 -229q-67 0 -138 20q-117 37 -205 107.5t-138.5 163t-75 194.5t-24.5 215zM248 608q0 -29 2 -44q9 -97 38.5 -189.5 t90.5 -172t141 -103.5h1l1 -1q38 -14 91 -14q170 0 358 169q-81 66 -156 66q-68 0 -144 -58q-24 -19 -58 -19q-41 0 -69.5 27.5t-28.5 66.5q0 32 24 59q101 109 253 109q111 0 272 -71q16 -7 45 -26q67 89 102 163q80 165 80 343q0 46 -6 91q-9 69 -43.5 140t-93.5 123 t-124 52q-34 0 -85 -20q-109 -50 -221 -126q-29 -18 -56 -18q-42 0 -70 28t-28 66q0 10 1 15q-93 -82 -139 -150q-178 -269 -178 -506z" />
<glyph unicode="R" horiz-adv-x="1353" d="M90 561q0 203 38 427.5t103 422.5q35 109 83 183t112 116.5t136.5 60t166.5 17.5q47 0 107 -29q180 -103 180 -393q0 -57 -19 -192q-49 -253 -311 -447q28 -21 37 -27q63 -49 141 -118t132 -119t126.5 -104.5t136.5 -89t149 -57t177 -22.5q57 0 115 9h2l2 1q2 0 6 0.5 t10 0.5q52 0 83.5 -35t31.5 -80q0 -42 -29 -74.5t-80 -36.5q-102 -8 -155 -8q-306 0 -492 129q-33 22 -97.5 82.5t-132 125t-140.5 127.5t-144 103.5t-123 40.5q-18 0 -30 -6q-7 -3 -37 -20.5t-49 -22.5v-282q0 -122 -2 -183q0 -46 -31.5 -73t-71.5 -27q-39 0 -70.5 25 t-35.5 69q-2 38 -7.5 121t-9 132.5t-6 121t-2.5 131.5zM299 715q58 14 63 16q55 33 92.5 57t85.5 58t80.5 66t63.5 70.5t50.5 82t27.5 90.5q20 79 20 174q0 28 -4 78q-6 41 -15 59t-18 22t-40 13q-6 6 -29 6h-51q-49 0 -79.5 -12t-53.5 -51q-57 -139 -121 -361t-72 -368z " />
<glyph unicode="S" horiz-adv-x="1185" d="M37 239q0 118 69 217t187 135q13 3 27 3q40 0 79.5 -28t39.5 -63q0 -44 -48 -63q-55 -20 -90.5 -72.5t-35.5 -106.5q0 -46 19 -66.5t79 -27.5q62 -8 118 -8q113 0 218 32q112 35 153 80t41 104q0 83 -76 174.5t-192 171.5q-55 38 -94.5 67.5t-97 81.5t-94 98t-63.5 106.5 t-27 118.5q0 18 1 28q33 371 369 453q56 13 136 13q58 0 115.5 -19t103.5 -61.5t55 -100.5q1 -5 1 -15q0 -39 -34.5 -66t-67.5 -27q-25 0 -45.5 16t-27.5 44q-2 8 -36.5 24.5t-57.5 16.5q-60 0 -125 -28.5t-115.5 -88.5t-50.5 -135q0 -66 46 -122q146 -179 279 -271 q85 -59 158 -139t113 -167q50 -106 50 -199q0 -130 -92 -220t-259 -130q-170 -41 -336 -41q-295 0 -365 158q-27 60 -27 123z" />
<glyph unicode="T" horiz-adv-x="950" d="M-154 1790v10q0 34 22 66t64 32h91q106 0 299.5 -6t298.5 -6q59 0 149 -1t127 -1q163 0 315 18q10 3 23 3q40 0 64 -29t24 -64q0 -31 -17 -63.5t-55 -39.5q-94 -17 -148 -22.5t-138.5 -10t-165.5 -11.5h-2h-26q-15 0 -43 1t-39 1q-2 -8 -3 -11q-4 -14 -10 -27 q-6 -20 -9 -29q-22 -73 -34 -149t-16 -129.5t-9 -157t-11 -176.5q-11 -155 -11 -393v-223q0 -194 -18 -356q-4 -47 -38 -75.5t-77 -28.5t-77.5 28t-38.5 76q-11 132 -11 255q0 120 10.5 344.5t11.5 326.5v61q0 110 11.5 258.5t14.5 300.5q0 5 2 69q0 6 0.5 16t0.5 14 q-228 12 -454 20h-1l-1 1q-41 5 -58 36.5t-17 71.5z" />
<glyph unicode="U" horiz-adv-x="1593" d="M-227 1113v15q0 81 21 157t66 144.5t110 119t160 80.5t208 30q5 0 24 -2t39.5 -5t22.5 -3q75 -3 119 -59t46 -158q0 -2 0.5 -6t0.5 -5q0 -57 -14 -136q-18 -98 -66 -233.5t-65 -210.5q-19 -79 -33 -202.5t-14 -208.5q0 -16 5 -73q11 -89 40.5 -121.5t73.5 -32.5 q67 0 157.5 60t134.5 111q78 88 128.5 186t100.5 233q5 15 18 51t21 56q5 254 69 456q49 154 134 269q34 46 90 46q25 0 49 -12q7 -4 13 -10q45 -28 45 -79q0 -16 -3 -25q-13 -84 -40 -217q-58 -280 -136 -484q10 -193 62.5 -385t132.5 -345q45 -84 86 -139l1 -1l1 -1 q14 -23 14 -47q0 -39 -30.5 -65.5t-67.5 -26.5q-35 0 -63 28q-115 113 -197.5 277t-114.5 364q-28 -56 -49 -83q-34 -45 -73 -89t-98.5 -100.5t-119 -98t-132.5 -70t-140 -28.5q-59 0 -112 23q-117 50 -179.5 153.5t-62.5 228.5q0 83 16 206.5t34 194.5q21 83 70 215.5 t67 221.5q6 29 6 61v48q0 74 -15 80v1h-1h-1q-6 1 -41 1q-69 0 -120 -20.5t-117 -79.5q-49 -43 -75.5 -113t-29.5 -144q-2 -37 -28.5 -58t-59.5 -21t-59.5 22t-28.5 59z" />
<glyph unicode="V" horiz-adv-x="1273" d="M119 1551v2q0 15 6 33l1 2l1 2q11 21 49.5 36.5t65.5 15.5q20 0 40 -10l13 -6q44 -23 44 -76q0 -11 -1 -17l-1 -4l-2 -3l-1 -4q23 -137 89.5 -389t88.5 -357q11 -49 35.5 -190t42.5 -215q34 177 35 180q11 41 31.5 122.5t34 132.5t34.5 121.5t43 128.5q37 98 61 156.5 t65 145t90.5 157.5t108.5 130q72 71 190.5 138.5t211.5 67.5q9 0 25 -2q55 -7 85.5 -50.5t30.5 -116.5q0 -32 -4 -60q-5 -41 -34 -65.5t-65 -24.5q-4 0 -22 3q-31 6 -53 32t-22 62q0 14 2 22q0 2 1.5 6.5t1.5 5.5q-43 -18 -139 -90v-1h-1q-114 -93 -197 -255 q-123 -230 -203 -514q-20 -72 -48.5 -237.5t-66.5 -298.5t-103 -233q-11 -16 -38 -32h-1q-24 -11 -47 -11q-69 0 -85 45q-125 356 -215 690q-135 507 -177 823z" />
<glyph unicode="W" horiz-adv-x="1640" d="M126 1303q0 113 1 167q0 24 28 37.5t62 13.5q35 0 64.5 -13.5t31.5 -39.5q23 -506 61 -1063q101 326 229 567q25 50 88 50q62 0 88 -50q45 -81 72.5 -164.5t55.5 -215.5t37 -168q16 -58 33 -81q14 17 31.5 64.5t29 87t28.5 105t20 75.5q102 361 233.5 643t340.5 525 q29 24 68 24q41 0 71 -24t30 -55q0 -47 -23 -84q-126 -151 -226 -337t-162.5 -355.5t-124.5 -390.5q-5 -16 -18 -89t-31 -144t-45 -149t-71 -131.5t-99 -64.5q-19 -3 -38 -3q-50 0 -91.5 22t-73 70.5t-53.5 91.5t-43 120t-30.5 117.5t-25.5 121.5q-4 20 -6 29 q-12 -43 -32 -125t-34.5 -134.5t-38.5 -119.5t-57.5 -122.5t-78.5 -102.5v1l-1 -1q-30 -18 -72 -18q-27 0 -47 8h-1h-1q-25 18 -46 42t-34.5 44.5t-25 54.5t-17.5 53t-11.5 60t-6.5 54t-4.5 57t-3.5 49q-30 404 -30 891z" />
<glyph unicode="X" horiz-adv-x="1718" d="M-149 -37q0 56 44 91t91.5 83.5t107 114t92.5 98.5q156 157 270 319q158 222 266 361q-28 54 -47 86q-58 98 -131.5 182.5t-147.5 126.5q-65 38 -116 38q-33 0 -62 -16q-32 -17 -64 -46t-33 -40q0 -1 0.5 -8.5t0.5 -13.5q0 -40 -22.5 -69.5t-56.5 -35.5q-4 -1 -13 -1 q-29 0 -52 20t-32 53q-8 28 -8 63q0 59 29.5 114t63.5 86.5t74 56.5q93 56 191 56q105 0 199 -65q207 -142 363 -427q82 103 116 143q20 24 73.5 92t93 116.5t103 114t118.5 107t123.5 71.5t132.5 30q104 0 192 -84q30 -29 30 -72q0 -20 -6 -37q-9 -28 -31 -50t-54 -22 q-24 0 -45 16q-34 26 -73 26q-113 0 -300 -200q-183 -195 -373 -433l1 -1q7 -15 62 -148t92 -214.5t100 -191t120 -167.5q73 -76 135 -76q75 0 155 118q11 16 21 25q24 21 54 21q48 0 81 -52q21 -34 21 -72q0 -59 -46 -96q-3 -2 -29.5 -23t-32.5 -25.5t-30.5 -23 t-35.5 -24.5t-34 -19.5t-38.5 -19t-37 -13t-41.5 -10t-41 -2.5q-90 0 -172 63q-56 43 -105 101.5t-90 132t-67.5 129t-62.5 139.5q-11 25 -117 292q-26 -38 -80.5 -116.5t-86 -124t-79.5 -109.5t-91 -116q-102 -122 -233 -255q-20 -20 -60 -59t-63 -62t-52 -57t-48 -65 q-7 -12 -22 -25q-24 -21 -52 -21q-49 0 -81 49q-21 34 -21 73z" />
<glyph unicode="Y" horiz-adv-x="1286" d="M86 1421q0 125 37 224q11 30 37 45.5t55 15.5q31 0 57.5 -20t26.5 -60v-14v-2q-4 -33 -6 -39q-6 -29 -6 -82q0 -122 37 -258t105 -234t143 -98q58 0 130 58q138 111 239.5 278.5t161.5 357.5q11 30 35 47t52 17q37 0 65.5 -25.5t28.5 -65.5q0 -4 -0.5 -7.5t-1.5 -5.5v-2 v-2v-2q-15 -79 -46.5 -170t-85.5 -195.5t-120 -192t-158 -155.5t-193 -90q9 -121 12 -347t9 -325v-1v-5q0 -40 -32 -63t-72 -23q-33 0 -63 17.5t-39 49.5q-48 141 -48 345q0 97 21 356q-96 29 -171.5 102.5t-120 169t-67 198.5t-22.5 203z" />
<glyph unicode="Z" horiz-adv-x="1372" d="M55 803q0 32 24.5 57.5t64.5 27.5q141 6 287 17q96 145 173 239q20 27 132.5 159.5t179.5 206.5q-96 8 -208 8q-141 0 -268 -18.5t-150 -42.5q-27 -27 -63 -27t-65 26t-29 64q0 20 15 44v1l1 1q48 66 234 102t397 36q407 0 407 -152q0 -16 -3 -26q-15 -59 -59.5 -121 t-91.5 -104.5t-106 -95.5t-86 -84q-68 -76 -147 -191l268 18h7q48 0 75 -31.5t27 -70.5t-27 -72t-77 -33h-6l-1 1q-11 1 -68 1q-88 0 -320 -18q-115 -194 -167 -272q-2 -3 -17 -27.5t-26.5 -44t-28.5 -50.5t-28.5 -55.5t-20 -50t-8.5 -42.5t2 -19t21 -2h3q137 6 269 32 q114 23 239.5 54t281.5 72.5t234 61.5q11 3 26 3q42 0 67 -29.5t25 -66.5q0 -29 -17 -54.5t-47 -36.5q-451 -160 -865 -226q-131 -21 -188 -21q-81 0 -133 28q-126 61 -126 185q0 61 27 128.5t73 145.5t56 100q34 71 88 171h-48q-42 0 -120 4h-1h-1q-40 4 -63.5 30t-23.5 60 z" />
<glyph unicode="[" horiz-adv-x="681" d="M104 594v14q0 232 19 662t39 664q12 128 112 128h21h3q102 -17 234 -17q29 0 87 1t88 1q100 0 169 -7q11 -1 20.5 -5t15.5 -11t11 -13.5t7.5 -16.5t4.5 -17t2.5 -17.5t0.5 -15.5v-13.5v-9.5v-10q0 -44 -20 -64q-21 -22 -70 -22h-25q-60 0 -116 4t-109 4h-70 q-101 0 -160 5q-13 -177 -23.5 -551.5t-10.5 -557.5q0 -28 1 -86.5t1 -88.5q0 -32 -2 -92v-47q0 -75 4 -203.5t4 -211.5q0 -9 4 -68t5 -86h141q168 0 284 -4q54 -4 81.5 -33t27.5 -79q0 -51 -31 -78t-83 -29q-36 -1 -104.5 -3.5t-125.5 -2.5q-45 0 -94 1t-109 2.5t-93 2.5 q-53 0 -86 37t-34 94q-4 20 -4 33v2v2v6q0 11 -2 45t-2 43v119q0 100 -6.5 292.5t-6.5 297.5z" />
<glyph unicode="\" horiz-adv-x="854" d="M-50 1334q0 33 23 57.5t55 24.5t54 -25q674 -738 796 -1323q2 -8 2 -24q0 -43 -30 -70t-69 -27q-30 0 -55.5 18t-37.5 51q-59 162 -155 338.5t-185 310t-202 313t-188 321.5q-8 16 -8 35z" />
<glyph unicode="]" horiz-adv-x="817" d="M2 -190q0 53 42.5 76.5t98.5 23.5q28 0 53 -11q105 -43 250 -43q27 0 87.5 2t93.5 2h31q3 121 3 235q0 117 -3.5 357.5t-3.5 361.5q0 537 63 889q-56 2 -131.5 9.5t-155.5 7.5h-1l-260 17h-1q-43 0 -68.5 30t-25.5 68q0 16 9 29t21.5 21t30.5 14t30.5 9t27 5.5t15.5 2.5 q105 26 173 26q20 0 76.5 -3.5t107.5 -3.5q68 0 134.5 2.5t111.5 2.5q7 0 26 -0.5t30 -0.5q52 0 85 -36t33 -84q0 -17 -3 -28q-55 -244 -74 -510.5t-19 -602.5q0 -86 1 -255t1 -251q0 -235 -8 -419q-2 -48 -35.5 -87t-83.5 -39h-11h-2q-70 5 -174 6t-169 2.5t-157 19.5 t-180 55q-69 33 -69 100z" />
<glyph unicode="^" horiz-adv-x="772" d="M-7 1383q0 27 18 50q35 44 103 117.5t90 99.5q37 44 75.5 68.5t90.5 24.5h13q92 -9 183 -120q15 -17 39.5 -52.5t45 -61.5t37.5 -37q44 -27 44 -74q0 -39 -29 -67.5t-67 -28.5q-48 0 -73 47q-25 44 -99.5 123t-105.5 79q-5 0 -7 -3q-47 -54 -76.5 -85.5t-77.5 -74.5 t-93 -71q-20 -11 -39 -11q-31 0 -51.5 23.5t-20.5 53.5z" />
<glyph unicode="_" horiz-adv-x="1955" d="M97 2q0 34 23 60.5t62 29.5q256 19 604 19q157 0 469 -5.5t467 -5.5q51 0 81 -35t30 -79q0 -45 -29.5 -80t-81.5 -35q-49 0 -249 1.5t-271.5 2.5t-242 3.5t-272 6.5t-242 11t-263.5 16q-39 3 -62 29.5t-23 60.5z" />
<glyph unicode="`" horiz-adv-x="651" d="M90 1677q0 90 73 163q46 46 109 46q60 0 106 -41.5t46 -101.5q0 -52 -35 -97l-2 -3l-3 -2q-36 -30 -36 -80t30 -110t63 -95q26 -49 26 -60q0 -37 -28 -59.5t-62 -22.5q-59 0 -91 58q-15 28 -53 84.5t-66.5 101t-52.5 105.5t-24 114z" />
<glyph unicode="a" horiz-adv-x="1220" d="M104 316q0 49 21 101v1l1 1q49 97 156 147t235 50q107 0 202 -43q-5 84 -29 148q-15 43 -70.5 69.5t-124.5 26.5q-66 0 -109 -28q-41 -33 -79 -33q-45 0 -78.5 32.5t-33.5 73.5q0 39 38 69q105 89 280 89q121 0 223 -48.5t154 -143.5l1 -1v-1q65 -136 65 -334 q0 -104 -14 -211q5 -10 30.5 -33t34.5 -34q66 -76 120 -101.5t157 -37.5q38 -6 57 -29t19 -54q0 -44 -32 -78.5t-81 -34.5h-12q-69 0 -147 22.5t-129 63.5q-36 28 -74 82.5t-65 73.5l-1 1l-19 15q-5 2 -13 2q-22 0 -82 -36t-82 -44q-128 -46 -239 -49h-7q-76 0 -140 47.5 t-98.5 117.5t-34.5 141zM319 281q0 -17 6 -29q26 -37 55 -51.5t68 -14.5q65 0 139 40.5t108 78.5l-1 1l-2 4q-32 61 -71.5 84.5t-98.5 23.5q-79 0 -141 -42t-62 -95z" />
<glyph unicode="b" horiz-adv-x="1292" d="M156 700q0 117 22.5 238.5t75.5 245t128.5 219.5t192 156.5t256.5 60.5q10 0 23.5 -1t17.5 -1h2q77 -7 131.5 -60t77.5 -122.5t23 -145.5q0 -49 -8 -88q-32 -151 -135 -293q69 -71 107 -198.5t38 -266.5q0 -262 -129 -364q-104 -80 -223 -80t-230 62.5t-187.5 157.5 t-125 204.5t-55.5 206.5q-2 23 -2 69zM373 696q8 11 16 17q386 261 485 461q25 51 25 112q0 54 -28 93.5t-64 39.5q-14 0 -53 -14.5t-70 -32.5q-141 -85 -223.5 -263t-87.5 -361v-35v-17zM395 575q34 -126 111 -215t196 -120q45 -9 58 -9q67 0 107 57t40 152q0 72 -24 192.5 t-49 164.5q-26 -13 -39 -15q-69 -60 -273 -198q-35 -25 -69 -25q-32 0 -58 16z" />
<glyph unicode="c" horiz-adv-x="1228" d="M125 431q0 80 24 192.5t56 183.5q24 53 48 95.5t58.5 90t79.5 84.5t98 60q42 19 98.5 34t98.5 15q59 0 121 -15.5t124 -53.5t98 -93q31 -50 31 -143q0 -71 -52 -132.5t-122.5 -93.5t-135.5 -32q-63 0 -111 39.5t-60 110.5v3v12q0 39 31 64.5t70 25.5q29 0 54.5 -17.5 t35.5 -45.5q18 3 39 24t21 42q0 22 -18 40q-24 23 -59.5 40t-66.5 17q-9 0 -27 -2q-54 -16 -97.5 -59.5t-89.5 -111.5q-110 -166 -110 -323q0 -40 8 -78q24 -110 95 -157t184 -47q194 0 358.5 52t267.5 136q31 28 66 28q38 0 62.5 -28.5t24.5 -64.5q0 -52 -50 -86 q-176 -115 -242 -150q-194 -104 -409 -111q-20 -1 -41 -1q-208 0 -328 58q-116 58 -174.5 164t-58.5 234z" />
<glyph unicode="d" horiz-adv-x="1378" d="M59 309q0 85 28 180t73 170q109 171 280 256q38 23 121 23h14q231 0 340 -92q41 150 72 284.5t50 228t75 380.5q2 9 6 16t7 9l3 3q21 33 82 33h11l7.5 1.5t3.5 0.5h1q33 0 58.5 -20.5t25.5 -57.5v-12q-5 -34 -32 -163.5t-52 -259.5t-46.5 -317t-21.5 -347q0 -56 9 -193 l2 -2q0 -163 49 -258q10 -20 10 -43q0 -37 -26.5 -63.5t-63.5 -26.5t-64 27q-120 101 -120 344v12q-102 -174 -249.5 -275t-365.5 -112q-49 -6 -53 -6q-92 0 -154 63t-76 152q-4 40 -4 65zM260 266q0 -53 15 -74t61 -36q98 15 176 53.5t138 101.5t105 137.5t87 176.5 q-2 3 -9 8.5t-14 13.5q-55 58 -111 77t-128 19q-12 0 -50.5 -8.5t-50.5 -15.5q-61 -27 -92.5 -60.5t-73.5 -103.5q-53 -98 -53 -289z" />
<glyph unicode="e" horiz-adv-x="1206" d="M98 455q0 165 91 313t252 214q113 44 226 44q131 0 218.5 -58.5t87.5 -170.5q0 -53 -22 -113q-49 -133 -185 -215t-299 -82q-84 0 -161 29q10 -99 97 -135q77 -33 180 -33q93 0 188.5 32t173.5 83q36 24 67 24q45 0 70.5 -34t25.5 -77q0 -73 -61 -113 q-101 -68 -232.5 -111.5t-261.5 -43.5q-296 0 -409 233q-46 101 -46 214zM341 612q4 -1 39 -8l2 -1h1q19 -5 73 -5q101 0 174 47.5t94 127.5v1l1 2v10q0 23 -18 44t-43 29l-20 -1q-63 -4 -129 -47.5t-114 -103.5q-32 -41 -60 -95z" />
<glyph unicode="f" horiz-adv-x="1058" d="M-86 515q0 32 22.5 58t62.5 28q88 4 310 16q30 209 89 350q39 99 101 184.5t146 143.5t167 58q76 0 138 -62.5t101 -184.5l1 -1v-1q3 -12 3 -30q0 -39 -28 -61.5t-63 -22.5q-28 0 -53.5 16t-37.5 47q-32 89 -65 89q-50 0 -128.5 -131t-89.5 -179l-31 -192q54 4 388 26 q21 0 34.5 -8t18.5 -24t6.5 -28.5t1.5 -32.5q0 -28 -17 -52t-51 -29q-177 -28 -407 -43q-16 -156 -32 -462q-5 -75 -5 -226v-348q0 -44 -38 -79t-84 -35q-40 0 -73.5 36.5t-39.5 72.5q-13 91 -13 191q0 29 1.5 90.5t1.5 95.5q0 83 10 249q18 311 26 395h-287h-1 q-39 2 -62 28t-23 58z" />
<glyph unicode="g" horiz-adv-x="1196" d="M-27 -887q0 65 18 142q16 70 53 135.5t91.5 122t113 105.5t134 97.5t137 85.5t139 82.5t124.5 76.5q7 72 23 210q-133 -74 -310 -74q-84 0 -151 28.5t-107 76t-61 105t-21 120.5q0 98 52 187t133.5 148.5t181.5 94.5t197 35q143 0 237 -91t94 -272q0 -11 1 -21t1 -19 q0 -79 -3 -167t-11.5 -243t-28.5 -298t-49.5 -309t-80 -301t-114.5 -248.5t-158 -177t-206 -63.5q-9 0 -22 1t-17 1h-2h-1q-188 19 -287.5 138.5t-99.5 291.5zM184 -891q0 -34 16 -76q70 -106 166 -106q58 0 110.5 35.5t79.5 89.5v1h1q118 212 186 626q-81 -52 -113.5 -74 t-91.5 -64.5t-103 -80.5q-50 -42 -85 -75t-78 -81.5t-65.5 -98t-22.5 -96.5zM372 376q4 -40 14.5 -67.5t26.5 -41.5t30 -20t33 -9h6q8 0 19.5 -1t14.5 -1q80 0 140.5 23.5t97 64.5t55 74.5t33.5 75.5q6 18 6 46q0 90 -37.5 128t-104.5 38q-71 0 -148.5 -41t-131.5 -109.5 t-54 -138.5v-21z" />
<glyph unicode="h" horiz-adv-x="1249" d="M103 66q0 2 0.5 5t0.5 5q6 101 58 253q8 58 19 172.5t18 167.5q53 367 76 898q3 44 34 68t70 24q41 0 73 -24.5t32 -66.5v-4q-23 -476 -68 -793q147 140 304 140q30 0 61 -6q112 -21 171 -97.5t72 -186.5q6 -64 6 -127q0 -55 -6 -159q-1 -19 -8 -62t-7 -58q22 9 39 9 q41 0 71.5 -31t30.5 -71q0 -42 -32 -68q-83 -70 -152 -70q-46 0 -80 24.5t-52 65.5t-26.5 85.5t-8.5 92.5q0 27 1 40q5 65 5 125q0 117 -22.5 201.5t-56.5 84.5q-45 0 -123 -82q-164 -171 -250 -359q-17 -130 -50 -220q-13 -33 -42.5 -50.5t-62.5 -17.5q-37 0 -66 24.5 t-29 67.5z" />
<glyph unicode="i" horiz-adv-x="727" d="M115 490q0 220 79 430q13 37 43.5 56t65.5 19q43 0 76 -28.5t33 -73.5q0 -11 -3 -30v-2l-1 -3q-30 -74 -54 -183t-24 -203q0 -232 159 -232q36 0 79 11q12 3 30 3q49 0 78 -35.5t29 -79.5q0 -35 -20 -63t-58 -40q-84 -22 -148 -22q-99 0 -172 40.5t-113.5 110.5 t-59.5 151t-19 174zM337 1283q0 7 1 14.5t2 12.5l1 5v18v1q0 4 1.5 9t2.5 9l1 3v5q0 50 45 91.5t92 41.5q8 0 15 -1.5t12.5 -3.5t6.5 -2l3 -1l2 -1q89 -40 94 -134v-15q0 -53 -19 -103.5t-56 -84.5l-1 -1l-1 -1q-41 -31 -78 -31q-40 0 -72.5 29t-32.5 74q0 1 -5 8.5 t-9.5 22.5t-4.5 35z" />
<glyph unicode="j" horiz-adv-x="772" d="M-252 -289q0 60 16 121.5t45 114.5t77 87t106 34q96 0 175 -68l5 -5q39 -31 39 -73q0 -44 -37 -78t-90 -34q-30 0 -62 16h-2l-1 1q-4 3 -10 6q-17 -21 -17 -73q0 -38 11.5 -68.5t24.5 -43.5t23 -13q13 0 41 15t63 51q115 115 196 317q110 287 110 595q0 93 -13 217l-4 20 q1 52 35.5 76t75.5 24q34 0 64.5 -21t35.5 -61q23 -133 23 -294q0 -380 -157 -745q-21 -52 -46 -100t-68 -107.5t-90.5 -103t-115.5 -75.5t-143 -37q-13 -2 -33 -2q-72 0 -127 27t-87 72t-47.5 98t-15.5 110zM379 1195v7q0 62 47 97t102 35q51 0 91.5 -38t40.5 -91v-8 q-5 -83 -38 -123.5t-84 -40.5q-50 0 -98 32l-2 2l-2 2q-28 24 -50 70l-3 6v43h-1v1z" />
<glyph unicode="k" horiz-adv-x="1570" d="M111 25q0 143 47 286q10 91 53.5 576.5t85.5 744.5q7 34 32.5 51t56.5 17q37 0 68 -21.5t31 -62.5v-8l-1 -2q-13 -91 -23.5 -181.5t-22 -208.5t-17 -173t-19 -209t-15.5 -182q125 128 220.5 197.5t248.5 138.5q57 28 154 28h37q126 0 206.5 -52.5t80.5 -154.5 q0 -104 -94 -235q-34 -46 -82 -46q-38 0 -68 27.5t-30 65.5q0 12 10 42l1 2l1 2q33 65 33 105q0 27 -17.5 39t-59.5 12q-37 0 -72.5 -10.5t-54.5 -21t-61 -37.5t-59 -37q-93 -57 -160 -112q177 -60 275 -162q39 -41 96 -109.5t96.5 -115.5t98.5 -97t119 -79q149 -71 319 -71 q132 0 304 50q24 6 31 6q42 0 67 -31t25 -70q0 -30 -17 -56t-50 -38q-201 -68 -388 -68q-333 0 -553 212q-56 54 -137.5 145.5t-154.5 163.5t-151 126q-60 40 -118 40q-2 0 -4 -1h-2l-4 -2l-8 -1q-29 -4 -47 -13.5t-29.5 -30t-16.5 -37.5t-14 -55t-16 -63q-11 -107 -37 -293 q0 -11 -3 -23q-6 -35 -29.5 -53t-53.5 -18q-39 0 -71.5 25.5t-34.5 68.5q-2 23 -2 70z" />
<glyph unicode="l" horiz-adv-x="954" d="M16 581q0 24 13 45q73 115 101 155q11 299 91 573t240 481q59 77 146.5 123t165.5 46q76 0 124.5 -52t48.5 -147q0 -38 -7 -80q-19 -102 -61 -205t-96 -194.5t-122 -185t-138 -178.5t-145 -173q-23 -26 -34 -39q-2 -50 -2 -74q0 -69 5.5 -134.5t20.5 -134t37.5 -119.5 t60.5 -83.5t86 -32.5q63 0 143 46l1 1h1q28 16 49 16q41 0 71.5 -33t30.5 -72q0 -38 -39 -69q-62 -49 -136 -76.5t-141 -27.5q-79 0 -143.5 32t-108 84t-75 123t-47.5 143.5t-23 151.5v1v1v2q-8 -2 -23 -2q-37 0 -66 25t-29 63zM402 1114q40 53 88 122q4 6 40 57t45 64 t38 56.5t40.5 65.5t31 58t31 66t19.5 61q9 32 9 72q0 47 -19 47q-16 0 -47.5 -26t-58.5 -77q-142 -270 -217 -566z" />
<glyph unicode="m" horiz-adv-x="1753" d="M55 74v278q0 390 52 627q6 31 28.5 48t50.5 17q36 0 64.5 -24.5t28.5 -63.5v-17l-1 -3q-32 -166 -37 -398q211 418 481 418q28 0 43 -2q117 -14 176 -86t71 -177q161 204 318 216q10 2 28 2q63 0 110 -25t73 -67t44.5 -96.5t26 -112.5t16 -117t16 -108t24.5 -86.5 t43 -52.5q44 -26 44 -76q0 -36 -25 -65t-63 -29l-22 2q-53 15 -92 48t-60 71.5t-35 91.5t-19 94.5t-10 93.5t-10 76q-22 108 -67 108q-50 0 -137 -97t-156.5 -209t-90.5 -174q-11 -33 -40.5 -50.5t-61.5 -17.5q-41 0 -71 25t-30 69v3q0 3 12 132t12 213q0 100 -17.5 157.5 t-41.5 57.5q-33 0 -104 -62q-69 -62 -127.5 -140t-105.5 -169t-80 -168t-71 -180q-11 -29 -36.5 -45t-55.5 -16q-36 0 -65.5 23t-29.5 63z" />
<glyph unicode="n" horiz-adv-x="1554" d="M104 465q0 83 1.5 127t8.5 111.5t25.5 123t48.5 109.5q13 25 41 46.5t54 21.5q34 0 71 -23.5t37 -65.5q0 -27 -8 -43q-74 -162 -74 -409v-10q55 90 106.5 160.5t118.5 139.5t136.5 114.5t156.5 74t181 29.5h2l22 -2q112 -7 179 -77t67 -169v-8q0 -8 -2 -35.5t-2 -30.5v-2 q-19 -228 -19 -323q0 -19 0.5 -34t1 -27t2.5 -20.5t2.5 -14.5t4.5 -10.5t4.5 -6.5t6 -3.5t6.5 -1.5t8 -0.5t9 -0.5q12 1 36 2t36 2q42 0 65 -32.5t23 -70.5q0 -33 -23.5 -65.5t-56.5 -42.5q-50 -18 -151 -18h-10q-39 0 -69.5 10t-50.5 25t-34.5 40t-22.5 48.5t-12 57.5 t-5 59.5t-1 62.5q0 61 8 162t8 130v9q0 168 -55 168q-77 0 -165.5 -52t-155.5 -125q-196 -214 -342 -503q-11 -23 -32 -37.5t-46 -14.5q-39 0 -79 23.5t-44 67.5q-17 244 -17 354z" />
<glyph unicode="o" horiz-adv-x="1236" d="M82 413q0 181 120 394l6 8l11 22l2 5l3 4q101 126 292 158q0 9 0.5 18t1 13t0.5 5v2v2q0 1 0.5 4t0.5 5q0 3 -0.5 10t-0.5 12q0 75 80 91h2h1h3q2 0 5.5 0.5t8 1t11 0.5h12.5q35 0 63 -8q38 -11 57.5 -44.5t19.5 -74.5q0 -14 -1 -21l-1 -1v-2q-4 -13 -6 -28 q129 -38 201 -135q127 -154 127 -331q0 -188 -149 -354q-79 -87 -192.5 -138t-237.5 -51q-185 0 -302 116q-138 135 -138 317zM307 435q0 -51 7.5 -83.5t32.5 -57.5q48 -41 102 -63.5t99 -22.5q136 0 237 119q97 115 97 230q0 61 -21 124.5t-65 99.5q-26 22 -67 37 q-4 -18 -10 -56.5t-11.5 -63.5t-13.5 -54.5t-19 -47t-26 -23.5h-1h-1q-19 -6 -39 -6q-43 0 -83.5 21.5t-40.5 68.5q0 2 0.5 5t0.5 4v2v1q6 32 18 172q-38 -10 -75 -50q-3 -7 -8 -14l-8 -12l-1 -1h-1l-4 -6l-5 -8q-38 -65 -66 -153t-28 -162z" />
<glyph unicode="p" horiz-adv-x="1198" d="M104 86q0 570 224 794q147 130 378 130q20 0 54 -3.5t37 -3.5q138 -13 216 -88q99 -96 99 -274q0 -106 -35.5 -215.5t-92.5 -188.5q-31 -45 -70 -84l-1 -1h-1q-146 -125 -373 -125q-105 0 -212 26q12 -380 66 -698t178 -610l1 -2v-1q6 -20 6 -36q0 -34 -24 -60l-2 -3 l-2 -1q-36 -28 -91 -28q-48 0 -80 23l-3 2l-2 2q-15 16 -24 40q-84 221 -165 629.5t-81 775.5zM329 268q92 -24 179 -24q158 0 254 78l2 1l9 6q53 46 83 100q35 120 35 192q0 94 -47 131l-9 8q-33 26 -87 26t-120.5 -26t-122.5 -70l-9 -8q-83 -66 -105 -138l-30 -86 q-24 -105 -32 -190z" />
<glyph unicode="q" horiz-adv-x="1116" d="M37 394q0 103 54.5 205.5t142.5 180.5t205.5 126.5t235.5 48.5q45 0 86 -7q36 -6 57 -29.5t21 -52.5q0 -38 -30 -68.5t-77 -30.5q-12 0 -18 1q-33 5 -57 5q-85 0 -160.5 -37t-126 -95t-79.5 -129t-29 -140v-12q2 -51 15.5 -66t37.5 -15q33 0 83.5 24.5t81.5 49.5 q96 74 154 155.5t81 182.5q8 34 36.5 52.5t63.5 18.5q45 0 82.5 -27.5t37.5 -70.5q0 -6 -2 -18q-99 -465 -99 -814q0 -214 32 -406q14 10 27.5 20.5t29 24t24.5 21.5t26.5 25.5l22.5 22.5t25 26t22 23q30 30 67 30q40 0 70 -30t30 -71q0 -38 -26 -65q-9 -10 -43.5 -48.5 t-47 -51t-43.5 -44t-51.5 -46t-52 -36t-63.5 -36.5t-69 -27q-14 -5 -34 -5q-39 0 -70 22.5t-39 56.5q-66 277 -66 587q0 184 26 394q-172 -156 -321 -156q-95 0 -167 76q-106 112 -106 255z" />
<glyph unicode="r" horiz-adv-x="1400" d="M147 16v8l1 1q26 354 30 901q0 42 30.5 66t67.5 24q23 0 45 -6t42 -26.5t20 -53.5v-17q0 -195 -1 -290q125 174 341 300q86 49 189 82t194 33q97 0 163 -59.5t80 -182.5l1 -2v-10q0 -43 -40.5 -78t-77.5 -35q-31 0 -56.5 19t-34.5 53q-10 42 -30 57.5t-53 15.5 q-83 0 -169 -38t-156 -101q-172 -153 -255.5 -298t-141.5 -351q-10 -40 -34.5 -68t-63.5 -28q-36 0 -63.5 22t-27.5 62z" />
<glyph unicode="s" horiz-adv-x="1003" d="M-6 219q0 88 88 152q24 16 53 16q40 0 67 -31t27 -71q0 -44 -24 -68q0 -1 -1 -3.5t-1 -4.5q0 -25 55 -39t115 -14q46 0 49 8h14q113 11 158 51q61 58 61 129q0 57 -45 94q-33 23 -97.5 48.5t-121 49t-112 56.5t-88.5 85.5t-33 121.5q0 81 76 147.5t181.5 99.5t207.5 33 q90 0 151.5 -44.5t61.5 -135.5q0 -14 -5 -49q-7 -33 -32.5 -51.5t-55.5 -18.5q-36 0 -66 23t-30 63v11q0 4 -12 4q-27 42 -78 42q-60 0 -127 -51q-37 -21 -37 -68q0 -11 2 -24t2 -14q0 -28 68 -61.5t149 -55.5q63 -24 118 -66t83 -96q45 -79 45 -174q0 -153 -117 -247 q-67 -53 -168.5 -85t-212.5 -32q-152 0 -245 69q-55 41 -89 93.5t-34 107.5z" />
<glyph unicode="t" horiz-adv-x="1042" d="M79 1015q0 27 16 50.5t40 33.5v11l32 -2q25 -1 68.5 -3t81 -4t72.5 -5q166 426 431 553q20 10 40 10q36 0 71.5 -28.5t35.5 -66.5q0 -44 -40 -69q-81 -50 -158.5 -162t-139.5 -258q159 -13 226 -20q39 -4 62.5 -32.5t23.5 -62.5t-24 -60t-65 -26q-190 0 -292 5 q-34 -105 -47 -210q-15 -135 -15 -151q0 -98 18.5 -173.5t63.5 -124.5t112 -49q83 0 186 70q22 14 45 14q38 0 65.5 -29.5t27.5 -66.5t-30 -62q-158 -127 -313 -127q-181 0 -290.5 101.5t-116.5 294.5q0 6 -0.5 19t-0.5 20q0 231 59 494q-81 10 -180 36q-30 8 -47.5 30.5 t-17.5 49.5z" />
<glyph unicode="u" horiz-adv-x="1599" d="M155 389q0 103 28.5 291t30.5 240q0 46 35 71.5t77 25.5q101 0 108 -80q1 -5 1 -11v-29q0 -59 -33.5 -224.5t-33.5 -241.5q0 -146 92 -181q28 -9 53 -9q39 0 82 23t80 58.5t78 90t72 104t67.5 115.5t58 109.5t50 101.5t37.5 76q15 35 53 50t81 15q45 0 82 -17.5t37 -57.5 q0 -69 -29.5 -210.5t-29.5 -204.5q0 -145 51 -224t173 -79q9 0 21.5 2t24.5 3q1 0 8 1t10 1h12q48 0 81 -38t33 -82q0 -29 -18 -51t-48 -29q-83 -20 -150 -20q-98 0 -175.5 32.5t-122 79.5t-75 111t-42 115.5t-16.5 104.5q-46 -89 -66 -134l-1 -2l-1 -1 q-41 -66 -94.5 -116.5t-103 -78t-104 -44t-92.5 -21.5t-74 -5q-11 0 -16 1h-5q-9 0 -21 4q-266 28 -266 365z" />
<glyph unicode="v" horiz-adv-x="1574" d="M182 909q0 44 42.5 72.5t78.5 28.5q28 0 51.5 -19t32.5 -49q33 -96 80.5 -279.5t58.5 -220.5q6 -20 22 -75.5t28.5 -92t27.5 -67.5q23 23 58 75t65 101.5t31 50.5q83 145 175 275t170.5 221t159 168.5t137.5 123t109 78.5q39 31 68 31q48 0 77 -38.5t29 -84.5 q0 -32 -6 -51.5t-28 -36.5q-171 -106 -365 -324.5t-330 -430.5q-8 -13 -32.5 -56.5t-44 -75.5t-51.5 -76t-62 -73t-70 -50.5t-80 -23.5h-10q-72 0 -133 55t-100 135t-72 186.5t-51 195.5t-35.5 178.5t-26.5 118.5q-4 20 -4 30z" />
<glyph unicode="w" horiz-adv-x="1837" d="M117 971q0 45 33 72.5t73 27.5q31 0 57.5 -18.5t36.5 -53.5q30 -104 55 -214.5t57 -267.5t44 -212q12 22 52.5 97.5t59.5 108.5t54 91.5t68 104.5t69 90q37 37 86 37h31h16q52 0 70 -27q43 -60 76 -131.5t46.5 -114t37.5 -133.5t32 -117q68 106 216 384.5t249 430.5 q6 10 11.5 16t9.5 7.5t7.5 2.5t4.5 1q18 10 45 10q34 0 71.5 -25.5t53.5 -54.5q10 -23 10 -45q0 -42 -34 -96q-141 -206 -267 -419t-193 -329.5t-106 -154.5q-21 -15 -52.5 -26t-57.5 -11q-32 0 -61 15t-42 44q-36 79 -86.5 259t-87.5 258q-43 -67 -148.5 -266.5 t-185.5 -301.5q-40 -49 -106 -49q-35 0 -65 19.5t-40 54.5q-39 147 -97.5 453t-100.5 460v4q0 1 -1 6.5t-1 12.5z" />
<glyph unicode="x" horiz-adv-x="1708" d="M-136 -411q0 62 53 104q88 67 195 164t161 167q98 127 224 302q31 44 165 240q-90 122 -187 219t-155 97q-38 0 -63 -55q-23 -50 -72 -50q-36 0 -60.5 29t-24.5 66q0 25 10 46q81 175 207 175q44 0 92.5 -22t90 -54t93 -87t89 -100.5t90.5 -113.5q35 50 76 105 q99 131 214 216.5t233 85.5q147 0 256 -163q18 -27 18 -58q0 -42 -27.5 -76t-67.5 -34t-64 37q-60 89 -129 89q-146 0 -381 -341q142 -172 245 -268t168 -96q39 0 70 43q29 40 69 40q44 0 71 -41t27 -87q0 -36 -21 -66t-61 -40q-18 -5 -53 -17t-64.5 -19t-61.5 -7 q-20 0 -48 5q-109 20 -208 110q-111 102 -246 296q-178 -275 -316 -463q-84 -115 -167 -208.5t-214 -218.5q-26 -26 -61.5 -48.5t-62.5 -22.5q-43 0 -72.5 37t-29.5 83z" />
<glyph unicode="y" horiz-adv-x="1337" d="M-75 -970q0 85 33 189l4 9v1.5t1 1.5q12 30 27 60q169 339 739 653h1l1 1q27 12 54 12q43 0 73.5 -31.5t30.5 -69.5q0 -47 -42 -75q-217 -126 -218 -127q-170 -108 -261 -196.5t-177 -217.5q-64 -94 -64 -179q0 -142 145 -211q135 -65 249 -65q150 0 213 112 q72 128 120 272t71.5 298.5t32.5 292.5t9 308q0 87 -4 241q-187 -293 -414 -294h-3l-3 1h-9t-20 1q-3 0 -13 1t-11 1h-2h-3q-58 10 -103.5 35.5t-75 62.5t-50 79.5t-31 94.5t-14.5 99t-4 101q0 58 5.5 152t6.5 112q0 42 32 67t74 25q41 0 73.5 -25t32.5 -69q0 -9 -6 -74 t-6 -115q0 -159 27 -269.5t82 -110.5q26 0 60 23q72 44 134 113.5t107 149.5t77 163t50 166q7 34 33 53.5t57 19.5h1q39 -2 69.5 -25.5t30.5 -64.5q1 -94 9.5 -333.5t8.5 -371.5v-40v-33q0 -382 -62 -689q-26 -134 -63.5 -245.5t-78.5 -187.5t-89.5 -134.5t-93.5 -92 t-94 -55t-87 -28.5t-76 -7q-35 0 -79 8h-1q-31 1 -69 7.5t-88.5 22t-99 37.5t-96.5 59t-83.5 82t-57.5 109.5t-22 139.5z" />
<glyph unicode="z" horiz-adv-x="1302" d="M135 152q0 44 23 73q34 46 70 88t83 88.5t81.5 79.5t99.5 88.5t100.5 85t122 100.5t127.5 105q-92 10 -146 10q-132 0 -222.5 -16t-203.5 -59v-2l-22 -7q-6 -3 -12.5 -3.5t-9.5 0.5l-3 1q-37 1 -58.5 34.5t-21.5 76.5q0 78 60 106q133 57 240 79t259 22q154 0 302 -37 q34 -10 66 -71t32 -103v-25l-4 -8q-36 -57 -118 -139t-162 -150.5t-195.5 -166t-176.5 -152.5v-2q22 2 181.5 13t183.5 11h39q26 0 67 1t58 1q13 0 33.5 1t29.5 1q46 0 64 -16t18 -51q0 -43 -4 -57q-5 -31 -29.5 -51.5t-64.5 -28.5t-71 -10.5t-75 -2.5h-22h-8 q-81 0 -241 -20.5t-240 -20.5q-86 0 -162 23q-35 11 -51.5 41.5t-16.5 69.5z" />
<glyph unicode="{" horiz-adv-x="729" d="M-118 830q0 36 21.5 67.5t59.5 43.5q89 29 150.5 86t98.5 136t61.5 157t57 180.5t68.5 174.5q28 57 75 104t111 81.5t112.5 55t117.5 44.5q17 5 28 5q40 0 65.5 -31t25.5 -68q0 -54 -48 -79q-86 -43 -148.5 -95.5t-98 -104t-66 -120t-48.5 -129t-48.5 -146.5t-64.5 -157 q-56 -114 -142 -188q87 -54 157 -155q57 -87 57 -268q0 -29 -1.5 -86t-1.5 -84q0 -60 4 -102t18 -86.5t39 -73.5t69 -50.5t106 -29.5q53 -6 83 -40t30 -78q0 -48 -33.5 -84t-89.5 -36q-15 0 -23 1q-134 19 -235 85t-146 189q-23 65 -35.5 142t-16 139t-9.5 127.5t-20 118 t-42.5 100t-83 84.5t-134.5 61q-39 14 -59.5 43.5t-20.5 65.5z" />
<glyph unicode="|" horiz-adv-x="491" d="M70 323q0 86 3 181t6.5 170.5t13 186t14.5 170t18 184.5t18 168.5t21 182.5t19 169q5 37 30.5 58.5t57.5 21.5q31 0 55.5 -22t28.5 -59q16 -182 16 -375q0 -239 -31.5 -706t-32.5 -693q0 -50 -32.5 -80t-75.5 -30t-77 28.5t-38 78.5q-14 168 -14 366z" />
<glyph unicode="}" horiz-adv-x="724" d="M-123 -228q0 39 23 71t66 38q92 13 151 42.5t86.5 73t40 94t17 112.5t10 121.5t27.5 128t62 124.5q72 101 193 182q-54 66 -92 155t-57.5 174.5t-35.5 175.5t-34 166.5t-45.5 139t-78 102t-123.5 47.5q-39 5 -63 34.5t-24 64.5q0 28 17.5 51.5t49.5 31.5q68 17 130 17 q81 0 142.5 -32t99.5 -87t65 -126.5t43.5 -153.5t30 -164.5t30 -162.5t39 -145.5t60.5 -114.5t90 -69q38 -15 61 -48.5t23 -71.5q0 -63 -58 -99q-86 -53 -133.5 -90t-87 -89t-56.5 -115.5t-23 -158.5q-10 -159 -55 -244q-76 -148 -189 -217t-283 -82h-7q-52 0 -82 38.5 t-30 85.5z" />
<glyph unicode="~" horiz-adv-x="1517" d="M65 489q0 27 17 50q9 12 45.5 61t58 76t63 71t76 68t81.5 43t93 19q14 0 21 -1q76 -7 138.5 -32.5t130.5 -73.5q17 -12 55.5 -43t66.5 -49t53 -22q35 -5 59 -5q77 0 144.5 33t147.5 98q30 24 62 24q37 0 63 -27t26 -63q0 -46 -41 -76q-72 -52 -123 -84.5t-131 -63 t-152 -30.5q-94 0 -179 51q-27 17 -102 72t-125 80.5t-96 25.5q-66 0 -123 -57q-25 -25 -92 -95.5t-107 -106.5q-25 -22 -54 -22q-32 0 -54 23.5t-22 55.5z" />
<glyph unicode="&#xa0;" />
<glyph unicode="&#xa7;" horiz-adv-x="1019" d="M80 540q0 100 55.5 188t151.5 154q-32 46 -54 103q-14 36 -14 75q0 70 45.5 127.5t113.5 91t138.5 51.5t128.5 18q18 0 26 -1q34 -3 55.5 -29.5t21.5 -57.5q0 -25 -17 -46.5t-46 -25.5q-12 -2 -40.5 -6.5t-44 -7.5t-38 -8t-40 -11.5t-32.5 -15.5q-74 -42 -74 -84 q0 -37 62.5 -83t133.5 -70q104 -36 171 -75.5t117 -113.5q44 -67 44 -135q0 -45 -19.5 -90t-47 -79t-71 -70.5t-77 -59.5t-79.5 -51q96 -74 96 -169q0 -2 -0.5 -4.5t-0.5 -5.5q-3 -62 -24.5 -108.5t-57.5 -74t-77 -45t-93 -25.5t-95.5 -11.5t-94 -7t-78.5 -8.5q-9 -2 -25 -2 q-47 0 -73 30.5t-26 69.5q0 40 25 73t69 33q20 0 34 -5q24 -8 57 -8q61 0 147 23q36 9 61 32.5t25 41.5q0 25 -43 46q-17 8 -74 33t-88.5 40.5t-74 47t-69.5 67.5q-90 124 -90 249zM249 547q0 -51 37 -100q54 -68 163 -114q55 8 120.5 56t108.5 103q37 48 37 84 q0 44 -56.5 79.5t-153.5 71.5q-51 21 -88 42q-168 -115 -168 -222z" />
<glyph unicode="&#xa9;" horiz-adv-x="1585" d="M104 642q0 150 63 275t181 204t270 91q205 82 374 82q262 0 389 -196q87 -132 87 -289q0 -121 -51.5 -242t-136.5 -216t-199 -162.5t-234 -87.5q-71 -12 -142 -12q-113 0 -214.5 30.5t-184.5 89.5t-136.5 156.5t-62.5 221.5q-3 54 -3 55zM265 665q0 -41 9 -85 q32 -154 142 -240t261 -86q68 0 127 15q140 35 252.5 115t166.5 198q58 123 58 240q0 140 -86 209q-96 77 -261 77q-117 0 -232.5 -40t-187.5 -104q-28 -24 -62 -24t-59 23q-128 -123 -128 -298zM456 632q0 61 28 122t72 107t103 75t118 29q96 0 165 -76q20 -21 20 -51 q0 -31 -20.5 -55.5t-53.5 -24.5q-22 0 -41 13q-29 19 -62 19q-61 0 -115.5 -51.5t-54.5 -100.5q0 -35 36 -54q53 -28 136 -28q113 0 183 47q22 16 47 16q38 0 62.5 -29.5t24.5 -65.5q0 -27 -16.5 -49t-46.5 -31q-176 -50 -295 -50q-229 0 -280 168q-10 33 -10 70z" />
<glyph unicode="&#xab;" horiz-adv-x="1144" d="M49 444q0 64 50 133q13 18 50 72.5t58 84t61 76.5t74 74.5t81.5 53.5t96.5 36q14 2 21 2q35 0 56 -23.5t21 -54.5q0 -29 -18 -53.5t-50 -33.5q-33 -10 -64 -30.5t-64 -59t-51 -61.5t-55 -77t-46 -67q-16 -23 -16 -39q0 -7 5 -13.5t18 -14.5t24.5 -14t36 -17.5t40.5 -19.5 q45 -23 107.5 -73.5t71.5 -57.5q44 -30 44 -76q0 -44 -35.5 -75t-78.5 -31q-30 0 -54 19.5t-34 54.5q-7 26 -46 51t-85.5 43.5t-102 49t-87.5 63.5q-29 31 -29 78zM529 501v7q0 82 74 174q130 154 200 254q26 38 70 38q32 0 57 -23t25 -57q0 -20 -12 -43 q-28 -46 -114.5 -155.5t-110.5 -169.5q1 -25 115 -89.5t158 -73.5q32 -5 50.5 -28t18.5 -52q0 -42 -29.5 -78.5t-74.5 -36.5q-29 0 -53 18q-21 15 -71.5 39t-97 48.5t-94 56.5t-78 76t-33.5 95z" />
<glyph unicode="&#xad;" horiz-adv-x="962" d="M102 414q0 25 13 42t31 26t51.5 13.5t58 5.5t67.5 1q67 0 168 -3h46q20 0 56.5 0.5t52.5 0.5h15h44t41.5 -1.5t41.5 -5t34 -9.5t29 -15t17.5 -23t7.5 -32q0 -36 -18.5 -57.5t-73.5 -31t-98 -12t-146 -4.5q-58 -1 -90 -2h-116q-127 0 -179.5 23t-52.5 84z" />
<glyph unicode="&#xae;" horiz-adv-x="1249" d="M79 577q0 86 38 168t104 147q8 27 34 45q267 183 488 183q127 0 226 -64q100 -64 149 -160.5t49 -206.5q0 -120 -53 -236.5t-145 -200.5q-149 -137 -358 -137q-128 0 -246 55t-197 157q-89 115 -89 250zM228 583q0 -131 113 -221q112 -92 260 -92q101 0 190 46t143 132 q65 105 65 233q0 118 -60 194t-180 79h-9q-111 0 -221 -36.5t-175 -105.5q-19 -19 -44 -24q-82 -93 -82 -205zM344 555q0 72 24 136.5t73 107.5q63 53 160 53q78 0 120 -45q38 -42 38 -100q0 -65 -45 -120v-1h-1q-20 -21 -40 -37q66 -62 89 -62h4q6 1 13 1q37 0 58.5 -24.5 t21.5 -54.5q0 -29 -19.5 -53t-53.5 -24q-14 0 -24 3q-87 20 -167 86q-56 48 -77 62q-16 10 -24 14v-35q0 -19 -10 -36q-19 -30 -57 -30q-22 0 -41 13t-26 37q-16 54 -16 109zM512 651q7 -1 14 -1q46 0 73 30q11 14 13 24q-8 2 -17 2q-26 0 -50.5 -17t-32.5 -38z" />
<glyph unicode="&#xbb;" horiz-adv-x="948" d="M92 195q0 33 21 59.5t59 32.5q72 13 141.5 80.5t69.5 134.5q0 24 -11 48q-17 35 -41 67t-59 63.5t-60.5 52t-71.5 55.5q-32 23 -32 60q0 33 24 59.5t59 26.5q23 0 41 -12q47 -28 84 -53.5t85.5 -67t81.5 -82t56 -94.5t23 -109q0 -10 -2 -30q-5 -50 -22.5 -93t-39 -72.5 t-56 -60t-62 -49.5t-68.5 -46.5t-64 -45.5q-33 -24 -65 -24q-41 0 -66 31.5t-25 68.5zM470 883q0 35 26.5 57.5t58.5 22.5q44 0 68 -39q5 -9 34 -28t66.5 -43t55.5 -38q34 -29 49.5 -42.5t40.5 -46.5t35 -66q14 -50 14 -110q0 -88 -32 -164q-21 -47 -46 -82.5t-72 -86 t-57 -62.5q-34 -42 -80 -42q-40 0 -67 30t-27 68q0 30 20 55t56 36q34 11 76 88.5t45 124.5v1v1q2 22 2 31q0 35 -12.5 59.5t-44.5 52.5q-15 14 -62 48t-83.5 68.5t-55.5 72.5q-8 18 -8 34z" />
<glyph unicode="&#x401;" horiz-adv-x="1171" d="M18 1393q0 47 45 75q302 187 717 187q38 0 111 -1t108 -1q122 0 195 12q10 2 27 2q53 0 84.5 -32t31.5 -74q0 -44 -30.5 -75.5t-83.5 -31.5q-19 0 -29 2q-137 21 -262 21q-290 0 -541 -72q-8 -169 -53 -481q83 10 192 10q107 0 267 -8q49 -3 78.5 -30.5t29.5 -64.5 t-29.5 -63.5t-76.5 -30.5q-16 0 -37 -1t-33 -1q-31 0 -95 1t-95 1q-150 0 -228 -16q-17 -115 -26 -240q-1 -11 -9 -81.5t-8 -114.5q0 -90 27 -138.5t94 -48.5q31 0 64 8q47 12 92 26t105 36t84.5 31t103.5 40t88 35q29 11 51 11q47 0 81 -29.5t34 -69.5q0 -51 -60 -80 q-2 -1 -75 -34t-108 -47.5t-115.5 -45t-135.5 -46t-126.5 -29t-129.5 -13.5q-103 0 -173 45t-91 144q-31 158 -31 307q0 138 20 294.5t53 346.5t46 291q-29 -16 -53 -16q-40 0 -67.5 27.5t-27.5 62.5zM262 1868v8q4 41 40 67.5t81 26.5q4 0 7.5 -0.5t5.5 -1t3 -0.5 q46 -5 78.5 -34.5t32.5 -71.5l-4 -17q-4 -38 -37 -63t-76 -25q-56 0 -93.5 32t-37.5 79zM846 1892v11q6 40 40 66t79 26h14q49 -4 81 -36.5t32 -74.5v-10q-4 -40 -37.5 -66t-77.5 -26l-16 2h-3q-47 5 -79.5 35.5t-32.5 72.5z" />
<glyph unicode="&#x404;" horiz-adv-x="1757" d="M92 693q0 91 19 192q30 154 91.5 293t154 261t224 217t290.5 149q173 62 310 62q143 0 244 -68q81 -55 138.5 -128t57.5 -151q0 -92 -94 -160q-32 -23 -68 -23q-41 0 -72 26.5t-31 66.5q0 27 20 57q-1 18 -61.5 63.5t-81.5 51.5q-45 11 -89 11q-59 0 -116 -16 q-213 -60 -385 -207q-94 -82 -163.5 -200t-103.5 -247q153 92 364 134t434 42q187 0 329 -25q43 -8 66 -37t23 -66q0 -53 -37 -98.5t-95 -45.5q-25 0 -46 10q-132 56 -319 56q-154 0 -300.5 -37.5t-265 -115t-167.5 -180.5q42 -202 188 -313t373 -111q30 0 45 1 q222 12 442.5 76t388.5 175q38 27 82 27q52 0 87.5 -37.5t35.5 -86.5q0 -73 -75 -111q-135 -66 -236 -109.5t-238 -93t-271.5 -75t-262.5 -25.5q-145 0 -271 34q-139 36 -247.5 112.5t-175.5 179.5t-101 222t-34 248z" />
<glyph unicode="&#x406;" horiz-adv-x="573" d="M94 427q0 53 3.5 110t10.5 132t9 100q20 218 20 602v197q0 51 38.5 77t86.5 26q50 0 91.5 -30t41.5 -83v-49q0 -4 -4 -24v-47q0 -325 -29 -639q-1 -12 -14.5 -151.5t-13.5 -212.5q0 -210 79 -334q17 -26 17 -51q0 -45 -39 -71t-86 -26q-67 0 -109 58v1h-1 q-101 157 -101 415z" />
<glyph unicode="&#x407;" horiz-adv-x="823" d="M-18 1927v4q1 69 32 121.5t88 112.5q30 30 78 30q66 0 109 -49q43 -56 43 -125q0 -8 -4 -22.5t-8 -25.5l-3 -11q-27 -65 -124 -125q-25 -18 -54 -18q-5 0 -10.5 1t-9 2t-4.5 1q-10 -2 -21 -2q-43 0 -77.5 30.5t-34.5 75.5zM186 356q0 43 2.5 94t5 86.5t7 93t6.5 81.5 q20 228 20 622v205q0 38 45.5 58t102.5 20q59 0 110.5 -22.5t51.5 -63.5v-53q0 -7 -7 -35v-37q0 -312 -38 -664q-1 -18 -15 -158t-14 -216q0 -216 92 -334q16 -27 16 -68q0 -32 -44.5 -49.5t-98.5 -17.5q-38 0 -73.5 11t-53.5 32q-115 154 -115 415zM524 2028q0 82 90 114 q35 15 80 15q100 0 174 -97q13 -15 13 -41q0 -79 -54 -123q-18 -18 -57 -18q-14 0 -18 2q-16 -16 -35 -27v-2q-40 -20 -58 -20q-33 0 -62 20t-46 58q-27 62 -27 119z" />
<glyph unicode="&#x40e;" horiz-adv-x="1349" d="M-123 1376q0 23 4 35l2 2q16 63 52.5 124.5t87.5 113t118.5 83t139.5 31.5q60 0 108 -18q56 -20 94 -63.5t55.5 -103t24 -108.5t8.5 -110q4 -106 4 -135v-33q0 -112 11 -172q13 -61 47 -61q14 0 35 9.5t39.5 21t46 33t42.5 33.5t41.5 35t30.5 27q30 28 91 83.5t92 82.5 l20 19q18 162 43 254q10 38 15.5 56t18 50t31 57t44.5 47q50 37 90 37q43 0 80 -25t61 -61q21 -29 21 -68v-12q0 -70 -56 -190q-45 -98 -137 -201q-1 -8 -5 -77.5t-5 -87t-6 -74t-9 -85.5t-11 -72.5t-15 -80.5q-49 -200 -150 -380.5t-254 -299.5q-97 -73 -225.5 -123.5 t-253.5 -50.5q-143 0 -242 78q-110 91 -110 207q0 79 50 151t136 129q48 25 74 25q47 0 79 -31.5t32 -70.5q0 -28 -18 -53t-50 -40q-76 -35 -76 -84q0 -32 38 -61.5t97 -30.5l7 2h10q213 12 358 154q145 144 218 327t98 414q-18 -12 -64.5 -52t-48.5 -44 q-209 -182 -348 -182q-94 0 -144 73q-27 36 -44 77.5t-23.5 91t-8 83t-1.5 90.5v64q0 65 -2 96q-1 8 -4.5 49.5t-6 60.5t-8.5 50.5t-16 51t-23 30.5q-13 16 -43 16q-55 0 -127 -84t-88 -143q-9 -30 -32 -47t-50 -17q-33 0 -61.5 19t-28.5 59zM518 2134q0 179 76 283 q31 43 86 43q37 0 69 -19t42 -53q3 -9 3 -21q0 -32 -22 -55q-39 -56 -39 -160q0 -75 26.5 -141.5t71.5 -66.5q23 0 40.5 10t43.5 35q52 48 96.5 106.5t104 151t82.5 125.5q28 47 82 47q40 0 75.5 -29t35.5 -68q0 -23 -17 -49q-22 -32 -64.5 -106t-78 -128.5t-85.5 -117.5 t-111 -107t-130 -63q-44 -12 -88 -12h-8q-74 0 -131 32t-91 88t-51.5 125.5t-17.5 149.5z" />
<glyph unicode="&#x410;" horiz-adv-x="1406" d="M-121 345q0 22 22 54q86 119 243 186q27 285 121 520q231 595 556 595h6q55 0 101 -17.5t77 -43t56 -66t40 -77t26 -86t16 -82.5t10 -77q13 -116 22 -340.5t10 -244.5q36 -32 36 -80q0 -42 -26 -71q21 -253 92 -453v-1v-1q3 -12 3 -31q0 -44 -32.5 -70.5t-73.5 -26.5 q-32 0 -59.5 18t-39.5 52q-78 203 -102 471q-28 0 -84 1t-87 1q-291 0 -448 -37v-32q0 -142 26 -265q33 -29 33 -69q0 -6 -0.5 -9t-0.5 -4l-1 -1v-15v-1q-3 -28 -29 -49t-55 -25q-4 -1 -9 -2t-7 -1h-3h-22q-37 0 -68.5 18.5t-40.5 56.5q-37 139 -47 279q-8 -34 -35 -57.5 t-68 -23.5h-49q-44 0 -76.5 33t-32.5 74zM384 648q201 38 516 38q52 0 75 -1q-2 33 -8.5 116.5t-7.5 132.5q-1 25 -2.5 104t-4.5 123t-11 108.5t-26.5 112.5t-46.5 84q-21 27 -45 27q-46 0 -114.5 -87t-128.5 -202t-103.5 -211.5t-54.5 -131.5q-14 -64 -38 -213z" />
<glyph unicode="&#x411;" horiz-adv-x="1345" d="M-247 1241q0 55 28 99t77 71t104 45.5t120.5 27t114 12t97.5 3.5h6q6 0 19 -0.5t18 -0.5q36 114 78 225q10 26 33.5 39.5t49.5 13.5q30 0 55.5 -18t25.5 -52q0 -9 -1 -13q-14 -76 -49 -198q222 -6 324 -6q238 0 431.5 28t354.5 103h1l1 1q28 12 49 12q42 0 70 -30.5 t28 -67.5q0 -28 -17 -51t-48 -35q-206 -77 -431 -107t-489 -30q-77 0 -235 4q-6 0 -40.5 1t-50.5 2q-43 -145 -62 -251q-12 -72 -17 -108q156 50 307 60q62 4 96 4q41 0 74 -4q12 -1 31.5 -6.5t42.5 -12.5t26 -8q18 2 23 2q55 0 78 -40q83 -37 121.5 -105.5t38.5 -152.5 q0 -83 -34 -160q-57 -126 -153.5 -240t-217.5 -195q-153 -102 -347 -102q-48 0 -96 9q-138 25 -208 116q-28 38 -38 80q-23 23 -23 53q0 20 6 33q1 2 3.5 8.5t3.5 8.5q-1 30 -9 60q-4 16 -4 23q0 43 41 68q4 51 8 147q-46 39 -46 92q0 62 68 134q20 160 45 284 q23 112 49 207h-17q-68 0 -121 -4q-107 -8 -157 -37t-72 -107q-7 -26 -28.5 -39.5t-46.5 -13.5q-26 0 -49 14.5t-31 41.5q-9 33 -9 63zM317 337q0 -26 3 -50v-10q0 -34 64 -61t111 -27q2 0 5.5 0.5t4.5 0.5q146 8 242 82q185 141 258 297q37 80 37 124q0 21 -6 39 q-11 33 -57 69q-30 0 -48 8l-2 1l-1 1q-5 3 -12 9l-7 5q-13 1 -31 4.5t-24 3.5q-9 0 -24.5 1t-28.5 1.5t-24 0.5q-23 0 -34 -1q-121 -5 -224 -29q-104 -25 -148 -48q-10 -87 -11 -98q0 -4 -2 -13t-2 -10q0 -3 -0.5 -5.5t-0.5 -4.5t-1 -3v-2q-4 -27 -15.5 -92.5t-15.5 -98.5 q6 -13 6 -29q0 -18 -9 -38l-3 -7v-20z" />
<glyph unicode="&#x412;" horiz-adv-x="1517" d="M-432 374q0 50 37 78.5t82 28.5q38 0 70 -22.5t32 -66.5l-1 -19q-3 -9 -3 -11q1 -34 92.5 -60.5t214.5 -37.5q0 26 -3 76t-3 64q0 32 2.5 120t2.5 117v32v37q0 22 -1 54t-1 50q0 11 2 61q9 309 50 462q-42 -30 -79 -50q-46 -16 -55 -16q-46 0 -73.5 44.5t-27.5 80.5 q0 38 39 65q145 106 231.5 149t260.5 94q106 33 216 33q78 0 146.5 -14.5t132 -54t93.5 -101.5q25 -53 25 -105q0 -160 -218 -336q153 -13 279.5 -70.5t203.5 -159.5q100 -131 100 -282q0 -135 -77 -251.5t-212 -180.5q-164 -76 -382 -113t-432 -37q-27 0 -82 -3.5t-84 -3.5 q-14 0 -44 2q-13 1 -58.5 5.5t-66 6.5t-65 8.5t-69 13t-63.5 18.5t-62 25.5t-52 34.5t-45.5 45t-30.5 56.5t-19 70.5q-3 17 -3 63zM330 855q0 -37 6 -116t6 -121v-31q0 -29 -4.5 -89.5t-4.5 -91.5q0 -82 19 -124q9 -22 9 -44q0 -3 -0.5 -8.5t-0.5 -6.5q348 2 587 94 q173 68 221 136q39 61 39 143q0 98 -54 165q-73 84 -189.5 129.5t-246.5 45.5q-149 0 -273 -58q-24 -12 -51 -12q-34 0 -62 23v-6q0 -4 -0.5 -13.5t-0.5 -14.5zM337 1015q7 6 16 11q191 111 311 209q182 156 182 215q0 11 -6 20v1l-1 1q-48 78 -178 78q-65 0 -139 -20 t-129 -48q26 -24 26 -55q0 -4 -2 -17t-3 -14q-40 -89 -55.5 -175t-21.5 -206z" />
<glyph unicode="&#x413;" horiz-adv-x="1183" d="M-523 1245q0 211 505 326q138 31 304 35q10 25 15 35q24 47 67.5 74.5t92.5 27.5q56 0 97.5 -37.5t50.5 -101.5v-24q249 -30 357 -30q216 0 334 79q34 23 69 23q46 0 75.5 -32.5t29.5 -73.5q0 -29 -17.5 -53.5t-50.5 -36.5q-249 -88 -473 -88q-23 0 -71 2 q-76 4 -215 18.5t-184 18.5q-2 -33 -2 -98q0 -63 3 -124q2 -37 2 -111q0 -191 -26 -387q-94 -715 -484 -768q-16 -2 -22 -2q-49 0 -77 31t-28 71q0 44 30 80.5t82 36.5q19 0 37 -5q21 4 70.5 73t74.5 116q62 119 91 298q38 236 38 505q0 66 -1 99q-3 138 -3 146q0 46 1 68 q-65 -3 -200.5 -32.5t-256.5 -75t-121 -81.5q0 -8 7 -17q15 -22 15 -51q0 -40 -28.5 -70t-67.5 -30t-65 32q-55 69 -55 134z" />
<glyph unicode="&#x414;" horiz-adv-x="2109" d="M-16 59q0 45 6 90v3l8 21v25h15q22 29 64 35l1 1h1q108 10 221 18q31 79 73 211.5t84 248.5t94 214q198 371 526 730q-4 13 -15.5 52.5t-17.5 59t-17.5 47.5t-23.5 47l-1 2l-1 2q-39 87 -144 90q-62 -6 -62 -42q0 -17 14.5 -37.5t42.5 -34.5l4 -3l3 -3q28 -27 28 -63 q0 -38 -27.5 -68.5t-67.5 -30.5q-29 0 -52 17q-151 101 -151 230q0 104 90.5 178t207.5 74q135 0 233 -105q58 -61 102.5 -138.5t74.5 -167.5t49 -164.5t42 -176.5t38 -156q23 -83 80.5 -271.5t83.5 -290.5q4 -16 19.5 -77t22 -84.5t23 -74t31.5 -79t38.5 -64t50.5 -62.5 l9 -10h74l216 2q47 0 82 -34t35 -79q0 -15 -6 -32q-21 -59 -70.5 -157t-78.5 -176.5t-29 -151.5q0 -43 10 -84q3 -17 3 -30q0 -53 -36.5 -84t-84.5 -31q-46 0 -82 30t-41 83q-4 50 -4 71q0 29 2 56.5t7.5 57t9.5 50.5t15 53t15.5 47t19.5 51t19 45.5t21.5 49.5t20.5 47 q-232 -3 -463 -3q-652 0 -1265 25q6 -64 44 -236q10 -41 22 -136t26 -138q7 -20 7 -40q0 -48 -35.5 -73.5t-78.5 -25.5q-45 0 -81.5 25.5t-36.5 73.5q0 20 8 42q10 26 10 62q0 49 -27.5 150.5t-31.5 127.5q-16 90 -16 169zM535 245q149 4 327 4q220 0 644 -8 q-48 87 -89.5 200t-62.5 189.5t-55 216t-47 190.5q-22 81 -60 230t-47 185q-90 -117 -163.5 -222t-151.5 -233.5t-135 -246.5t-100 -250t-60 -255z" />
<glyph unicode="&#x415;" horiz-adv-x="1253" d="M67 473q0 60 16 127q51 209 265 365q-32 45 -46 91q-14 53 -14 114q0 111 48.5 218t141 188t209.5 109q41 10 90 10q88 0 172.5 -31.5t143.5 -96.5t59 -149q0 -57 -29 -115q-27 -50 -87 -50q-31 0 -56.5 18.5t-25.5 51.5q0 19 8 35q7 15 7 31q0 45 -61 82.5t-126 37.5 q-21 0 -29 -2q-125 -28 -197 -130q-71 -98 -71 -190q0 -69 41 -113q138 67 225 67q45 0 79 -15q54 -23 86 -62t32 -90q0 -32 -15 -70q-27 -59 -93 -84.5t-143 -25.5q-66 0 -115 17q-39 12 -76 31q-29 -20 -60 -43q-85 -63 -132 -144t-47 -170q0 -38 9 -77q66 -277 445 -277 q200 0 429 77t364 173q32 23 66 23q41 0 68 -29t27 -68q0 -58 -55 -90q-30 -19 -106 -56q-102 -46 -185.5 -80t-196.5 -72t-226 -58.5t-217 -20.5q-225 0 -385 98q-113 73 -175 192.5t-62 252.5z" />
<glyph unicode="&#x416;" horiz-adv-x="2527" d="M-369 -415q0 32 18 60t53 42q65 26 144 72t122.5 75t146 101.5t123.5 87.5q293 198 489 362q164 137 352 327q-244 228 -414 367q-110 90 -199.5 154t-203 130t-231.5 104t-237 46q-38 3 -59 27t-21 55q0 35 25 63.5t67 28.5h4q108 -6 218.5 -34.5t207.5 -69.5 t200.5 -102.5t187.5 -122t180 -141.5t167.5 -146.5t158.5 -150.5q5 165 24 308q25 177 47 265q87 342 245 345q35 0 71 -18q43 -22 43 -64q0 -13 -4 -26.5t-10.5 -24.5t-14 -22t-13.5 -18t-12 -13l-5 -5v-1h-1q-63 -98 -69 -114q-28 -80 -38 -144q-36 -229 -44 -425 q117 124 238 244q214 211 438.5 337.5t492.5 156.5q180 20 247 20q285 0 322 -186q1 -6 1 -18q0 -43 -32.5 -70.5t-72.5 -27.5q-25 0 -47 14t-32 40q-2 6 -14 11.5t-38 10t-60 4.5q-36 0 -80 -3.5t-85 -8.5t-52 -6q-252 -21 -445 -124q-69 -37 -140.5 -87.5t-124 -93.5 t-125.5 -113.5t-111.5 -109.5t-117.5 -123t-110 -116l-15 -15q67 -66 114.5 -112t123 -113t135 -113.5t136.5 -98.5t143.5 -83t140.5 -52t141 -21q158 0 286 113q35 31 77 31q46 0 77.5 -34t31.5 -78q0 -64 -63 -100q-198 -115 -406 -115q-107 0 -217.5 31.5t-204 80 t-194.5 122.5t-178.5 142.5t-166.5 156.5q24 -312 89 -581q3 -12 3 -26q0 -52 -41.5 -82.5t-89.5 -30.5q-39 0 -69.5 23.5t-34.5 67.5q-8 82 -33.5 307t-36.5 346q-253 -248 -491 -430q-215 -164 -388 -277q-47 -31 -209.5 -125t-237.5 -154q-38 -30 -78 -30q-49 0 -81.5 37 t-32.5 84z" />
<glyph unicode="&#x417;" horiz-adv-x="1456" d="M70 360q0 78 23.5 151t78.5 127t131 54q62 0 133 -34q30 -13 46 -37t16 -49q0 -43 -36.5 -77.5t-86.5 -34.5q-25 0 -51 12q-15 -24 -15 -80q0 -59 22.5 -114.5t55.5 -70.5q102 -45 218 -45q106 0 191 33q149 56 240 170.5t92 256.5v12q0 83 -23.5 163.5t-71 137 t-106.5 56.5q-46 0 -104 -35q-18 -27 -46.5 -42t-58.5 -15h-15q-50 0 -86.5 35.5t-36.5 77.5q0 41 42 70h1l1 1q6 4 10 8v7q0 20 13 43t33.5 48.5t27.5 37.5q7 15 24.5 49t26.5 53t19.5 46t15.5 49q2 13 2 30q0 24 -10.5 32.5t-36.5 8.5q-55 0 -133 -39.5t-135 -94 t-57 -93.5q0 -7 9 -22q16 -28 16 -56q0 -46 -39 -78.5t-86 -32.5q-27 0 -53 14t-40 41q-38 66 -38 134q0 90 61.5 177.5t153.5 149.5t199 100t198 38q11 0 21.5 -1t21.5 -3t16 -3h2h1q93 -16 138 -71.5t45 -135.5q0 -121 -92 -311q90 -5 162.5 -53.5t117.5 -126.5t69 -173.5 t24 -198.5q0 -106 -26.5 -207.5t-80.5 -194t-145.5 -164.5t-210.5 -107q-142 -38 -274 -38q-90 0 -171.5 18.5t-152.5 56t-121 103t-68 152.5q-11 48 -11 85z" />
<glyph unicode="&#x418;" horiz-adv-x="1566" d="M80 412v32v1q9 144 54.5 514t47.5 576q-6 24 -6 33q0 47 32.5 73t74.5 26q43 0 78 -26.5t35 -75.5q0 -84 -4 -173.5t-9 -154.5t-16 -165t-17 -146.5t-21 -161.5t-20 -152q-20 -148 -20 -274v-2q0 -11 7.5 -84t9.5 -107q22 23 42.5 49.5t48.5 65t38 52.5q211 296 404 624 t408 735q27 51 86 51q42 0 76.5 -27t36.5 -70q1 -13 1 -38q0 -13 -0.5 -36.5t-0.5 -35.5q0 -138 -19.5 -394.5t-21.5 -300.5q-1 -30 -5.5 -104.5t-4.5 -113.5q0 -273 51 -658v-1v-13q0 -43 -30 -67.5t-68 -24.5q-41 0 -74 26.5t-39 72.5q-46 344 -46 737q0 31 2 90t2 88 q2 127 24 369l-241 -415q-30 -49 -92 -158t-105.5 -179.5t-105.5 -162.5t-130 -166.5t-141 -132.5q-68 -54 -128 -54q-51 0 -89 38t-57 90t-31 122.5t-14.5 117t-2.5 91.5z" />
<glyph unicode="&#x419;" horiz-adv-x="1603" d="M-102 1124v6v3q7 78 46.5 158.5t99.5 147.5t127.5 122.5t137.5 95.5q25 14 58 14q38 0 71.5 -22t42.5 -60q21 -89 21 -200q0 -104 -19 -234t-42.5 -233.5t-42.5 -231t-19 -227.5q0 -88 6 -127q6 -55 20 -87.5t25 -41t23 -8.5q44 0 125.5 88t145.5 180.5t103 161.5 q245 443 326 821q7 38 19.5 111.5t19.5 111.5q8 41 42 63.5t73 22.5q44 0 80 -25.5t36 -72.5q0 -6 -1 -10t-2 -5l-1 -1v-9q0 -9 -4 -30q-15 -114 -29 -187q-36 -247 -36 -461q0 -428 137 -864q6 -18 6 -35q0 -47 -38 -74.5t-83 -27.5q-36 0 -66.5 20.5t-41.5 59.5 q-106 334 -134 684q-88 -186 -198 -359q-28 -45 -44.5 -71.5t-50.5 -75t-60.5 -78.5t-66 -68t-76 -59.5t-82.5 -37t-93 -15.5q-73 0 -142 35q-174 85 -174 418q0 64 19 264q9 94 56 332.5t52 359.5q-63 -57 -103 -118.5t-44 -114.5q-1 -51 -38 -79t-81 -28q-42 0 -74 26 t-32 72zM516 2154q0 143 61 287.5t152 214.5q39 27 74 27q50 0 87.5 -34.5t37.5 -80.5q0 -49 -43 -80q-48 -36 -86.5 -131.5t-38.5 -181.5q0 -66 22.5 -100.5t63.5 -34.5t92 26q75 40 145.5 93t170 140.5t135.5 117.5q46 26 73 26q51 0 88 -35t37 -81q0 -34 -22 -60 q-11 -12 -13 -14l-6 -6q-40 -32 -113 -99.5t-132.5 -118.5t-135.5 -105t-158.5 -84t-164.5 -30q-54 0 -103 15q-79 21 -130.5 72.5t-72 115t-20.5 141.5z" />
<glyph unicode="&#x41a;" horiz-adv-x="1757" d="M90 134q0 40 4 92q1 210 9 670.5t8 702.5q0 46 32.5 70.5t71.5 24.5t71.5 -27t32.5 -74q0 -10 -12 -695q22 21 58 48q222 354 589 676q43 38 63 55t76.5 60t97.5 65t98 42t106 20q70 0 121 -39q100 -74 100 -199q0 -90 -49 -206q-12 -32 -41 -49t-60 -17 q-39 0 -71.5 23.5t-32.5 66.5q0 8 1.5 15t4 12.5t2.5 6.5v1l1 2q39 100 39 145q0 21 -3.5 26t-13.5 5q-25 0 -92 -34q-121 -67 -195 -135q-55 -51 -121.5 -120.5t-97.5 -104t-113 -127.5l-82 -99q114 -32 204 -125t143 -225q13 -33 33 -93.5t38 -114t42 -117.5t51 -115 t58 -94.5t69 -67.5t80 -24q48 0 112 39q26 17 51 17q43 0 70.5 -33t27.5 -74q0 -56 -46 -85q-104 -70 -221 -70q-108 0 -200.5 63t-154.5 175q-25 48 -65.5 155.5t-79.5 208t-87 200.5t-106 161t-119 61q-24 0 -49 -10q-224 -336 -248 -637v-158q0 -46 -29.5 -73.5 t-68.5 -27.5t-70 27t-33 69v1q0 8 -2 29.5t-2 34.5z" />
<glyph unicode="&#x41b;" horiz-adv-x="1374" d="M-287 385q0 85 41.5 152t125.5 94l1 1h1q23 5 34 5q42 0 69.5 -27.5t27.5 -64.5q0 -30 -20 -54.5t-55 -36.5q-26 -8 -26 -51q0 -54 37 -110.5t90 -70.5q16 -5 33 -5q155 0 333 389q4 7 5 10q53 113 100 260.5t77.5 268t79.5 269.5t107 268q28 57 125 57q35 0 68 -7.5 t62.5 -28t34.5 -52.5q48 -315 52 -897q0 -13 1 -41q3 -201 24 -297q38 -172 157 -268q27 -23 27 -54q0 -49 -50 -85t-104 -36q-38 0 -64 22q-79 64 -133.5 155t-80.5 196.5t-36.5 190.5t-13.5 187q-1 43 -4 407q-26 -112 -41 -171.5t-42.5 -150.5t-55.5 -161 q-25 -63 -49.5 -114.5t-60.5 -117.5t-78.5 -120t-95 -106.5t-119.5 -93t-142 -64.5q-61 -18 -109 -18q-74 0 -138.5 34t-106 88t-65 119.5t-23.5 129.5z" />
<glyph unicode="&#x41c;" horiz-adv-x="1929" d="M-268 213q0 132 66 273q25 55 83 55q39 0 72 -29t33 -74v-45q0 -46 -32 -75q-13 -54 -13 -91v-8q69 -94 113 -94q26 0 55 48l2 2l2 2q110 122 150 185q108 182 171 401q41 137 103 417.5t104 419.5q9 33 36 53t60 20q44 0 78.5 -29t34.5 -77v-17v-3q-76 -411 -76 -656 q0 -325 108 -509q38 -63 73 -63t80.5 48t88.5 121.5t74 135t53 113.5q101 226 161 431.5t81 423.5q2 4 6.5 11t17.5 24t25.5 30t29 24t30.5 11q39 0 69.5 -27t30.5 -72v-14q0 -69 -23 -204.5t-50.5 -267.5t-50.5 -296t-23 -285q0 -366 209 -409q35 -8 56 -32t21 -56 q0 -42 -29 -77.5t-75 -35.5l-19 2h-3l-3 1q-356 74 -369 560q-180 -327 -380 -327q-82 0 -152 46q-167 103 -209 423q-107 -312 -291 -528q-40 -48 -69 -78.5t-71 -66.5t-85.5 -53.5t-88.5 -17.5q-97 0 -181 94q-84 91 -84 242z" />
<glyph unicode="&#x41d;" horiz-adv-x="1228" d="M-375 667q0 49 42 78q172 121 244 161q114 64 230 95v57q0 269 31 498t112 445l1 1v1q27 59 98 59q50 0 92.5 -30.5t42.5 -77.5q0 -20 -4 -31q-65 -167 -88.5 -335.5t-23.5 -375.5v-154q139 19 329 19q59 0 82 -1q10 175 64 528q7 42 41 69t77 27t76 -29.5t33 -81.5v-21 v-2q-6 -47 -17 -136.5t-17.5 -144t-13.5 -129t-10 -135.5q58 -28 58 -90q0 -28 -17 -53t-45 -35q0 -374 106 -734q5 -15 5 -26q0 -47 -41.5 -72t-85.5 -25q-35 0 -63.5 16.5t-38.5 52.5q-117 361 -117 790q-5 0 -29.5 1.5t-37.5 1.5q-152 0 -333 -27q1 -5 1 -9l1 -2v-2 q0 -13 0.5 -126.5t1 -139.5t3 -127t6.5 -141.5t12 -126.5t19 -138.5t27.5 -120.5t37.5 -126q6 -18 6 -26q0 -43 -37 -64.5t-83 -21.5q-45 0 -84.5 18t-53.5 58q-66 180 -88 391t-22 476v186q-50 -12 -89 -25.5t-78 -36t-61 -36.5t-71.5 -50t-74.5 -53q-28 -19 -56 -19 q-44 0 -71.5 34t-27.5 74z" />
<glyph unicode="&#x41e;" horiz-adv-x="1683" d="M115 802q0 197 55.5 380t161.5 311q27 39 77 79q182 146 428 146q122 0 233 -34q313 -89 441 -377q60 -139 60 -308q0 -214 -87.5 -435.5t-222.5 -374.5q-99 -107 -236 -164.5t-280 -57.5q-153 0 -284 69t-211 204q-135 229 -135 562zM330 832q0 -172 72 -356 q46 -122 145 -192.5t218 -70.5q176 0 313 158q259 300 259 604q0 27 -4 79q-9 73 -26 130.5t-48 110t-82 89t-121 55.5q-156 38 -230 38q-80 0 -151.5 -26t-151.5 -85q-13 -9 -35 -34t-35 -48q-123 -223 -123 -452z" />
<glyph unicode="&#x41f;" horiz-adv-x="1409" d="M-498 1323v15v2q21 107 78.5 193t131.5 140t171.5 93t187.5 58t191 29q63 5 96 5q27 0 72.5 -1.5t58.5 -1.5q101 0 228 -13.5t190 -23.5t226 -37q153 -26 299 -26q274 0 526 90q20 8 37 8q35 0 59.5 -23t30.5 -54q6 -15 6 -36q0 -40 -23.5 -75.5t-66.5 -46.5 q-317 -94 -574 -94q-83 0 -151 8q-18 1 -49 9q-11 -29 -21 -74.5t-17.5 -86.5t-8.5 -47q-4 -30 -17 -106t-20.5 -132.5t-9.5 -105.5q-5 -140 -5 -169q2 -170 14.5 -301.5t30.5 -203t35 -116.5t30.5 -68.5t14.5 -32.5q4 -22 4 -30q0 -47 -32 -68q-52 -32 -133 -32 q-23 0 -47.5 17t-28.5 28q-135 242 -135 678q0 196 28 415q41 333 101 473q-308 64 -437 73h-90q-6 0 -12 1t-9.5 2t-4.5 1q-18 -28 -40 -77t-51 -134t-49 -211t-22 -265v-51q0 -453 113 -779q4 -18 4 -26q0 -39 -34 -62t-79 -28q-5 0 -14 -1t-13 -1q-34 0 -60.5 11 t-41.5 28.5t-22 31.5t-11 28q-26 83 -57 355q-23 162 -23 366v88q9 440 142 706q-80 -11 -138 -23.5t-119 -37t-104 -59t-80.5 -88.5t-62.5 -126q-10 -29 -47.5 -42t-63.5 -13h-12h-4q-27 5 -46.5 25.5t-19.5 51.5z" />
<glyph unicode="&#x420;" horiz-adv-x="1396" d="M-485 1352v29v1q5 66 37 125t76 100.5t106.5 80t113 61.5t110.5 45q360 133 703 133q290 0 530 -99q73 -29 126.5 -59.5t106.5 -85t76 -122.5q13 -39 13 -87q0 -87 -46 -172t-114 -151q-88 -83 -189 -159t-221 -147.5t-209.5 -121t-228.5 -122.5l-63 -33q2 -86 4 -125 q2 -18 2 -46q0 -69 -13 -191.5t-15 -149.5q-4 -50 -39 -77.5t-80 -27.5q-28 0 -61 7.5t-64 32t-31 61.5q0 32 25 64q28 41 28 138q0 34 3.5 82t3.5 67q0 3 -0.5 7.5t-0.5 8.5v3q-46 -12 -58 -19q-30 -19 -61 -19q-48 0 -77.5 35t-29.5 76q0 30 17 56.5t50 41.5q25 11 78 52 t81 57v109q0 25 -1 77t-1 78q0 136 44 309q0 1 5 23t10.5 44t15.5 56.5t21.5 65.5t26 65.5t32.5 62.5t38.5 51t45.5 36t52 13q46 0 88 -44q23 -26 23 -59q0 -31 -19.5 -55.5t-47.5 -36.5l-1 -5l-1 -4q-16 -34 -24 -64v-1l-1 -1q-24 -69 -35 -135q-21 -96 -29 -325 q-2 -62 -4 -204q242 139 536 344q7 5 41 29t46.5 33t44 32.5t46 36.5t40 35.5t38.5 39.5t28.5 38.5t23 42t10.5 40.5v17q0 111 -185 184q-232 88 -494 88q-202 0 -410 -56q-52 -14 -103 -30.5t-126.5 -46.5t-130 -61.5t-94.5 -75t-40 -86.5q0 -13 8 -31q13 -20 13 -41 q0 -41 -33 -70.5t-72 -29.5q-42 0 -68 35q-46 67 -46 127z" />
<glyph unicode="&#x421;" horiz-adv-x="1599" d="M105 622q0 151 37 310q42 178 144.5 337.5t246.5 288.5q115 102 318.5 190t378.5 88q60 0 112 -13q158 -40 237.5 -129.5t79.5 -205.5q0 -108 -61.5 -213t-175.5 -183t-255 -103q-9 -2 -26 -2q-44 0 -71.5 25.5t-27.5 60.5q0 32 23.5 58.5t64.5 34.5q111 22 203 107 t92 171q0 37 -21 73q-69 111 -211 111q-74 0 -158.5 -29.5t-158.5 -78.5q-212 -139 -343 -350.5t-162 -443.5q-6 -43 -6 -89q0 -81 16.5 -158t54.5 -150.5t94 -129.5t140.5 -92t188.5 -41q11 -1 34 -1q154 0 330.5 62t272.5 153q43 41 93 41q41 0 71.5 -27t30.5 -69 q0 -41 -35 -81q-131 -144 -350.5 -218t-441.5 -74q-177 0 -297 46q-106 40 -188 102.5t-133 133t-83.5 155.5t-45 165.5t-12.5 167.5z" />
<glyph unicode="&#x422;" horiz-adv-x="1761" d="M-80 1690q0 29 17.5 55t50.5 33q46 10 106 10q51 0 112.5 -9.5t96.5 -18t112.5 -30t96.5 -26.5q267 -68 580 -74q37 -2 102 -2q684 0 1106 236q27 16 53 16q45 0 73 -34t28 -77q0 -30 -16 -57t-48 -41q-443 -202 -858 -241q-48 -79 -86 -273.5t-41 -265.5q-4 -78 -4 -119 q0 -67 13 -171t20 -130q4 -35 32 -139t45 -131q21 -24 45 -66l5 -6l-2 -8q-2 -40 -29 -74.5t-76 -34.5h-16q-29 1 -60.5 22.5t-50.5 51.5q-84 143 -111.5 299.5t-27.5 362.5v133q0 90 4 135q0 1 3 27t4 34t4.5 35t6 40.5t7.5 41t9 45t10 44t12.5 46.5t14.5 43.5t17 44.5 q-7 0 -17 1t-16 1q-55 0 -82 2q-81 0 -157 6q-3 -1 -5.5 -3t-6.5 -6.5t-9 -8.5q0 -8 -6 -14q-2 -9 -8.5 -26t-7.5 -19q-6 -20 -17 -56t-14 -45q-45 -146 -53 -215q-13 -107 -13 -196q0 -96 15 -250q28 -242 69 -367q23 -37 23 -76q0 -43 -39 -67.5t-84 -24.5q-36 0 -68 27.5 t-39 66.5q-59 133 -77 295q-19 208 -21 244q-4 102 -4 158q0 207 39 338q1 3 11.5 44t19 70t24.5 73.5t33 78.5q-81 11 -221 43q-100 16 -148 27q-4 -15 -16 -53t-16 -60q-21 -94 -35 -291q-6 -111 -6 -196q0 -126 10 -236q17 -170 74 -440q2 -13 1.5 -23.5t-2 -24 t-1.5 -16.5q0 -47 -40 -74.5t-87 -27.5q-38 0 -76.5 28t-44.5 70q-4 68 -24 238.5t-25 232.5q-9 175 -9 234q0 23 5 131q1 16 3 73t4 83l5.5 71.5t9.5 82.5t14 73q8 34 27.5 99t26.5 95q-106 27 -187 27h-20q-34 0 -53 23.5t-19 52.5z" />
<glyph unicode="&#x423;" horiz-adv-x="1349" d="M-123 1376q0 19 2 27l2 8l2 2q16 63 52.5 124.5t87.5 113t118.5 83t139.5 31.5q60 0 108 -18q56 -20 94 -63.5t55.5 -103t24 -108.5t8.5 -110q2 -31 2 -80q2 -11 2 -55v-33q0 -112 11 -172q13 -61 47 -61q45 0 153 88q14 13 41 36t41 35q30 28 91 83.5t92 82.5l20 19 q18 162 43 254q38 129 109 213q44 34 90 34q43 0 80 -25t61 -61q21 -29 21 -68v-12q0 -70 -56 -190q-45 -98 -137 -201q-2 -27 -5.5 -86.5t-6 -92.5t-6.5 -82t-10.5 -92t-14.5 -85q-1 -5 -4 -18t-4 -21q-49 -200 -150 -380.5t-254 -299.5q-97 -73 -225.5 -123.5 t-253.5 -50.5q-143 0 -242 78q-110 91 -110 207q0 79 50 151t136 129q48 25 74 25q47 0 79 -31.5t32 -70.5q0 -28 -18 -53t-50 -40q-76 -35 -76 -84q0 -32 38 -61.5t97 -30.5l7 2h10q213 12 358 154q135 133 206.5 305t100.5 381q6 26 9 55q-5 -3 -37 -30q-74 -62 -76 -66 q-209 -182 -348 -182q-94 0 -144 73q-27 36 -44 77.5t-23.5 91t-8 83t-1.5 90.5v64q0 65 -2 96q-1 8 -4 41.5t-5 49t-6.5 45t-10 46.5t-14.5 35t-20 27q-17 14 -41 14q-55 0 -127 -84t-88 -143q-9 -30 -32 -47t-50 -17q-33 0 -61.5 19t-28.5 59z" />
<glyph unicode="&#x424;" horiz-adv-x="1478" d="M68 827q0 77 12 156q9 61 21.5 119.5t35.5 132.5t51.5 137t71 126t93 107t120 72.5t148.5 30.5q35 33 79 33q50 0 80 -44q151 -23 269.5 -92t192 -171.5t111.5 -229.5t38 -271v-12q-1 -79 -18 -167t-50 -179t-86 -175t-119.5 -151.5t-156.5 -111t-192 -50.5 q-13 -77 -23 -111q-8 -35 -37 -53.5t-62 -18.5q-42 0 -77.5 27t-35.5 71l3 17v3v3q3 13 10.5 41.5t10.5 42.5q-127 33 -223.5 106.5t-153.5 172.5t-85 209.5t-28 229.5zM268 819q0 -411 316 -525q9 117 10 341.5t7 326.5q3 52 21.5 201t18.5 228q0 78 -15 147 q-56 -4 -107.5 -39.5t-88.5 -88t-67 -118.5t-48 -127t-27 -118q-20 -107 -20 -228zM799 271q84 20 159.5 89t125 159t78 188t28.5 182v33q-8 110 -29.5 199t-60.5 168.5t-102.5 136t-150.5 85.5q6 -55 6 -104q0 -81 -17 -230.5t-18 -216.5q-2 -73 -3 -215t-4 -257.5 t-12 -216.5z" />
<glyph unicode="&#x425;" horiz-adv-x="1806" d="M-325 -37q0 58 55 93t115 83.5t136.5 115t114.5 98.5q204 169 335 319q182 208 328 359q-21 34 -56 82q-71 98 -163.5 183t-184.5 128q-85 39 -151 39q-44 0 -84 -17q-38 -16 -79 -45t-43 -40q2 -10 2 -22q0 -43 -28.5 -71.5t-66.5 -33.5q-5 -1 -14 -1q-31 0 -58 19 t-39 53q-11 30 -11 64q0 47 20.5 89.5t54.5 74.5t67 54.5t69 39.5q115 55 230 55q126 0 240 -63q259 -144 456 -437q86 87 154 153q25 24 92 92.5t115.5 116t127.5 113t146 106.5t150.5 71t160.5 30q128 0 234 -82q37 -28 37 -74q0 -21 -8 -40q-12 -28 -37.5 -48.5 t-60.5 -20.5q-26 0 -49 14q-46 28 -99 28q-147 0 -383 -203q-219 -187 -461 -431q15 -28 60.5 -117t84 -160t91.5 -159.5t111.5 -162t115.5 -120.5q93 -78 176 -78q101 0 203 121q14 15 26 24q29 19 59 19q57 0 94 -49q26 -34 26 -75q0 -63 -57 -98q-6 -4 -19 -12 q-73 -46 -116 -70.5t-117 -50t-141 -25.5q-108 0 -206 61q-69 43 -129.5 101.5t-111 131.5t-84 129.5t-77.5 139.5q-24 44 -49.5 96t-56 114.5t-46.5 93.5q-31 -35 -101.5 -118.5t-110.5 -129t-101 -112t-116 -119.5q-116 -113 -289 -255q-22 -18 -93.5 -73t-113 -92.5 t-73.5 -77.5q-8 -11 -26 -24q-26 -19 -58 -19q-55 0 -92 47q-27 33 -27 75z" />
<glyph unicode="&#x426;" horiz-adv-x="1474" d="M57 -75q0 41 30 68q40 34 94 65v19q0 59 -15.5 187t-15.5 194q0 102 9 401q2 70 2 107q0 32 -0.5 98t-0.5 100q0 288 50 454q9 31 34.5 48.5t54.5 17.5q35 0 62.5 -19t39.5 -54q5 -16 9 -43q3 -17 -10 -42q-5 -135 -12.5 -380.5t-10.5 -322.5q-9 -281 -9 -374v-45 q0 -29 -2.5 -94.5t-2.5 -99.5q0 -72 9 -129q94 28 264 61.5t219 45.5q13 3 58 14t72 17q-3 22 -9.5 69t-10 74.5t-6.5 68t-3 75.5v13q3 181 29 370q9 65 46.5 328.5t56.5 405.5q4 37 35 61.5t69 24.5q41 0 68 -31q2 -2 6 -7t7 -8q20 -21 20 -50q0 -20 -11 -42v-9 q0 -72 -7.5 -157.5t-15.5 -144.5t-23 -159t-21 -146q-3 -21 -11 -79t-12.5 -90t-10 -81.5t-8 -93.5t-2.5 -85q0 -125 27 -222q42 3 71 3q185 0 279 -91q81 -80 81 -197q0 -73 -28 -145q-7 -17 -29.5 -75.5t-30.5 -80t-26.5 -71.5t-28 -79.5t-22.5 -72.5t-22 -82t-16 -79 q-44 -238 -44 -389q0 -63 8 -135q19 -161 56.5 -287.5t113.5 -205.5q28 -30 28 -65q0 -46 -37.5 -79.5t-82.5 -33.5q-58 0 -87 57q-15 29 -51.5 93t-56.5 101t-43.5 95t-36.5 112q-41 173 -41 350q0 34 4 102q14 207 83 470q22 84 82.5 222t79.5 196q12 39 12 66 q0 53 -42 76t-128 23q-123 0 -378 -63q-68 -17 -224.5 -45.5t-265 -60.5t-189.5 -85q-22 -15 -47 -15q-37 0 -59.5 28.5t-22.5 63.5z" />
<glyph unicode="&#x427;" horiz-adv-x="1177" d="M61 1107q0 89 21 248t22 215q2 43 35.5 65t73.5 22t70.5 -22t30.5 -63q0 -46 -17.5 -186.5t-17.5 -215.5q0 -207 108 -255q55 -24 118 -24q88 0 199 54q42 238 97 452t84 276l1 1v2q24 46 89 46q47 0 90 -26.5t43 -70.5q0 -22 -4 -33v-2l-1 -1q-57 -119 -75 -187.5 t-39 -222.5q0 -3 -8 -96q36 0 54 -22t18 -53q0 -39 -32 -70q-3 -3 -31.5 -34t-50.5 -47q-3 -30 -16 -106t-14 -95q-1 -10 -6 -58t-9.5 -107t-4.5 -111q0 -65 8 -115t19 -72.5t22 -22.5h1q8 2 13.5 3t8 1t4 -0.5t2 -1t1.5 -0.5q43 -1 63 -34t20 -72q0 -86 -72 -107 q-27 -8 -61 -8q-73 0 -126 37.5t-82 105t-42 148.5t-13 180q0 144 17 277q-95 -25 -183 -25q-129 0 -232 47q-196 99 -196 386z" />
<glyph unicode="&#x428;" horiz-adv-x="1781" d="M101 -83q0 14 2 21q5 26 21 53q8 64 8 139q0 48 -4 146t-4 147v48q8 246 30 452q53 514 174 863q11 34 42 51.5t65 17.5q38 0 69 -22t31 -63q0 -10 -3 -22q-106 -440 -143 -865q-20 -242 -26 -464q-1 -37 -6 -137t-5 -154v-33q40 15 82 28t93.5 25t75.5 17.5t81 16.5 t58 11q25 5 42 8q-30 136 -31 208q0 3 -0.5 11t-0.5 11q0 138 34 331q9 52 33.5 182t36.5 198.5t25 174t17 193.5l4 20q11 39 46 62t74 23q35 0 62 -22.5t31 -61.5q5 -63 5 -112q0 -46 -3.5 -98.5t-7.5 -89t-14 -100t-14 -87t-18 -98.5t-17 -90q-46 -252 -50 -377 q-3 -99 -3 -114q0 -85 11 -135q76 6 151 6q124 0 247 -18q48 -8 53 -9q-45 118 -56 230q-9 89 -9 205q0 155 20 315q7 55 11 82.5t13 85.5t17 92.5t23 89.5t30.5 91.5t38.5 83t49 80t60.5 67t73.5 57.5q26 16 52 16q42 0 69 -30.5t27 -68.5q0 -45 -38 -73q-42 -29 -75 -87 t-52 -115t-34 -143.5t-20.5 -134.5t-12.5 -126q-17 -174 -17 -280q0 -319 128 -461q144 -40 217 -53q41 -8 63.5 -36.5t22.5 -63.5q0 -52 -38 -96.5t-95 -44.5q-34 0 -66 19q-60 35 -140 64q-28 -11 -53 -11q-62 0 -96 55q-200 47 -416 47q-47 0 -117 -4q-46 -49 -115 -49 q-44 0 -76 26v-1q-21 -4 -89 -16t-107.5 -20.5t-98.5 -22t-107 -29t-88 -34.5q-30 -44 -88 -57l-1 -1q-25 -24 -68 -24q-36 0 -66 22t-30 62z" />
<glyph unicode="&#x429;" horiz-adv-x="2172" d="M127 -117q0 44 37 76q52 47 120 85q-8 32 -40 149t-48.5 194.5t-23.5 156.5q-18 154 -18 315q0 188 29 318q39 203 83 312q84 213 200 213q39 0 76 -24q41 -26 41 -70q0 -28 -18 -53t-46 -36q-14 -15 -17 -22q-32 -68 -35 -74q-38 -95 -46 -133q-46 -218 -50 -367 q0 -9 -0.5 -26t-0.5 -26q0 -228 43 -461q43 -235 58 -286q169 47 416 47q63 0 173 -4q-3 24 -14 122.5t-15.5 138t-11.5 117t-10.5 139t-4.5 123.5q-2 94 -2 141q0 273 36 462q26 139 52 201q61 145 190 173q7 2 22 2q39 0 62.5 -27t23.5 -61q0 -59 -55 -81q-16 -7 -30 -23 t-23.5 -41t-17.5 -51.5t-13 -63.5t-8.5 -65.5t-6 -69t-3.5 -63.5t-2.5 -60.5t-1.5 -47.5q-2 -46 -2 -138q0 -250 35 -563q23 -200 36 -337q260 -17 420 -56q-7 310 -7 340q0 228 19 418q28 265 78 449q17 63 76.5 187.5t69.5 192.5q6 38 34 60t62 22q35 0 60.5 -23t25.5 -62 q-1 -67 -23 -136.5t-52 -141.5t-40 -119q-47 -212 -63 -406q-8 -92 -13 -203t-7.5 -186t-5 -210.5t-4.5 -192.5q50 -22 136 -64t126 -60q55 -25 55 -83q0 -49 -36.5 -91t-86.5 -42q-36 0 -63 23q-88 72 -224 123q-14 -3 -21 -3q-47 0 -72 31q-185 51 -427 69q7 -131 7 -227 q0 -55 -4 -163q-10 -184 -61.5 -514.5t-64.5 -469.5q-4 -50 -42.5 -77t-83.5 -27q-42 0 -76 23.5t-34 68.5q0 16 3 28q133 551 133 1119v18q0 97 -9 234q-131 8 -234 8q-175 0 -306 -30q-4 -46 -43.5 -74.5t-84.5 -28.5q-44 0 -71 27q-30 -18 -54 -34q-29 -20 -63 -20 q-40 0 -69 27t-29 65z" />
<glyph unicode="&#x42a;" horiz-adv-x="1906" d="M65 1567q0 35 18 65.5t58 36.5q68 10 164 10q44 0 131.5 -2.5t130.5 -2.5q251 0 391 87q18 16 60 42q25 16 55 16q45 0 77.5 -32.5t32.5 -73.5t-36 -70q-26 -18 -36 -24q-141 -102 -248.5 -284.5t-160 -376.5t-52.5 -370q0 -5 0.5 -15.5t0.5 -15.5q3 -69 6.5 -111t20 -99 t45.5 -95q89 -118 239 -118q90 0 182.5 43t158.5 113q73 76 139 182.5t66 191.5q0 100 -109 143q-70 27 -143 27q-159 0 -367 -146q-28 -20 -60 -20q-46 0 -76.5 35t-30.5 78q0 54 49 86q125 77 266 123.5t270 46.5q84 0 154 -23t126 -70.5t89 -128t38 -188.5v-15 q0 -112 -65.5 -238.5t-167 -229.5t-236.5 -171t-263 -68q-42 0 -90 10q-103 22 -185 67t-137.5 105.5t-92 138t-53 161.5t-16.5 178q0 222 83.5 466t217.5 444q-17 -1 -41 -1q-25 0 -38 1q-1 0 -84 7t-137 7q-45 0 -78 -6t-45 -12t-12 -10q-3 -88 -6.5 -121.5t-20.5 -120.5 q-6 -32 -30 -48.5t-52 -16.5q-33 0 -61 21.5t-28 59.5v5v2v1q7 56 7 118q0 91 -17 188v1v1q-1 5 -1 16z" />
<glyph unicode="&#x42b;" horiz-adv-x="1777" d="M118 589q0 167 38 343.5t113 415t97 323.5q9 29 31.5 45t50.5 16q36 0 65 -24t29 -62q0 -5 -2 -17q-24 -114 -73.5 -288t-87 -327.5t-49.5 -286.5q-2 -28 -2 -51q0 -79 15 -167.5t44.5 -173t81.5 -139.5t118 -55q53 0 118 34q94 48 147 146.5t53 205.5q0 112 -54 183.5 t-148 71.5q-84 0 -193 -63q-29 -17 -59 -17q-46 0 -75 33t-29 74q0 31 18.5 57.5t54.5 40.5q202 76 348 76q64 0 119 -15t103 -47t83 -87t51 -130q15 -69 15 -144q0 -103 -26 -199.5t-85.5 -185.5t-146.5 -145q-107 -70 -247 -70q-109 0 -210 44t-174 124t-98 180 q-34 132 -34 281zM1277 461q0 501 238 1133q11 27 33 41t48 14q33 0 59 -21.5t26 -57.5q0 -14 -2 -21q-10 -42 -43.5 -173t-47 -187t-38.5 -170.5t-36 -188t-20.5 -171t-9.5 -184.5q0 -220 53 -408q4 -12 4 -29q0 -46 -35.5 -73.5t-79.5 -27.5q-36 0 -65.5 21t-37.5 59 q-46 214 -46 444z" />
<glyph unicode="&#x42c;" horiz-adv-x="1116" d="M94 846q0 33 1 69.5t2.5 80.5t2.5 69q7 121 56.5 325t60.5 282q6 36 31 56.5t57 20.5q46 0 86 -30.5t40 -78.5v-14v-2q-16 -86 -52 -231.5t-58.5 -265t-25.5 -229.5v-1v-1q0 -1 -1 -4v-3q87 31 204 31q103 0 193.5 -26t162.5 -82t108 -136q42 -92 42 -197 q0 -149 -77.5 -286.5t-210.5 -210.5q-109 -58 -225 -58q-85 0 -155.5 36.5t-117 97.5t-74 136t-33.5 156q-17 237 -17 496zM289 627q0 -212 44 -361q48 -135 149 -135q60 0 132 49.5t125 122.5t62 138l2 12t1.5 10t0.5 9q0 104 -97 173.5t-226 69.5q-125 0 -193 -58v-30z " />
<glyph unicode="&#x42d;" horiz-adv-x="1681" d="M66 296q0 42 30.5 72t71.5 30q50 0 82 -47q59 -83 157 -125t213 -42q190 0 337 96q204 131 292 352q-38 6 -80.5 16.5t-71 19.5t-81 27t-78.5 26q-108 36 -184 36q-77 0 -168 -39q-27 -13 -76.5 -32t-67.5 -27q-22 -10 -42 -10q-38 0 -63.5 25.5t-25.5 58.5q0 43 42 67 q13 7 95 61t144 79.5t128 25.5q10 0 28 -2q151 -15 308 -75q14 -5 55 -21.5t64 -25t57.5 -18.5t61.5 -12q4 28 4 59q1 18 1 52q0 79 -12 151.5t-38.5 144t-78.5 127t-124 82.5q-80 30 -173 30q-157 0 -302.5 -86t-214.5 -216q-23 -43 -73 -43q-33 0 -60 22.5t-27 58.5 q0 15 4 27q42 117 146 219t245 164t282 62q102 0 190 -33q145 -55 246.5 -162.5t148 -237.5t46.5 -275q0 -42 -5 -92q-1 -13 -6 -58q36 -35 36 -82q0 -31 -19 -56t-54 -34q-119 -423 -523 -594q-155 -64 -311 -64q-158 0 -296.5 65t-234.5 186q-25 31 -25 67z" />
<glyph unicode="&#x42e;" horiz-adv-x="1785" d="M53 1195q0 185 15 478q2 45 36 69.5t76 24.5q45 0 83 -27t38 -77q0 -89 -11 -222t-11 -193q0 -106 10 -196q6 -63 14.5 -220t11.5 -200q121 94 338 185q6 153 47 304q-5 14 -5 33q0 28 13 50q15 25 32 43q6 15 12 27.5t10 21.5t12.5 19.5t12 15.5t15.5 16t15.5 14.5 t20 17.5t21.5 18q62 50 130 91q196 132 363 132q151 0 263 -106q195 -196 195 -530q0 -166 -51 -334.5t-138 -297.5q-89 -133 -243.5 -236.5t-303.5 -103.5q-95 0 -174.5 53.5t-130.5 163.5q-83 173 -110 391q-134 -67 -205 -127q-57 -51 -85.5 -98.5t-37.5 -102.5 q-4 -66 -4 -99q3 -70 23 -169l1 -3v-13q0 -47 -33 -78.5t-76 -31.5q-32 0 -57.5 19.5t-37.5 53.5v1v1q-19 59 -22 118q-3 17 -14 76t-17 104.5t-6 85.5q0 34 12 77q-9 82 -16 202.5t-16 201.5q-15 149 -15 357zM874 729q0 -132 33 -248q55 -203 161 -223q34 -4 45 -4 q91 0 169.5 63t133.5 159q181 311 181 566q0 183 -86 293q-75 99 -187 99q-99 0 -203 -84.5t-157 -196.5q-90 -212 -90 -424z" />
<glyph unicode="&#x42f;" horiz-adv-x="1253" d="M-74 350q0 41 30.5 64t68.5 23q30 0 58 -16.5t40 -47.5q9 -21 27.5 -84t37.5 -100.5t44 -42.5q95 10 179.5 57t135.5 118q137 196 192 456q-159 -85 -275 -85q-122 0 -218 79q-117 98 -117 255q0 123 74 289q61 147 172.5 241.5t273.5 110.5h2h24q60 0 110.5 -27 t82.5 -65t59 -91.5t40 -93t23 -83.5q20 -91 20 -209q0 -148 -28 -291q8 -44 15 -128t13 -121q9 -73 19.5 -124.5t28 -94.5t44.5 -64.5t64 -21.5q65 0 151 51q26 17 51 17q43 0 68.5 -31t25.5 -70q0 -54 -45 -81q-146 -89 -277 -89q-85 0 -155 43.5t-114 131.5 q-30 62 -46 145q-69 -124 -140 -201q-80 -89 -193 -153.5t-229 -64.5q-41 0 -82 11q-42 11 -76 35t-56 51.5t-41 66t-29.5 68.5t-24 70.5t-21.5 60.5l-1 2l-1 2q-5 22 -5 32zM329 1044q0 -2 1 -11.5t1 -15.5q13 -78 43 -106t77 -28q25 0 56.5 8.5t57 18.5t62.5 29t55 29.5 t52.5 31t39.5 23.5q12 137 12 143v33q-3 100 -26 151l-1 2l-1 2q-12 48 -37.5 68t-65.5 20q-57 0 -142 -39q-71 -76 -127.5 -178t-56.5 -181z" />
<glyph unicode="&#x430;" horiz-adv-x="1220" d="M111 331q0 51 21 99q48 96 152.5 145.5t228.5 49.5q24 0 57 -3q55 -5 119 -30q-6 63 -25 113q-14 36 -62.5 58.5t-108.5 22.5q-59 0 -100 -30q-39 -27 -78 -27q-47 0 -82.5 34t-35.5 79q0 46 38 75q108 89 274 89q119 0 218.5 -48.5t151.5 -142.5q66 -128 66 -320 q0 -89 -14 -196q17 -14 55 -49l1 -1l1 -1q57 -67 111 -95t142 -38q40 -6 62 -29t22 -57q0 -47 -33.5 -86t-87.5 -39h-14h-3q-3 0 -47 6.5t-60 10t-51 13t-60.5 23.5t-48.5 33q-34 27 -81 86.5t-69 75.5h-2q-12 0 -66 -33t-83 -43q-125 -44 -231 -47h-7q-77 0 -140.5 47 t-96.5 115.5t-33 139.5zM342 314q0 -12 2 -18q40 -44 104 -44q54 0 118 28t99 56q-42 76 -147 76q-70 0 -123 -31t-53 -67z" />
<glyph unicode="&#x431;" horiz-adv-x="1288" d="M150 647q0 177 51 347t147 298q285 384 639 537q47 18 119 44t119.5 43.5t111.5 44t108 50.5t94.5 59.5t86 74t67.5 90.5t52 112l2 6l2 4q14 36 41.5 57t62.5 21q49 0 98.5 -37.5t49.5 -91.5q0 -11 -6 -35l-8 -20l-2 -6q-40 -113 -108.5 -201t-153 -145.5t-180 -103 t-200 -84t-201.5 -76t-196 -92t-172 -120.5q-167 -143 -286 -348t-119 -401v-15q0 -82 37 -167q41 -94 122.5 -159t155.5 -65q58 0 98.5 34.5t63.5 119.5q26 96 26 129q0 30 -16 70q-58 14 -70 14q-32 0 -52 -17t-32 -55v-2q-4 -49 -39.5 -75.5t-82.5 -26.5q-49 0 -86 31 t-37 85q0 143 97 228.5t224 85.5q113 0 203.5 -63.5t118.5 -182.5q8 -33 8 -94q0 -70 -19.5 -144.5t-57.5 -143.5t-90 -123.5t-123 -87t-150 -32.5q-94 0 -176 43q-176 85 -259 239.5t-83 346.5z" />
<glyph unicode="&#x432;" horiz-adv-x="1269" d="M123 700q0 96 18 198t53.5 206t93.5 196t132.5 164t177.5 114t221 42q10 0 24.5 -1t18.5 -1h2h4q65 -5 116.5 -36.5t82 -79t46 -101.5t15.5 -111q0 -49 -8 -88q-42 -157 -155 -293q79 -71 122 -199t43 -266q0 -267 -147 -364q-115 -80 -238 -80q-95 0 -188.5 40.5 t-167 107.5t-132.5 149t-93 169.5t-39 164.5q-2 23 -2 69zM354 690q17 17 27 23q381 258 487 463q29 60 29 110q0 54 -30 93.5t-70 39.5q-18 0 -58 -15t-69 -34q-142 -83 -226 -261t-90 -361v-35v-23zM379 580q36 -127 113.5 -217.5t195.5 -122.5q52 -9 62 -9q70 0 112.5 58 t42.5 151q0 71 -27 195t-53 164q-27 -13 -45 -17q-109 -92 -272 -200q-29 -23 -66 -23q-32 0 -63 21z" />
<glyph unicode="&#x433;" horiz-adv-x="1165" d="M-152 1014q0 35 19 67t56 45q101 41 243.5 72t279.5 31q79 0 147.5 -12t130.5 -39.5t105.5 -77.5t60.5 -119q9 -33 9 -82q0 -137 -118 -301q-7 -10 -40.5 -54t-46 -62.5t-30.5 -51.5t-24 -60q-1 -7 -1 -29q0 -49 34 -76t89 -27q54 0 108 35q30 20 66 20q50 0 85.5 -38.5 t35.5 -86.5q0 -61 -50 -95q-106 -71 -243 -71q-103 0 -192 33.5t-147 102.5t-58 160q0 59 18 102q25 69 80.5 150.5t105 156.5t66.5 136q2 12 2 36q0 106 -198 106q-108 0 -240 -28t-195 -55l-4 -2q-3 -1 -14.5 -4t-28.5 -3q-50 0 -80.5 37t-30.5 84z" />
<glyph unicode="&#x434;" horiz-adv-x="1433" d="M-41 37v6q0 33 14 59t36.5 41.5t37 22.5t29.5 12q152 226 299 365q130 123 223 194q12 12 66 54q-18 58 -69.5 103.5t-109.5 59.5q-32 7 -50.5 29.5t-18.5 50.5q0 41 35 75t84 34h16h2q59 -10 111.5 -38.5t89 -63t71.5 -84.5t56 -89t45 -90q24 -56 65.5 -158t55.5 -137 q6 -17 22.5 -73t31.5 -90t32 -46l4 -2l2 -4q18 -27 28 -41q19 -3 74 -16q65 -20 98 -61t33 -95q0 -67 -42.5 -156.5t-94 -173.5t-61.5 -114q-10 -36 -39.5 -55t-65.5 -19q-43 0 -79 24.5t-36 67.5q0 21 9 37l2 6l6 13q18 32 56 94t64.5 110t45.5 95q6 14 15.5 33t10.5 22 q-2 0 -6 1t-6 1q-73 12 -188 12h-33q-36 0 -107.5 -1t-107.5 -1q-80 0 -121 2q-86 4 -131 4q-64 0 -264 -20q-21 -12 -21 -27q0 -26 46.5 -172.5t47.5 -159.5v-10q0 -26 -19 -48.5t-60 -22.5q-9 0 -41 4q-43 11 -89.5 104.5t-74 189.5t-29.5 142zM360 221q76 8 164 8 q40 0 117 -2t115 -2h43q18 1 50.5 2t49.5 2q-11 31 -30.5 70.5t-30.5 65.5q-85 241 -86 243q-1 3 -4.5 10.5t-4.5 10.5q-13 -9 -26 -18.5t-27.5 -21.5t-24.5 -20.5t-25.5 -24t-22.5 -22t-24 -25t-20.5 -22.5t-21.5 -24t-19 -21q-103 -111 -172 -209z" />
<glyph unicode="&#x435;" horiz-adv-x="1206" d="M98 455q0 165 91 313t252 214q113 44 226 44q131 0 218.5 -58.5t87.5 -170.5q0 -53 -22 -113q-49 -133 -185 -215t-299 -82q-84 0 -161 29q10 -99 97 -135q77 -33 180 -33q93 0 188.5 32t173.5 83q36 24 67 24q45 0 70.5 -34t25.5 -77q0 -73 -61 -113 q-101 -68 -232.5 -111.5t-261.5 -43.5q-296 0 -409 233q-46 101 -46 214zM341 612q4 -1 39 -8l2 -1h1q19 -5 73 -5q101 0 174 47.5t94 127.5v1l1 2v10q0 23 -18 44t-43 29l-20 -1q-63 -4 -129 -47.5t-114 -103.5q-32 -41 -60 -95z" />
<glyph unicode="&#x436;" horiz-adv-x="2213" d="M-156 -129q0 50 33 91.5t90 41.5q19 0 41 -6h10q30 0 79.5 26t83 50.5t92.5 72t65 52.5q202 150 349 257q26 18 78.5 55t78.5 55q-353 351 -564 351q-95 0 -169 -74q-28 -28 -66 -28q-39 0 -69.5 27.5t-30.5 66.5q0 33 23 59q130 154 314 154q271 0 614 -326 q10 79 21 144t27 135t36 122t45 95t58 65.5t72 22.5q24 0 49 -11q63 -27 63 -91q0 -28 -17 -53.5t-44 -38.5q-8 -21 -12 -39q-25 -87 -35 -149q-23 -127 -38 -248q17 14 61.5 54.5t79 67.5t77.5 52q25 15 88.5 53.5t78.5 46.5t59 31t69 30.5t66 20t91 22.5q54 11 123 11h29 q93 0 156 -19.5t133 -70.5l1 -1q42 -34 42 -81q0 -45 -33 -81t-79 -36q-32 0 -58 20q-58 39 -76 44q-23 8 -74 8q-158 0 -296 -81q-111 -59 -168 -98.5t-126 -94t-157 -113.5l-1 -1l-2 -1q-2 -1 -8.5 -5t-8.5 -5q79 -73 136 -121.5t134 -103t144 -86t150.5 -52.5t169.5 -21 q65 0 118 14.5t137 52.5l1 1h1q31 12 55 12q52 0 82.5 -37.5t30.5 -85.5q0 -42 -26 -76.5t-75 -43.5q-30 -6 -92.5 -19.5t-96.5 -20t-88 -12.5t-106 -6q-126 0 -230 32q-134 43 -234 110.5t-226 183.5q-31 30 -87 91q-1 -23 -1 -69q0 -16 -1 -47.5t-1 -46.5q0 -97 29 -150 q17 -26 17 -55q0 -54 -46 -90.5t-101 -36.5q-40 0 -72.5 25t-41.5 71q-13 53 -13 254q0 39 2 121q-193 -146 -358 -281q-147 -119 -210 -158q-142 -90 -305 -111q-12 -3 -25 -3q-54 0 -84.5 33.5t-30.5 79.5z" />
<glyph unicode="&#x437;" horiz-adv-x="1406" d="M4 -387q0 192 135.5 313.5t368.5 159.5q16 4 21 4h4h3h9q56 0 87.5 -36.5t31.5 -80.5q0 -34 -24 -59.5t-67 -33.5q-98 -14 -169 -42t-110 -64.5t-57 -76t-18 -84.5q0 -91 65.5 -185.5t165 -155t193.5 -60.5q116 0 182 97q80 119 135.5 311.5t55.5 381.5q0 97 -19.5 179.5 t-60.5 152.5t-112 117t-167 64q-43 8 -64 35t-21 60q0 36 24.5 66.5t69.5 38.5q6 16 34.5 73t31.5 69q12 43 12 73q0 36 -14 49.5t-40 13.5q-49 0 -102.5 -27.5t-96.5 -80.5l-1 -2q-6 -6 -8 -10v-5l-9 -9q-41 -38 -96 -38q-49 0 -87 28.5t-38 72.5q0 26 24 57 q41 50 121 111.5t190 113t197 51.5q75 0 127 -36.5t67 -115.5l1 -2l2.5 -10t1.5 -7q6 -72 6 -83q0 -82 -24 -178t-67 -166q88 -49 153.5 -124t102 -163.5t54 -181t17.5 -192.5v-66l-2 -24v-2q-5 -69 -11.5 -132t-22.5 -149t-37.5 -159.5t-57 -152.5t-80 -139t-109 -108 t-140.5 -70q-72 -20 -137 -20q-103 0 -201 39t-174 104t-133 146.5t-86 169.5q-30 91 -30 180z" />
<glyph unicode="&#x438;" horiz-adv-x="1599" d="M155 389q0 103 28.5 291t30.5 240q0 46 35 71.5t77 25.5q101 0 108 -80q1 -5 1 -11v-29q0 -59 -33.5 -224.5t-33.5 -241.5q0 -146 92 -181q28 -9 53 -9q39 0 82 23t80 58.5t78 90t72 104t67.5 115.5t58 109.5t50 101.5t37.5 76q15 35 53 50t81 15q45 0 82 -17.5t37 -57.5 q0 -69 -29.5 -210.5t-29.5 -204.5q0 -145 51 -224t173 -79q9 0 21.5 2t24.5 3q1 0 8 1t10 1h12q48 0 81 -38t33 -82q0 -29 -18 -51t-48 -29q-83 -20 -150 -20q-98 0 -175.5 32.5t-122 79.5t-75 111t-42 115.5t-16.5 104.5q-46 -89 -66 -134l-1 -2l-1 -1 q-41 -66 -94.5 -116.5t-103 -78t-104 -44t-92.5 -21.5t-74 -5q-11 0 -16 1h-5q-9 0 -21 4q-266 28 -266 365z" />
<glyph unicode="&#x439;" horiz-adv-x="1505" d="M109 377q0 102 29.5 293t31.5 239q0 39 29 59.5t63 20.5q49 0 90 -28.5t47 -79.5v-25q0 -65 -40 -243t-40 -257q0 -61 18.5 -93.5t61.5 -51.5q13 -5 40 -5q8 0 19.5 0.5t14.5 0.5q52 0 102.5 40.5t93.5 110.5t77.5 138.5t73.5 151.5t61 122q51 82 123 82q53 0 92 -35.5 t39 -77.5q0 -51 -17.5 -137t-17.5 -119q0 -129 53.5 -194.5t185.5 -65.5h33q29 0 41 2q6 6 19 6q46 0 72 -37t26 -79q0 -35 -18.5 -64t-55.5 -37q-76 -16 -153 -16q-76 0 -138 16.5t-104 45.5t-72.5 63.5t-48.5 75.5t-27.5 74.5t-13.5 68.5q-44 -74 -49 -84 q-64 -97 -115.5 -151t-119 -83.5t-157.5 -29.5q-14 0 -46 2q-54 4 -58 4h-2q-70 7 -120.5 43t-75.5 92t-36 115t-11 127zM522 1294q0 45 11 92t40.5 87t71.5 40q38 0 63 -26.5t25 -63.5q0 -8 -2 -17.5t-2 -12.5q-8 -3 -8 -54q0 -42 17.5 -67t45.5 -25q7 0 39 8 q108 42 168 125q27 41 78 41q42 0 76.5 -29t34.5 -71q0 -25 -25 -55q-68 -99 -150 -153t-194 -54l-25 4q-126 6 -195 70t-69 161z" />
<glyph unicode="&#x43a;" horiz-adv-x="1570" d="M90 69q0 145 23.5 403.5t27.5 343.5q1 15 1.5 60.5t3 76.5t11 72t29 73.5t52.5 54.5v1h1q30 20 56 20q41 0 68.5 -33t27.5 -74q0 -53 -42 -84q-6 -9 -12.5 -49t-6.5 -84q0 -37 3 -101.5t3 -82.5v-20v-2q-3 -26 -5 -53q122 190 281.5 326.5t351.5 189.5q118 34 223 34 q177 0 251 -108q59 -80 59 -169q0 -113 -94 -220q-30 -36 -74 -36q-42 0 -73 32t-31 75q0 36 25 65q62 70 62 109q0 45 -125 45q-32 0 -71.5 -5t-62.5 -10t-30 -7l-1 -1h-2q-61 -18 -117 -47q-192 -102 -300 -235q108 -52 180 -117t146 -162q23 -29 82.5 -110t94 -124.5 t90.5 -100t107 -90.5q171 -118 413 -118q101 0 224.5 22t234.5 63q18 6 31 6q46 0 78 -29.5t40 -74.5v-2v-11q0 -28 -15.5 -52.5t-41.5 -35.5q-108 -49 -246.5 -79t-275.5 -30q-235 0 -376 51q-153 54 -277.5 160.5t-256.5 265.5q-44 53 -88 122t-72.5 117t-77 103 t-109.5 96q-145 -233 -200 -447q-9 -34 -36 -53t-59 -19q-39 0 -71 23.5t-32 65.5z" />
<glyph unicode="&#x43b;" horiz-adv-x="1519" d="M124 334q0 80 29 145q11 26 36 40t53 14q30 0 54.5 -19t24.5 -52q0 -6 -2 -16q-2 -14 -2 -34q0 -70 23.5 -133.5t51.5 -63.5q11 0 27 8q52 26 94 78t86 126q162 277 215 543q10 44 46.5 68t78.5 24q38 0 67.5 -22.5t29.5 -63.5q0 -8 -2 -22l-9 -42q-19 -93 -19 -183 q0 -228 142 -355q65 -58 172 -62q14 6 70 13t92 27q36 39 84 39q44 0 76.5 -30t32.5 -71q0 -47 -44 -77q-49 -35 -61.5 -44t-45.5 -28.5t-45 -22t-44.5 -9.5t-62 -7.5t-79.5 -0.5q-130 0 -240 66q-145 87 -212 246q-92 -166 -203 -273q-122 -120 -250 -120q-51 0 -97 23 q-82 39 -124.5 119t-42.5 172z" />
<glyph unicode="&#x43c;" horiz-adv-x="1982" d="M23 260v33q1 9 1 28t1 31q6 9 16 22t35 34.5t41 21.5h4h3q107 0 107 -78v-14q-8 -62 -8 -96q0 -66 21 -99t75 -34h3q123 0 233 151q164 222 240 576q12 53 97 53h9q38 0 72.5 -26t34.5 -68q0 -17 -8.5 -75.5t-8.5 -84.5q0 -424 144 -426q32 0 75 43q69 65 120.5 166 t101.5 230t88 198q27 49 84 49q37 0 66.5 -24t29.5 -62t-10.5 -119.5t-10.5 -118.5q0 -270 111 -399v-2h2q20 -36 20 -57q0 -43 -35 -74t-79 -31q-56 0 -88 53q-84 142 -113 308q-27 -54 -47 -88.5t-52 -75.5t-64 -64.5t-78 -40t-99 -16.5l-20 -4l-17 2q-76 4 -131 24 t-88 56t-51 73.5t-31 90.5q-115 -217 -266 -328q-47 -35 -111.5 -56.5t-128.5 -21.5q-98 0 -159 53q-131 107 -131 287z" />
<glyph unicode="&#x43d;" horiz-adv-x="1363" d="M172 991q0 47 34 79t77 32q57 0 84 -56q58 -97 58 -308v-37q81 4 217 4q86 0 111 -1q24 175 67 301q9 36 41.5 56t68.5 20q17 0 35.5 -3.5t39 -12t33.5 -27.5t13 -45q0 -6 -1 -11.5t-2.5 -10.5t-1.5 -7q-49 -200 -61 -304q6 -1 30 -3.5t34 -4.5t29 -7.5t34.5 -15 t31.5 -24.5q21 -19 21 -67q0 -68 -50 -82q-16 -5 -54 -5q-35 0 -91 9q-1 -33 -1 -92q0 -386 103 -603l1 -2l1 -1q7 -20 7 -45q0 -47 -34.5 -80.5t-77.5 -33.5q-58 0 -88 57q-150 283 -150 725q0 51 3 98h-315q-6 -211 -20 -385q-4 -44 -37.5 -70t-74.5 -26q-40 0 -70.5 24 t-30.5 66v9v1q6 69 10.5 264t4.5 324q0 25 -1 53.5t-1 31.5q-1 14 -2.5 55.5t-4 70.5t-8.5 39q-12 25 -12 51z" />
<glyph unicode="&#x43e;" horiz-adv-x="1236" d="M82 413q0 181 120 394l6 8l11 22l2 5l3 4q101 126 292 158q0 9 0.5 18t1 13t0.5 5v2v2q0 1 0.5 4t0.5 5q0 3 -0.5 10t-0.5 12q0 75 80 91h2h1h3q2 0 5.5 0.5t8 1t11 0.5h12.5q35 0 63 -8q38 -11 57.5 -44.5t19.5 -74.5q0 -14 -1 -21l-1 -1v-2q-4 -13 -6 -28 q129 -38 201 -135q127 -154 127 -331q0 -188 -149 -354q-79 -87 -192.5 -138t-237.5 -51q-185 0 -302 116q-138 135 -138 317zM307 435q0 -51 7.5 -83.5t32.5 -57.5q48 -41 102 -63.5t99 -22.5q136 0 237 119q97 115 97 230q0 61 -21 124.5t-65 99.5q-26 22 -67 37 q-4 -18 -10 -56.5t-11.5 -63.5t-13.5 -54.5t-19 -47t-26 -23.5h-1h-1q-19 -6 -39 -6q-43 0 -83.5 21.5t-40.5 68.5q0 2 0.5 5t0.5 4v2v1q6 32 18 172q-38 -10 -75 -50q-3 -7 -8 -14l-8 -12l-1 -1h-1l-4 -6l-5 -8q-38 -65 -66 -153t-28 -162z" />
<glyph unicode="&#x43f;" horiz-adv-x="1333" d="M100 930q0 36 22 75t64 39q16 0 45 -16q105 -60 283 -78q40 -5 97 -5q137 0 306 30.5t320 98.5q24 13 53 13q44 0 70 -32t26 -72q0 -36 -21.5 -66.5t-62.5 -42.5q-29 -8 -104 -30t-121 -34q-39 -43 -50 -101t-11 -150q0 -9 1.5 -28.5t1.5 -29.5q4 -61 43.5 -176 t76.5 -153l1 -1q40 -48 40 -89q0 -13 -4 -23q-9 -25 -22.5 -40t-33 -21.5t-34 -8t-36.5 -1.5q-47 0 -100 48q-74 75 -109 171.5t-55 256.5v1v2q0 176 30 278q-83 -10 -213 -10q-96 0 -166 7q-11 -45 -16 -78q-14 -99 -17 -192q-5 -113 -5 -136q2 -69 11.5 -126t18 -88.5 t8.5 -41.5q0 -48 -42 -77.5t-88 -29.5q-16 0 -32 3t-35.5 11.5t-33 28t-15.5 47.5l-1 1v1q-6 66 -6 232v50q9 317 44 441q-14 7 -28 17t-22.5 17t-23.5 20t-22 19q-32 28 -32 69z" />
<glyph unicode="&#x440;" horiz-adv-x="1198" d="M104 86q0 570 224 794q147 130 378 130q20 0 54 -3.5t37 -3.5q138 -13 216 -88q99 -96 99 -274q0 -106 -35.5 -215.5t-92.5 -188.5q-31 -45 -70 -84l-1 -1h-1q-146 -125 -373 -125q-105 0 -212 26q12 -380 66 -698t178 -610l1 -2v-1q6 -20 6 -36q0 -34 -24 -60l-2 -3 l-2 -1q-36 -28 -91 -28q-48 0 -80 23l-3 2l-2 2q-15 16 -24 40q-84 221 -165 629.5t-81 775.5zM329 268q92 -24 179 -24q158 0 254 78l2 1l9 6q53 46 83 100q35 120 35 192q0 94 -47 131l-9 8q-33 26 -87 26t-120.5 -26t-122.5 -70l-9 -8q-83 -66 -105 -138l-30 -86 q-24 -105 -32 -190z" />
<glyph unicode="&#x441;" horiz-adv-x="1187" d="M100 424q0 78 24 186t57 176q24 51 48.5 92t59.5 86.5t80.5 81t99.5 57.5q114 50 200 50q95 0 194 -41.5t153 -123.5q31 -51 31 -144q0 -72 -52.5 -134.5t-124 -95t-137.5 -32.5q-64 0 -111.5 39.5t-60.5 112.5v3v13q0 40 30.5 65t70.5 25q30 0 55.5 -17.5t35.5 -46.5 q18 2 40 24t22 44q0 21 -18 40q-24 24 -60 41t-68 17q-19 0 -28 -1q-55 -16 -99 -57t-90 -104q-112 -156 -112 -303q0 -44 8 -73q45 -191 283 -191q196 0 363 52.5t272 138.5q32 28 67 28q38 0 63 -29t25 -65q0 -52 -50 -87q-11 -7 -32 -21q-79 -52 -120.5 -77.5t-114.5 -64 t-130.5 -56.5t-137.5 -32t-167 -14q-213 0 -333 55q-117 55 -176.5 157.5t-59.5 225.5z" />
<glyph unicode="&#x442;" horiz-adv-x="1994" d="M170 545q0 77 30.5 198.5t32.5 137.5q-1 3 -8.5 15t-12.5 24.5t-5 25.5q0 43 35.5 70.5t76.5 27.5q8 0 37 -5t62 -11l33 -6q10 -3 27.5 -6.5t30 -7t21.5 -7.5q105 -23 194 -29.5t222 -6.5h19q11 3 20.5 3.5t17.5 -0.5t9 -1q62 0 123 6q175 17 315.5 55t300.5 111 q3 3 21 12q24 12 53 12q34 0 62 -18t42 -47l2 -2v-2q11 -33 11 -47q0 -69 -70 -105q-66 -34 -90 -43q-10 -25 -27 -39q-125 -94 -125 -330q0 -7 -1 -42.5t-1 -61.5q0 -68 10.5 -134.5t20.5 -72.5q57 -35 57 -82q0 -50 -48.5 -78t-100.5 -28h-21q-33 5 -54.5 29t-21.5 59 q0 21 5 26v17q0 26 -23 102.5t-25 114.5q-6 67 -6 141q0 84 6 125q12 111 54 219q-209 -57 -412 -65q-65 -134 -65 -211v-76q0 -25 -4.5 -80t-4.5 -82q0 -105 41 -131q8 -5 14 -10.5t11.5 -12t7.5 -8.5v-2q18 -29 18 -55q0 -43 -7.5 -60.5t-37.5 -31.5l-18 -10 q-34 -19 -66 -19q-65 0 -100 53q-38 55 -58 137t-23 141.5t-3 160.5v24q0 90 70 224q-9 0 -53 2t-58 3t-51.5 3.5t-57 4.5t-50 5.5t-55 8.5t-48.5 11q-84 -84 -84 -270q0 -19 4 -65q1 -12 4.5 -48t5 -49.5t6 -43t10 -46.5t15 -40t21.5 -42q14 -19 14 -51v-2 q-4 -46 -45.5 -73t-87.5 -27h-6q-41 3 -69 29t-28 69v25q0 37 -21 116.5t-26 112.5q-14 119 -14 162z" />
<glyph unicode="&#x443;" horiz-adv-x="1443" d="M-160 -1012q0 92 38 214q2 8 4 9l1 4q170 423 861 807l1 1h1q30 14 59 14q46 0 79 -34.5t33 -76.5q0 -16 -9 -39.5t-21 -31.5l-21 -14h-1l-4 -2q-533 -305 -727 -610q-73 -120 -73 -206q0 -164 165 -243q150 -74 282 -74q171 0 243 128q82 147 136.5 312.5t81.5 342.5 t37 336t10 353q0 58 -5 298q-216 -355 -472 -355h-3h-2q-4 0 -11.5 0.5t-21.5 1.5q-3 0 -14.5 1t-12.5 1h-2h-3q-77 13 -134 52t-89.5 89t-52.5 119.5t-26 131.5t-6 137q0 65 6 170.5t7 128.5q0 48 34.5 76t79.5 28t79.5 -27.5t34.5 -75.5q0 -10 -6.5 -80t-6.5 -125 q0 -81 6.5 -151.5t21 -131.5t40 -96.5t60.5 -35.5q27 0 69 26q107 64 195 175.5t141 229t82 241.5q9 37 36.5 57.5t60.5 21.5h2q43 -3 76 -30t33 -76q2 -104 11.5 -387.5t9.5 -439.5v-46v-40q0 -419 -70 -754q-30 -153 -72.5 -279t-88.5 -212t-101 -152t-105.5 -104 t-105.5 -61.5t-97.5 -31.5t-84.5 -8q-59 0 -88 8h-1h-1q-34 1 -77 8.5t-100 25t-111 43t-107.5 66.5t-93.5 92t-64.5 124t-24.5 157z" />
<glyph unicode="&#x444;" horiz-adv-x="1433" d="M80 614q0 132 55 244.5t168 179.5q16 10 65.5 41t78 47.5t73 40t86.5 39.5t84 25q75 170 115 235q23 37 47 68q30 35 104 35q47 0 88 -22t41 -54q0 -43 -26 -78q-69 -106 -113 -194q227 -67 348 -297q43 -76 43 -168q0 -104 -49.5 -215.5t-128.5 -203.5t-177 -164.5 t-196 -109.5q2 -10 10 -61.5t10 -64.5t9 -59.5t9.5 -64t8 -59.5t7.5 -64t5.5 -59t5 -63.5t2.5 -58.5t1 -62q0 -387 -182 -694q-29 -37 -101 -37q-50 0 -89.5 23.5t-39.5 58.5q0 18 8.5 40.5t8.5 24.5q157 274 157 592q0 143 -43 410q-14 95 -30 164q-86 7 -161.5 44.5 t-130 95.5t-93.5 131t-58.5 153.5t-19.5 160.5zM305 606q0 -115 56 -215.5t143 -132.5q-15 96 -15 145q0 59 5 103v2q30 226 94 436q-92 -50 -160 -94l-2 -2v-2q-61 -30 -91 -93.5t-30 -146.5zM743 422q0 -31 9 -123q139 80 252.5 210t113.5 241q0 56 -35 94 q-47 65 -106.5 110t-122.5 58q-111 -285 -111 -590z" />
<glyph unicode="&#x445;" horiz-adv-x="1888" d="M-217 -393q0 63 65 104q109 66 239.5 161t195.5 163q161 170 270 295q3 3 195 232q-69 75 -134.5 137.5t-147 116.5t-134.5 54q-51 0 -84 -56q-27 -47 -79 -47q-38 0 -67 27t-29 66q0 25 13 48q95 170 241 170q51 0 108.5 -21.5t108.5 -54.5t112.5 -86t109.5 -100 t111 -114q37 44 99 111q120 129 256 211.5t274 82.5q177 0 307 -157q22 -26 22 -60q0 -44 -33 -76.5t-76 -32.5q-42 0 -70 34q-75 90 -166 90q-181 0 -465 -332q174 -171 296 -263t207 -92q54 0 94 44q34 37 77 37q48 0 80.5 -39.5t32.5 -85.5q0 -37 -25 -66.5t-71 -38.5 q-23 -5 -65.5 -17t-78 -18.5t-73.5 -6.5q-30 0 -55 4q-128 19 -246 106q-131 97 -304 299q-223 -279 -388 -462q-45 -49 -122.5 -109.5t-146 -107t-138 -105t-102.5 -107.5q-38 -56 -96 -56q-47 0 -82.5 35t-35.5 83z" />
<glyph unicode="&#x446;" horiz-adv-x="1443" d="M168 110q0 30 18 51q24 28 39 39q-2 12 -8 55t-9 63.5t-7.5 61.5t-7 69.5t-4.5 65.5t-2 70q0 80 8.5 144t30 131.5t67.5 120t113 84.5q22 11 45 11q42 0 83.5 -27t41.5 -69q0 -45 -42 -72q-37 -24 -62.5 -65.5t-37.5 -96.5t-16.5 -100.5t-6.5 -104.5q0 -11 -2 -59.5 t-2 -76.5q0 -120 27 -189q55 7 71 8q26 2 74 7.5t77.5 8.5t71.5 5.5t80 2.5h31q4 84 7 105q23 165 47 261q8 31 11.5 44t16 51t23 59.5t30.5 53.5t41 49.5t51 31t64 13.5q8 0 22 -2q40 -5 70.5 -29.5t30.5 -56.5q0 -24 -14.5 -46t-40.5 -35q-13 -7 -24.5 -20t-20.5 -34.5 t-15 -37.5t-12 -47t-9 -44t-8 -47t-6 -38q-3 -19 -20.5 -95t-20.5 -114q188 -20 260 -37q264 -59 305 -224q3 -21 3 -26q0 -55 -48 -88q-28 -55 -106 -123q-25 -21 -95.5 -77t-112.5 -96t-77 -88q-105 -146 -173 -321t-68 -340q0 -135 49 -246q11 -25 11 -47 q0 -53 -44.5 -85t-96.5 -32q-41 0 -72.5 24t-34.5 68q-3 51 -20.5 177t-17.5 199q0 46 8 104q34 232 148 440q136 250 275 352q23 17 78.5 55.5t93.5 67.5t68 58q-47 33 -290 64.5t-307 31.5q-103 0 -288.5 -25t-255.5 -29h-1h-1h-3q-37 0 -59 25.5t-22 57.5z" />
<glyph unicode="&#x447;" horiz-adv-x="1269" d="M119 754q0 80 22.5 157t62.5 129q29 42 83 42q35 0 63.5 -24t28.5 -64q0 -7 -6 -55q-4 -29 -27 -54q-14 -58 -14 -102q0 -121 80 -121h7q94 5 204.5 51.5t175.5 105.5q10 10 20 15q16 66 35 117t46 96.5t63.5 70t81.5 24.5q18 0 34 -4q29 -7 46.5 -28.5t17.5 -47.5 q0 -50 -50 -86q-1 -1 -1 -2.5t-1 -2.5q-3 -8 -13 -48q-16 -70 -26 -131q-24 -149 -39 -302q-3 -29 -23 -192t-24 -248q-2 -41 -36.5 -64t-76.5 -23q-37 0 -66.5 19.5t-30.5 55.5q-2 40 -2 98q0 235 21 431q-71 -39 -117 -60.5t-115.5 -41.5t-132.5 -20q-65 0 -121 20 q-88 31 -129 110.5t-41 178.5z" />
<glyph unicode="&#x448;" horiz-adv-x="1531" d="M47 587q0 230 61 376q11 30 39 47.5t58 17.5q34 0 62 -22t28 -60q0 -13 -3 -22q-36 -202 -36 -303q0 -63 2 -109t9 -111t25.5 -116t46.5 -83q113 46 239 66q-12 114 -12 221q0 291 93 514q27 66 108 66q37 0 66.5 -21.5t29.5 -60.5q0 -11 -3 -23q-47 -211 -56 -412 q0 -24 -2 -68t-2 -68q0 -76 14 -133q166 -1 381 -29v12q0 38 -12.5 112.5t-13.5 87.5q-11 140 -11 159q0 25 3 48q19 215 155 350q30 30 66 30q40 0 69.5 -30t29.5 -71q0 -28 -18 -54q-70 -98 -70 -240q0 -66 8 -123v-1v-1q4 -54 4 -82q0 -25 -2 -74t-2 -72v-36q3 -1 7 -1 q3 -1 4 -1q52 -8 78 -37.5t26 -67.5q0 -47 -34 -85t-87 -38q-21 0 -42 8q-193 59 -429 59q-62 0 -137 -5q-36 -16 -75 -16q-17 0 -37 5q-171 -24 -326 -74q-36 -57 -93 -57h-2q-62 0 -112 44q-27 21 -27 59q0 29 16 56q-8 19 -8 37q-5 54 -40.5 198.5t-35.5 233.5z" />
<glyph unicode="&#x449;" horiz-adv-x="1824" d="M74 508q0 333 185 476q31 26 65 26q40 0 68.5 -28.5t28.5 -66.5q0 -39 -34 -71q-27 -25 -45 -70.5t-26.5 -108t-11.5 -102t-5 -101.5q0 -19 -1 -62t-1 -68q0 -138 30 -202q49 13 173.5 41t188.5 47l15 5t17 5q20 450 231 843q15 29 44 44t60 15q37 0 67 -21.5t30 -61.5 q0 -16 -9 -39v-1v-1q-71 -158 -116.5 -291.5t-58.5 -259.5q-6 -54 -8 -132l42 6q91 13 162 13q130 0 255 -34q36 174 79 272q109 246 143 335q10 32 38.5 49t58.5 17q34 0 62 -21.5t28 -60.5q0 -12 -3 -21q-14 -68 -49.5 -157.5t-67.5 -159t-57.5 -153.5t-25.5 -150 q0 -24 3 -45q30 -27 30 -63q0 -42 -32.5 -75.5t-77.5 -33.5q-21 0 -33 4q-176 61 -346 61q-95 0 -206 -18q4 -77 16 -219q3 -44 3 -68t-3.5 -62.5t-3.5 -82.5q0 -32 0.5 -84t0.5 -72q0 -111 -17 -197t-74 -223q-15 -37 -48 -55t-69 -18q-45 0 -80.5 28t-35.5 74q0 13 3.5 24 t9 21t6.5 14q9 26 23.5 65t19 53t13 41.5t10.5 43.5t5.5 45t4 59.5t0.5 75.5q0 98 -3.5 172.5t-9.5 163t-9 158.5v3q-1 3 -1 4q-230 -68 -375 -68q-30 0 -45 2h-7q-30 -15 -58 -15q-36 0 -64.5 22t-37.5 61q-64 254 -64 454z" />
<glyph unicode="&#x44a;" horiz-adv-x="1404" d="M43 969q0 30 4 104q1 38 28 64t64 28q10 0 29.5 1t28.5 1q83 0 250 -15t249 -15q108 0 205 20q35 25 74 25q66 0 90 -52l2 -2q15 -47 15 -57q0 -1 -0.5 -3t-0.5 -3q0 -9 -2 -17.5t-2 -11.5l-2 -2v-2q-17 -39 -55 -53l-2 -2l-8 -2q-94 -27 -177.5 -138t-121.5 -249 q170 94 311 94q94 0 158 -55.5t80 -171.5q4 -36 4 -58q0 -104 -52.5 -195.5t-149 -147.5t-214.5 -56q-47 0 -72 4q-83 12 -145.5 47t-98.5 87t-53.5 113t-17.5 132q0 140 59.5 295t155.5 274q-73 3 -223 15t-226 14q0 -9 -1 -23t-1 -20q0 -17 4 -45v-14q0 -42 -29 -68.5 t-65 -26.5q-29 0 -52 18t-30 50q-10 54 -10 119zM692 342q8 -46 33 -82q36 -55 113 -55q70 0 133.5 42t72.5 97q5 20 5 43q0 45 -18 60.5t-56 15.5q-53 0 -129.5 -32t-124.5 -71q-11 -9 -29 -18z" />
<glyph unicode="&#x44b;" horiz-adv-x="1587" d="M147 433q0 187 73 381t183 301q31 28 68 28q41 0 69 -28t28 -65q0 -34 -25 -60q-145 -144 -189 -369q-14 -75 -19 -145q73 60 160 98.5t175 38.5q124 0 211 -80q78 -72 78 -183q0 -115 -80 -216.5t-200 -126.5q-78 -17 -152 -17q-192 0 -289 124q-91 118 -91 319z M359 281q25 -49 75 -67t105 -18q82 0 139 34.5t57 90.5q0 27 -14 58t-56 31q-44 0 -105 -30t-83 -57q-37 -44 -96 -44q-16 0 -22 2zM1051 405q0 85 16 156q15 72 35.5 145.5t53.5 181.5t43 141q9 30 33.5 44.5t53.5 14.5q41 0 77.5 -25t36.5 -69q0 -5 -2 -15 q-13 -65 -47 -194.5t-54 -234t-20 -195.5q0 -121 40 -221q7 -19 7 -33q0 -45 -38.5 -69t-82.5 -24t-80.5 24.5t-42.5 72.5q-3 24 -9.5 73.5t-10 78.5t-6.5 71t-3 77z" />
<glyph unicode="&#x44c;" horiz-adv-x="1105" d="M104 511q0 129 40 259t108 239q35 56 94 56q53 0 95.5 -32.5t42.5 -78.5q0 -28 -19 -56q-115 -152 -132 -311q165 72 346 72h37h1q69 -3 122 -31.5t83.5 -73t45.5 -96.5t15 -108q0 -109 -57 -210q-93 -154 -308 -154q-125 0 -236 46.5t-170 125.5q-18 25 -38 59 q-63 32 -63 95v14v3q1 5 11 30q-18 78 -18 152zM368 347q42 -64 111.5 -109t133.5 -45q62 0 110 49q43 44 43 96q0 42 -32 69t-89 27q-36 0 -64 -6q-154 -31 -213 -81z" />
<glyph unicode="&#x44d;" horiz-adv-x="1366" d="M100 187q0 48 35 86.5t83 38.5q44 0 76 -38q37 -44 125 -44q63 0 136 18.5t121 41.5q143 67 219 162q-17 4 -55 16q-13 5 -50 20.5t-60 23t-45 11.5q-18 3 -39 3q-74 0 -244 -61q-17 -7 -38 -7q-41 0 -63.5 30t-22.5 67q0 53 40 81q159 100 338 100q4 0 13 -0.5t13 -0.5 q61 -2 158 -45.5t114 -47.5q-5 81 -60 141.5t-151 79.5q-62 14 -130 14q-175 0 -333 -94q-23 -14 -46 -14q-38 0 -64.5 29.5t-26.5 66.5q0 36 25 62q80 82 192 123t240 41q114 0 217.5 -31t184 -87.5t128.5 -143.5t48 -191q0 -44 -9 -94q-31 -148 -138.5 -270.5 t-262.5 -186.5q-179 -71 -312 -73q-43 0 -85 7.5t-62.5 14t-68 25t-60.5 23.5q-39 15 -59.5 42.5t-20.5 60.5z" />
<glyph unicode="&#x44e;" horiz-adv-x="1724" d="M139 -41q0 39 22 401.5t23 538.5q0 46 42 71t89 25q41 0 75 -17t34 -59q0 -90 -20 -436l6 -2q18 -2 56 -2q71 0 139 20q9 60 9 61v4l2 5q1 2 11 27.5t17.5 39t21.5 36.5t33.5 41.5t44.5 33.5l20 21q32 25 69 38q158 62 348 62q317 0 424 -221q42 -94 42 -166 q0 -151 -91 -271t-252 -168q-103 -28 -202 -28q-144 0 -264 55.5t-177 166.5q-34 10 -141 10q-11 0 -140 -21q-11 -203 -11 -262q0 -44 -38 -64t-81 -20q-26 0 -49 6t-42.5 25t-19.5 49zM819 483q0 -39 13 -85.5t37 -81.5q52 -83 192 -83q77 0 151 16q71 14 137 75.5 t66 133.5q0 55 -34 106q-23 34 -52 56.5t-63.5 33t-61 14.5t-64.5 6q-12 1 -36 1q-194 0 -242 -96l-1 -1q-42 -72 -42 -95z" />
<glyph unicode="&#x44f;" horiz-adv-x="1519" d="M-13 147q0 64 18 129q7 30 31.5 46.5t52.5 16.5q33 0 60 -22t27 -60v-6v-3q-7 -54 -7 -73q0 -29 5 -38t17 -9q13 0 29 5q120 33 227 121q88 73 143 137q-3 0 -34.5 3.5t-38 4t-35.5 4.5t-38.5 6t-35 7t-37.5 9.5t-32.5 11.5t-33.5 15t-28 18t-27 22q-51 51 -51 121 q0 71 47 142t111 123q67 60 154 104.5t172 44.5q107 0 174 -83q86 -102 86 -242q0 -100 -41 -202q84 -45 141 -117q12 -17 29.5 -43t26.5 -38.5t24.5 -27t35 -20t46.5 -5.5h3q117 3 246 43q55 16 85.5 25.5t44 15.5t50.5 22t75 32q27 12 52 12q45 0 65.5 -30.5t20.5 -67.5 q0 -80 -73 -103q-63 -19 -135 -49.5t-118 -50.5t-121 -35.5t-164 -15.5q-33 0 -49 1q-200 14 -278 139q-65 108 -107 139q-53 -71 -113.5 -133t-136.5 -120.5t-166.5 -96t-182.5 -43.5q-18 -2 -26 -2q-98 0 -144 62.5t-46 153.5zM426 616q0 -6 1.5 -10t13 -10.5t32.5 -12.5 q43 -10 123.5 -24.5t102.5 -18.5q21 65 21 117q0 10 -2 30q-4 52 -18 90t-36 38h-2q-77 -3 -161 -87q-75 -77 -75 -112z" />
<glyph unicode="&#x451;" horiz-adv-x="1206" d="M98 455q0 165 91 313t252 214q113 44 226 44q131 0 218.5 -58.5t87.5 -170.5q0 -53 -22 -113q-49 -133 -185 -215t-299 -82q-84 0 -161 29q10 -99 97 -135q77 -33 180 -33q93 0 188.5 32t173.5 83q36 24 67 24q45 0 70.5 -34t25.5 -77q0 -73 -61 -113 q-101 -68 -232.5 -111.5t-261.5 -43.5q-296 0 -409 233q-46 101 -46 214zM210 1233v10l1 1q4 41 36.5 67t73.5 26q4 0 8 -0.5t6 -0.5l2 -1q48 -5 81.5 -35.5t33.5 -72.5l-3 -15q-5 -38 -39.5 -63.5t-78.5 -25.5q-4 0 -8 0.5t-7 1.5l-2 1h-2q-43 5 -72.5 35t-29.5 72z M341 612q4 -1 39 -8l2 -1h1q19 -5 73 -5q101 0 174 47.5t94 127.5v1l1 2v10q0 23 -18 44t-43 29l-20 -1q-63 -4 -129 -47.5t-114 -103.5q-32 -41 -60 -95zM787 1256v11l1 2q6 39 41 65t77 26h13h2q44 -4 73.5 -37t29.5 -75v-9v-2q-5 -39 -36 -64.5t-71 -25.5l-15 1h-1h-3 q-47 6 -79 36.5t-32 71.5z" />
<glyph unicode="&#x454;" horiz-adv-x="1230" d="M129 454q0 78 19 155q41 159 164 283.5t302 161.5q53 13 120 13q129 0 198 -68q69 -73 69 -133q0 -55 -54 -107q-25 -22 -59 -22t-60.5 21t-26.5 53q0 5 0.5 10t1.5 8.5t2.5 6t2.5 4.5v1q-6 9 -45.5 21t-64.5 12q-4 0 -18 -2q-40 -6 -80 -26l-1 -1q-130 -50 -171 -96 q-63 -77 -92 -171q80 50 170.5 77.5t223.5 27.5q43 0 101.5 -8.5t64.5 -9.5h1h1q46 -7 72.5 -44.5t26.5 -71.5q0 -40 -28.5 -71.5t-75.5 -31.5q-23 0 -52 12q-61 25 -143 25q-109 0 -211 -36t-146 -93q63 -133 290 -133q108 0 223.5 34.5t188.5 86.5l1 1h1q36 22 61 22 q40 0 67 -29.5t27 -67.5q0 -26 -15.5 -49.5t-43.5 -35.5q-98 -46 -166.5 -74t-182 -57t-209.5 -29q-151 0 -257 63t-153 160q-15 15 -19 41v2v2q0 26 -12.5 80.5t-12.5 82.5z" />
<glyph unicode="&#x456;" horiz-adv-x="770" d="M147 490q0 217 80 430q13 37 43.5 56t65.5 19q43 0 75.5 -28.5t32.5 -73.5q0 -17 -2 -30l-1 -2v-3q-30 -75 -54.5 -184t-24.5 -202q0 -232 160 -232q36 0 79 11q12 3 30 3q48 0 77 -35.5t29 -79.5q0 -35 -19.5 -63t-57.5 -40q-84 -22 -148 -22q-80 0 -143.5 27t-104 72.5 t-67.5 108t-38.5 128.5t-11.5 140zM369 1283q0 7 1 14.5t2 12.5l1 5v18v1q0 4 1.5 9t3.5 9l1 3v5q0 50 45 91.5t92 41.5q8 0 15 -1.5t12.5 -3.5t6.5 -2l3 -1l2 -1q89 -40 94 -134v-15q0 -53 -19 -103.5t-56 -84.5l-1 -1l-1 -1q-41 -31 -78 -31q-40 0 -72.5 29t-32.5 74 q0 1 -5 8.5t-10 22.5t-5 35z" />
<glyph unicode="&#x457;" horiz-adv-x="966" d="M63 1321v22l1 2q7 68 57.5 113t114.5 45h14h2q64 -8 108.5 -55.5t44.5 -108.5q0 -8 -1 -16l-2 -8v-2v-1q-9 -67 -62.5 -113t-118.5 -46h-16h-2q-60 7 -100 55.5t-40 112.5zM178 490q0 214 82 430q14 37 45.5 56t72.5 19q51 0 91.5 -28t40.5 -74q0 -8 -6 -32v-2l-1 -1 q-37 -78 -66.5 -185t-29.5 -201q0 -232 192 -232q46 0 94 11q14 3 32 3q48 0 77 -35.5t29 -79.5q0 -35 -19.5 -63t-57.5 -40q-84 -22 -168 -22q-93 0 -165.5 27.5t-117.5 72.5t-73.5 108t-40 128.5t-11.5 139.5zM586 1319q0 7 1 12t3 7l1 2v3q9 65 61.5 111.5t117.5 46.5 l20 -4q61 -7 99.5 -53t38.5 -109q0 -4 -0.5 -8.5t-1 -7.5t-1 -5t-1.5 -4v-1v-2l-1 -2q-8 -68 -53.5 -112t-109.5 -44h-16h-1q-65 6 -111 57t-46 113z" />
<glyph unicode="&#x45e;" horiz-adv-x="1443" d="M-160 -1012q0 92 38 214q2 8 4 9l1 4q170 423 861 807l1 1h1q30 14 59 14q46 0 79 -34.5t33 -76.5q0 -16 -9 -39.5t-21 -31.5l-21 -14h-1l-4 -2q-533 -305 -727 -610q-73 -120 -73 -206q0 -163 166 -243q150 -74 281 -74q171 0 243 128q82 147 136.5 312.5t81.5 342.5 t37 336t10 353q0 58 -5 298q-216 -355 -472 -355h-3h-2q-4 0 -11.5 0.5t-21.5 1.5q-3 0 -14.5 1t-12.5 1h-2h-3q-77 13 -134 52t-89.5 89t-52.5 119.5t-26 131.5t-6 137q0 65 6 170.5t7 128.5q0 48 34.5 76t79.5 28t80 -27.5t35 -75.5q0 -10 -7 -80t-7 -125 q0 -109 11.5 -199t41 -153t73.5 -63h2q27 0 69 26q107 64 195 175.5t141 229t82 241.5q8 37 36 58t62 21h1q43 -3 76 -30t33 -76q2 -105 11.5 -388t9.5 -440v-85q0 -424 -70 -754q-30 -153 -72.5 -279t-88.5 -212t-101 -152t-105.5 -104t-105.5 -61.5t-97.5 -31.5t-84.5 -8 q-59 0 -88 8h-1h-1q-34 1 -77 8.5t-100 25t-111 43t-107.5 66.5t-93.5 92t-64.5 124t-24.5 157zM424 1458q0 43 10 86q6 31 25.5 52.5t48.5 26.5q10 2 18 2q34 0 59.5 -21.5t33.5 -54.5q3 -11 3 -31v-2v-1q0 -3 -0.5 -8t-0.5 -7q0 -20 5 -42q9 -39 31.5 -62.5t48.5 -23.5 q10 0 15 1l1 1h1h1l2 1q12 3 35 15q103 68 147 169q17 44 67 59l2 1l3 1q6 1 17 1q36 0 68.5 -22t41.5 -60v-1l1 -2q4 -29 -10 -61q-1 -4 -4.5 -11.5t-5.5 -11.5q-44 -108 -113.5 -176t-179.5 -91l-27 -1q-39 -6 -72 -6q-105 0 -173.5 53t-88.5 139q-10 48 -10 88z" />
<glyph unicode="&#x490;" horiz-adv-x="1116" d="M-109 469q0 104 75 179q36 36 73 36q46 0 79.5 -34.5t33.5 -80.5q0 -43 -32 -75q-11 -11 -11 -41q0 -51 36.5 -117t92.5 -104q52 -33 88 -33q58 0 106 67.5t70.5 149.5t22.5 146v7q-4 104 -30.5 233t-55.5 231.5t-52.5 232.5t-23.5 239v27q0 43 36 75.5t83 32.5 q31 0 60 -19q188 -128 348 -128q5 0 19 1t23 1q123 9 222 63l85 82q-52 30 -52 93q0 43 29.5 76.5t81.5 35.5h11q85 0 129.5 -43.5t44.5 -113.5q0 -74 -43.5 -153t-107.5 -119q-193 -124 -431 -124q-139 0 -288 53q15 -91 54.5 -232.5t68 -271t28.5 -241.5q0 -72 -13 -140 q-10 -52 -27 -110t-51 -131.5t-76.5 -130.5t-108 -96t-140.5 -39h-23h-2q-99 8 -200.5 89.5t-166.5 200t-65 226.5z" />
<glyph unicode="&#x491;" horiz-adv-x="1198" d="M-45 413v9q0 53 35.5 83t81.5 30q47 0 85 -32.5t40 -87.5q0 -4 0.5 -29t1 -33.5t2 -30.5t3.5 -33.5t5 -28t7.5 -29t10.5 -22.5q19 -32 36.5 -43t40.5 -11q18 0 41 5q14 5 38.5 36t30.5 60v1l1 1q23 76 23 168q0 12 2 53.5t2 58.5v12q-28 235 -139 439q-17 29 -17 58 q0 49 35.5 86.5t89.5 37.5q16 0 37 -7h1h1q94 -29 216 -29q207 0 332 45q137 48 137 147q0 10 -21 45t-21 64q0 47 32 82.5t85 35.5h3q81 0 121 -72.5t40 -168.5q0 -122 -113 -241q-48 -49 -107.5 -83.5t-113.5 -52.5t-128 -27.5t-127 -11.5t-135 -2q-6 0 -18.5 0.5 t-16.5 0.5q75 -215 75 -419q0 -126 -19 -228.5t-74 -183.5q-53 -76 -120.5 -110.5t-135.5 -34.5q-73 1 -136.5 31.5t-107.5 81t-76 115t-48 132t-18 133.5z" />
<glyph unicode="&#x2000;" horiz-adv-x="1341" />
<glyph unicode="&#x2001;" horiz-adv-x="2683" />
<glyph unicode="&#x2002;" horiz-adv-x="1341" />
<glyph unicode="&#x2003;" horiz-adv-x="2683" />
<glyph unicode="&#x2004;" horiz-adv-x="894" />
<glyph unicode="&#x2005;" horiz-adv-x="670" />
<glyph unicode="&#x2006;" horiz-adv-x="447" />
<glyph unicode="&#x2007;" horiz-adv-x="447" />
<glyph unicode="&#x2008;" horiz-adv-x="335" />
<glyph unicode="&#x2009;" horiz-adv-x="536" />
<glyph unicode="&#x200a;" horiz-adv-x="149" />
<glyph unicode="&#x2010;" d="M88 616q0 58 71 87.5t187 29.5h32q33 1 76.5 0t92 -1t100 -4t100 -8.5t91.5 -13.5t75 -21t51 -29.5t19 -39.5q0 -72 -92 -88.5t-337 -15.5h-65h-135q-149 0 -207.5 21t-58.5 83z" />
<glyph unicode="&#x2011;" d="M88 616q0 58 71 87.5t187 29.5h32q33 1 76.5 0t92 -1t100 -4t100 -8.5t91.5 -13.5t75 -21t51 -29.5t19 -39.5q0 -72 -92 -88.5t-337 -15.5h-65h-135q-149 0 -207.5 21t-58.5 83z" />
<glyph unicode="&#x2012;" d="M88 616q0 58 71 87.5t187 29.5h32q33 1 76.5 0t92 -1t100 -4t100 -8.5t91.5 -13.5t75 -21t51 -29.5t19 -39.5q0 -72 -92 -88.5t-337 -15.5h-65h-135q-149 0 -207.5 21t-58.5 83z" />
<glyph unicode="&#x2013;" horiz-adv-x="925" d="M74 340q0 56 65 83.5t166 27.5q572 0 572 -111q0 -58 -77 -77q-57 -15 -255 -17q-75 -1 -113 -2h-119q-133 0 -186 19.5t-53 76.5z" />
<glyph unicode="&#x2014;" horiz-adv-x="1830" d="M131 340q0 62 99 87t291 25q46 0 158 -6t175 -7h117h134q73 0 120.5 -1t110.5 -3.5t102.5 -9.5t77 -17.5t55.5 -27.5t18 -40q0 -54 -99 -74q-90 -19 -403 -20q-251 -1 -307 -2h-227q-256 0 -339 16.5t-83 79.5z" />
<glyph unicode="&#x2015;" horiz-adv-x="1658" d="M123 422q-5 23 8.5 40t43.5 22q221 40 536 40q129 0 376 -9t359 -9q32 0 53 -21t21 -49t-21 -48.5t-53 -20.5q-109 0 -329.5 -2t-331.5 -2q-364 0 -598 13q-24 1 -42 14.5t-22 31.5z" />
<glyph unicode="&#x2018;" horiz-adv-x="245" d="M36 1593q0 64 26.5 137.5t68 154t52.5 109.5q12 31 35 49t51 20h11q31 0 57 -19t30 -50q5 -29 -16 -64l-1 -1l-1 -1q-24 -33 -45.5 -90.5t-21.5 -106.5q0 -14 1 -20l21 -67q21 -68 21 -112v-11q-3 -65 -45.5 -99.5t-91.5 -34.5q-35 0 -56 17q-83 64 -94 155q-2 22 -2 34z " />
<glyph unicode="&#x2019;" horiz-adv-x="407" d="M99 1280q0 20 18 51h2v2q24 33 45.5 90.5t21.5 106.5q0 3 -1 10t-1 10t-20.5 69t-20.5 110v12q3 64 46 98.5t92 34.5q36 0 55 -16q81 -61 94 -156q2 -10 2 -35q0 -64 -26.5 -136.5t-68 -153t-52.5 -109.5q-24 -63 -86 -70h-11q-31 0 -57.5 19t-30.5 51q-1 4 -1 12z" />
<glyph unicode="&#x201a;" horiz-adv-x="342" d="M37 -308q-5 27 17 64v1l1 1q24 33 45.5 90.5t21.5 106.5q0 14 -1 20q-2 10 -12.5 41t-19.5 68t-9 70v11q3 65 45.5 99.5t91.5 34.5q35 0 56 -17q82 -63 93 -155q3 -33 3 -34q0 -64 -27 -137.5t-68.5 -153.5t-52.5 -110q-12 -31 -34.5 -49t-50.5 -20h-11q-31 0 -57.5 19 t-30.5 50z" />
<glyph unicode="&#x201c;" horiz-adv-x="585" d="M36 1593q0 64 26.5 137.5t68 154t52.5 109.5q12 31 35 49t51 20h11q31 0 57 -19t30 -50q5 -29 -16 -64l-1 -1l-1 -1q-24 -33 -45.5 -90.5t-21.5 -106.5q0 -14 1 -20l21 -67q21 -68 21 -112v-11q-3 -65 -45.5 -99.5t-91.5 -34.5q-35 0 -56 17q-83 64 -94 155q-2 22 -2 34z M397 1593q0 64 26.5 137.5t68 154t52.5 109.5q12 31 34.5 49t50.5 20h12q31 0 57 -19t30 -50q5 -27 -17 -64v-1l-1 -1q-24 -33 -45.5 -90.5t-21.5 -106.5q0 -14 1 -20q2 -10 12.5 -41t19.5 -68t9 -70v-11q-3 -65 -45.5 -99.5t-91.5 -34.5q-35 0 -56 17q-82 63 -93 155 q-2 22 -2 34z" />
<glyph unicode="&#x201d;" horiz-adv-x="604" d="M13 1341q-5 29 16 64l1 1q25 34 46.5 91.5t21.5 106.5v4q-1 4 -1.5 9t-0.5 8q-2 9 -13 40.5t-19.5 68t-8.5 68.5v11q2 66 45.5 100.5t92.5 34.5q32 0 55 -17q83 -62 94 -154q2 -11 2 -36q0 -64 -27 -137t-67.5 -152t-52.5 -111q-24 -64 -86 -69h-1h-10q-31 0 -56.5 18.5 t-30.5 50.5zM373 1341q-5 28 17 64v1h1q25 34 46.5 91.5t21.5 106.5l-1 4q0 4 -0.5 9t-0.5 8q-2 9 -13 40.5t-19.5 68t-8.5 68.5v11q2 66 45 100.5t92 34.5q32 0 55 -17q83 -62 94 -154q3 -17 3 -36q0 -64 -27 -137t-68 -152t-53 -111q-24 -64 -85 -69h-2h-9q-31 0 -57 18.5 t-31 50.5z" />
<glyph unicode="&#x201e;" horiz-adv-x="604" d="M-12 -300q-5 28 17 64v1l1 1q25 35 46.5 91.5t21.5 105.5v4q-1 4 -1.5 9.5t-0.5 8.5q-2 9 -13 40.5t-19.5 68t-8.5 68.5v10q2 66 45 100.5t92 34.5q33 0 55 -16q83 -62 94 -155q2 -11 2 -36q0 -64 -27 -137t-67.5 -151.5t-52.5 -110.5q-24 -65 -85 -70h-2h-9 q-31 0 -57 18.5t-31 50.5zM349 -300q-5 29 16 64l1 1v1q25 35 46.5 91.5t21.5 105.5v4q-1 4 -1.5 9.5t-0.5 8.5q-2 9 -13 40.5t-19.5 68t-8.5 68.5v10q2 66 45 100.5t92 34.5q34 0 56 -16q83 -62 94 -155q2 -11 2 -36q0 -64 -27 -137t-67.5 -152t-52.5 -111q-24 -64 -86 -69 h-1h-10q-31 0 -56.5 18.5t-30.5 50.5z" />
<glyph unicode="&#x202f;" horiz-adv-x="536" />
<glyph unicode="&#x205f;" horiz-adv-x="670" />
<glyph unicode="&#x20ac;" horiz-adv-x="1296" d="M-53 729q0 27 18.5 48.5t48.5 25.5q60 8 211 15q104 183 327 365q94 76 201 125.5t210 49.5q176 0 274 -163v-1v1q-9 18 -33 67l-30 60q10 -21 64 -129q9 -18 9 -36q0 -32 -23.5 -55t-54.5 -23q-30 0 -54 24l-1 1l-1 1q-64 79 -161 79q-115 0 -252.5 -103.5 t-238.5 -257.5q333 0 565 15h1h7q44 0 72.5 -28.5t28.5 -66.5q0 -33 -23 -58t-62 -29q-225 -25 -520 -25q-109 0 -163 1q-24 -61 -30 -105q188 -5 318 -5q198 0 321 4h3q46 0 74 -29.5t28 -68.5q0 -33 -24 -58.5t-65 -27.5q-79 -2 -226 -2q-65 0 -201.5 1t-211.5 1 q8 -22 19 -39q67 -114 202 -170.5t305 -56.5q135 0 268 34l4 1h4q8 0 19.5 -2.5t31 -17.5t29.5 -40q7 -15 7 -35q0 -36 -34 -70l-4 -6l-11 -4q-163 -59 -327 -59q-54 0 -147 11q-136 20 -249 73.5t-198.5 150.5t-117.5 226h-9q-24 0 -64.5 5t-57.5 5q-34 0 -53 25t-19 55 q0 29 18 53.5t51 26.5q19 2 48 2h41h24q1 59 21 133q-72 3 -140 13q-30 4 -48.5 25t-18.5 48z" />
<glyph unicode="&#x20b4;" horiz-adv-x="1034" d="M76 490q0 30 20.5 55t55.5 25q24 -1 72.5 -3t71.5 -3q28 40 60 77q-95 3 -179 27q-27 8 -40.5 30t-13.5 46q0 28 18 51.5t51 23.5h9h2q106 -15 262 -15h58q98 89 137 158q27 44 27 82q0 76 -167 76q-52 0 -111 -9t-88 -18q-13 -5 -29 -5q-32 0 -52.5 24.5t-20.5 55.5 q0 43 40 63q111 57 265 57q63 0 121 -12.5t109 -38.5t81.5 -73.5t30.5 -110.5q0 -56 -28 -124q-26 -63 -66 -116q44 2 105 4h3q41 0 63.5 -26.5t22.5 -61.5q0 -36 -23 -66.5t-65 -30.5q-14 0 -26 4q-64 15 -157 15q-55 0 -81 -1q-53 -48 -86 -81q-2 -2 -4 -4.5t-3.5 -3.5 t-3 -2.5l-2.5 -2.5q13 0 36 -0.5t35 -0.5q130 0 216 15h3h2q10 2 16 2q41 0 64.5 -27.5t23.5 -62.5t-24.5 -62.5t-66.5 -27.5h-15h-2q-79 12 -206 12q-32 0 -97 -1t-96 -1q-34 -65 -34 -125v-13q13 -133 169 -133q77 0 162.5 30t126.5 65l1 1l1 1q32 23 63 23q40 0 69.5 -29 t29.5 -68q0 -36 -31 -67q-70 -68 -174.5 -105.5t-213.5 -37.5q-74 0 -140.5 19t-121 56.5t-86.5 100t-32 143.5q0 23 3 50q4 46 21 94q-45 5 -84 13q-28 5 -42.5 25.5t-14.5 44.5z" />
<glyph unicode="&#x2122;" horiz-adv-x="1863" d="M101 1714q0 31 20 55.5t57 24.5q83 0 194 24q20 53 73 53q34 0 59 -27q9 1 34 4.5t36 5t32.5 5t34 6.5t28.5 7.5t28 9.5t21 11l1 1h1q29 17 54 17q43 0 65.5 -33.5t22.5 -71.5q0 -35 -22 -62.5t-62 -27.5h-22q-26 0 -91.5 -18t-87.5 -22q-11 -2 -30 -7t-21 -5 q0 -12 -2 -44t-2 -51v-31q0 -35 4 -76t10 -49q44 -29 44 -74q0 -41 -33 -68.5t-72 -27.5q-33 0 -57.5 23.5t-28.5 65.5q0 2 -13 35t-15 57q-11 72 -11 120q0 32 2 92q-60 -6 -90 -6h-1l-100 11h-1q-28 6 -43.5 27t-15.5 46zM751 1374q0 19 8 35q11 26 40 96t52 121t47 98 l1 1l1 1q14 22 39.5 36t51.5 14q17 0 32.5 -10t18.5 -29q10 -48 71.5 -99t119.5 -51q44 0 70 29v1h1q33 32 96.5 110.5t101.5 115.5l1 1h1q28 24 67 24q60 0 83 -51q37 -78 51.5 -175t22 -195t27.5 -160q6 -13 6 -34q0 -39 -28.5 -62.5t-63.5 -23.5t-63.5 24t-32.5 66 q-2 17 -7 78.5t-8.5 92t-10.5 78.5t-15 84q-43 -51 -73.5 -81t-83.5 -60.5t-112 -38.5q-16 -3 -32 -3q-35 0 -67 9.5t-62.5 31.5t-46.5 36t-46 43q-24 -51 -36 -75t-37 -63.5t-53 -69.5q-23 -26 -55 -26t-54.5 24.5t-22.5 56.5z" />
<glyph unicode="&#x25fc;" horiz-adv-x="1126" d="M0 0v1126h1126v-1126h-1126z" />
</font>
</defs>
</svg>
